<?xml version="1.0" encoding="utf-8"?>
<!-- Generator: Adobe Illustrator 24.2.0, SVG Export Plug-In . SVG Version: 6.00 Build 0)  -->
<svg version="1.1" id="Camada_1" xmlns="http://www.w3.org/2000/svg" xmlns:xlink="http://www.w3.org/1999/xlink" x="0px" y="0px"
	 viewBox="0 0 982 250.9" style="enable-background:new 0 0 982 250.9;" xml:space="preserve">
<style type="text/css">
	.st0{fill:#AB7DFA;}
	.st1{fill:#CEB5FB;}
	.st2{clip-path:url(#SVGID_2_);}
	.st3{fill:#38165A;}
	.st4{clip-path:url(#SVGID_6_);}
	.st5{fill:#7B5DCE;}
	.st6{clip-path:url(#SVGID_8_);}
	.st7{clip-path:url(#SVGID_10_);}
	.st8{fill:#190C2B;}
	.st9{fill:#C4AEF4;}
	.st10{fill:#563996;}
</style>
<path class="st0" d="M981,246.5L952.5,23.1C951,13,941.3,5.4,930,5.4H54.3c-11.4,0-21,7.6-22.6,17.7L1,246.5H981z"/>
<path class="st1" d="M7.8,216.5L34,23.5c1.4-8.6,9.5-15,19.3-15.1H929c9.6,0.1,17.9,6.5,19.3,15.1l26.2,193h3.4L951.6,23.1
	C949.9,13,940.3,5.4,928.9,5.4H53.2c-11.4,0-21,7.6-22.6,17.7L4.4,216.5H7.8z"/>
<g>
	<g>
		<g>
			<g>
				<g>
					<g>
						<defs>
							<path id="SVGID_1_" d="M925.2,215.1H56.2v-128c0-8.8,8.2-16,18.2-16h832.5c10,0,18.2,7.2,18.2,16V215.1z"/>
						</defs>
						<clipPath id="SVGID_2_">
							<use xlink:href="#SVGID_1_"  style="overflow:visible;"/>
						</clipPath>
						<g class="st2">
							<rect x="50.5" y="66.1" class="st3" width="880.3" height="154"/>
						</g>
					</g>
				</g>
			</g>
		</g>
	</g>
	<g>
		<g>
			<path id="SVGID_3_" class="st1" d="M56.1,77.8V64.1c0-8.8,8.2-16,18.2-16h833.4c10,0,18.2,7.2,18.2,16v13.7c0-8.8-8.2-16-18.2-16
				H74.3C64.2,61.8,56.1,69,56.1,77.8z"/>
		</g>
		<g>
			<g>
				<g>
					<g>
						<defs>
							<path id="SVGID_4_" d="M56.1,77.8V64.1c0-8.8,8.2-16,18.2-16h833.4c10,0,18.2,7.2,18.2,16v13.7c0-8.8-8.2-16-18.2-16H74.3
								C64.2,61.8,56.1,69,56.1,77.8z"/>
						</defs>
						<clipPath id="SVGID_6_">
							<use xlink:href="#SVGID_4_"  style="overflow:visible;"/>
						</clipPath>
						<g class="st4">
							<rect x="50.4" y="43.1" class="st1" width="881.3" height="39.7"/>
						</g>
					</g>
				</g>
			</g>
		</g>
	</g>
	<g>
		<g>
			<path id="SVGID_5_" class="st5" d="M56.2,82.9V69.1c0-8.8,8.2-16,18.2-16h832.5c10,0,18.2,7.2,18.2,16V83c0-8.8-8.2-16-18.2-16
				H74.5C64.4,66.9,56.2,74.1,56.2,82.9L56.2,82.9z"/>
		</g>
		<g>
			<g>
				<g>
					<g>
						<defs>
							<path id="SVGID_7_" d="M56.2,82.9V69.1c0-8.8,8.2-16,18.2-16h832.5c10,0,18.2,7.2,18.2,16V83c0-8.8-8.2-16-18.2-16H74.5
								C64.4,66.9,56.2,74.1,56.2,82.9L56.2,82.9z"/>
						</defs>
						<clipPath id="SVGID_8_">
							<use xlink:href="#SVGID_7_"  style="overflow:visible;"/>
						</clipPath>
						<g class="st6">
							<rect x="50.5" y="48.1" class="st5" width="880.3" height="39.9"/>
						</g>
					</g>
				</g>
			</g>
		</g>
	</g>
	<g>
		<g>
			<g>
				<g>
					<g>
						<defs>
							<path id="SVGID_9_" d="M56.2,89.9v-9.7c0-8.8,8.2-16,18.2-16h832.5c10,0,18.2,7.2,18.2,16v9.7c0-8.8-8.2-16-18.2-16H74.5
								C64.4,73.9,56.2,81,56.2,89.9L56.2,89.9z"/>
						</defs>
						<clipPath id="SVGID_10_">
							<use xlink:href="#SVGID_9_"  style="overflow:visible;"/>
						</clipPath>
						<g class="st7">
							<rect x="50.5" y="59.2" class="st8" width="880.3" height="35.7"/>
						</g>
					</g>
				</g>
			</g>
		</g>
	</g>
	<rect x="56" y="209.3" class="st1" width="868.9" height="6.4"/>
</g>
<g>
	<g>
		<g>
			<g>
				<path class="st9" d="M437.7,16.9c1.2,0.4,1.8,1,1.8,1.7c0,0.2-0.1,0.7-0.3,1.3L434,35c0,0.1-0.1,0.3-0.2,0.5s-0.3,0.4-0.7,0.7
					c-0.4,0.3-0.9,0.4-1.4,0.4s-1-0.1-1.4-0.4c-0.4-0.3-0.6-0.6-0.8-0.9l-3.2-9.4c-2,6-3,9-3.1,9.1c0,0.1-0.1,0.3-0.2,0.5
					s-0.3,0.4-0.4,0.5c-0.4,0.4-0.9,0.6-1.5,0.6s-1.1-0.1-1.4-0.4c-0.4-0.3-0.6-0.5-0.7-0.8l-0.2-0.4l-5.3-15
					c-0.2-0.6-0.3-1-0.3-1.3c0-0.7,0.6-1.3,1.8-1.7c0.5-0.2,1-0.3,1.4-0.3s0.8,0.1,1,0.4s0.4,0.7,0.6,1.3l3,9.1l3-9
					c0.3-0.8,0.7-1.3,1.4-1.6c0.3-0.1,0.7-0.2,1.1-0.2s0.9,0.1,1.3,0.4s0.7,0.6,0.8,0.9l3.1,9.4l3-9.1c0.1-0.4,0.3-0.7,0.4-0.9
					c0.1-0.2,0.3-0.4,0.5-0.6s0.5-0.3,0.9-0.3S437.2,16.8,437.7,16.9z"/>
				<path class="st9" d="M459.9,16.6c2.7,0,5,1,7,2.9s3,4.4,3,7.2c0,2.9-0.9,5.3-2.8,7.4c-1.9,2-4.2,3-7,3s-5.1-1-7-3
					s-2.9-4.4-2.9-7.1c0-1.5,0.3-2.9,0.8-4.2s1.3-2.4,2.2-3.3c0.9-0.9,2-1.6,3.1-2.1C457.5,16.8,458.7,16.6,459.9,16.6z M455,26.9
					c0,1.6,0.5,2.9,1.6,3.9c1,1,2.2,1.5,3.5,1.5s2.5-0.5,3.5-1.5s1.6-2.3,1.6-3.9c0-1.7-0.5-3-1.6-4c-1-1-2.2-1.5-3.5-1.5
					s-2.5,0.5-3.5,1.5C455.5,23.9,455,25.2,455,26.9z"/>
				<path class="st9" d="M481.5,34c-0.5-0.6-0.7-1.1-0.7-1.6s0.4-1.1,1.2-1.8c0.5-0.4,0.9-0.7,1.4-0.7s1.2,0.5,2.1,1.4
					c0.3,0.3,0.6,0.6,1.1,0.9s0.9,0.4,1.3,0.4c1.7,0,2.5-0.7,2.5-2.1c0-0.4-0.2-0.8-0.7-1c-0.5-0.3-1-0.5-1.7-0.6s-1.4-0.3-2.2-0.6
					c-0.8-0.3-1.5-0.6-2.2-1s-1.3-1-1.7-1.8c-0.5-0.8-0.7-1.8-0.7-3c0-1.6,0.6-3,1.8-4.2c1.2-1.2,2.8-1.8,4.9-1.8
					c1.1,0,2.1,0.1,3,0.4s1.5,0.6,1.9,0.9l0.7,0.5c0.6,0.5,0.8,1,0.8,1.3s-0.2,0.9-0.7,1.5c-0.6,0.9-1.3,1.4-1.9,1.4
					c-0.4,0-0.9-0.2-1.4-0.5c-0.1,0-0.2-0.1-0.3-0.3s-0.3-0.3-0.4-0.4c-0.4-0.2-0.9-0.4-1.5-0.4s-1.1,0.1-1.5,0.4S486,22,486,22.5
					s0.2,0.9,0.7,1.2c0.5,0.3,1,0.5,1.7,0.6s1.4,0.3,2.3,0.5c0.8,0.2,1.6,0.5,2.3,0.8c0.7,0.3,1.3,0.9,1.7,1.7
					c0.5,0.8,0.7,1.8,0.7,3s-0.2,2.2-0.7,3.1s-1.1,1.6-1.9,2.1c-1.5,1-3,1.4-4.7,1.4c-0.9,0-1.7-0.1-2.4-0.3s-1.4-0.5-1.9-0.8
					c-1-0.6-1.6-1.1-2-1.7L481.5,34z"/>
				<path class="st9" d="M510.8,32.3c0.3,0.3,0.5,0.9,0.5,1.9v0.1c0,0.4,0,0.8,0,1s-0.1,0.5-0.3,0.7c-0.3,0.5-1,0.8-2.1,0.8
					s-1.8-0.2-2.2-0.5c-0.4-0.3-0.5-1-0.5-2v-0.1c0-0.4,0-0.7,0-1c0-0.2,0.1-0.5,0.3-0.7c0.3-0.5,1-0.8,2.1-0.8
					S510.4,31.9,510.8,32.3z"/>
				<path class="st9" d="M533,24.8h4.8c1,0,1.6,0.3,1.8,0.8c0.2,0.3,0.3,0.9,0.3,1.5v6c0,0.6-0.3,1.1-0.8,1.7
					c-1.5,1.6-3.8,2.4-6.9,2.4c-2.7,0-5.1-1-7.1-3.1c-2-2-3-4.5-3-7.4s1-5.3,3-7.2c2-1.9,4.4-2.9,7.2-2.9c2.1,0,4.2,0.7,6.1,2.1
					c0.5,0.4,0.7,0.8,0.7,1.2c0,0.4-0.2,1-0.6,1.5c-0.7,1-1.4,1.4-1.9,1.4c-0.3,0-0.9-0.2-1.7-0.7s-1.7-0.7-2.7-0.7
					c-1.4,0-2.6,0.5-3.7,1.5s-1.6,2.2-1.6,3.8c0,1.6,0.5,2.9,1.6,4s2.3,1.6,3.7,1.6c1,0,1.9-0.2,2.7-0.5v-3h-2.2
					c-0.6,0-1-0.1-1.2-0.2s-0.4-0.4-0.5-0.6c-0.1-0.3-0.1-0.7-0.1-1.1s0-0.9,0.1-1.2c0.1-0.3,0.2-0.5,0.4-0.6
					C532,24.8,532.5,24.8,533,24.8z"/>
				<path class="st9" d="M562,24.8h4.8c1,0,1.6,0.3,1.8,0.8c0.2,0.3,0.3,0.9,0.3,1.5v6c0,0.6-0.3,1.1-0.8,1.7
					c-1.5,1.6-3.8,2.4-6.9,2.4c-2.7,0-5.1-1-7.1-3.1c-2-2-3-4.5-3-7.4s1-5.3,3-7.2c2-1.9,4.4-2.9,7.2-2.9c2.1,0,4.2,0.7,6.1,2.1
					c0.5,0.4,0.7,0.8,0.7,1.2c0,0.4-0.2,1-0.6,1.5c-0.7,1-1.4,1.4-1.9,1.4c-0.3,0-0.9-0.2-1.7-0.7s-1.7-0.7-2.7-0.7
					c-1.4,0-2.6,0.5-3.7,1.5s-1.6,2.2-1.6,3.8c0,1.6,0.5,2.9,1.6,4s2.3,1.6,3.7,1.6c1,0,1.9-0.2,2.7-0.5v-3h-2.2
					c-0.6,0-1-0.1-1.2-0.2s-0.4-0.4-0.5-0.6c-0.1-0.3-0.1-0.7-0.1-1.1s0-0.9,0.1-1.2c0.1-0.3,0.2-0.5,0.4-0.6
					C561,24.8,561.4,24.8,562,24.8z"/>
			</g>
		</g>
		<g>
			<g>
				<path class="st10" d="M437.7,17.9c1.2,0.4,1.8,1,1.8,1.7c0,0.2-0.1,0.7-0.3,1.3L434,36c0,0.1-0.1,0.3-0.2,0.5s-0.3,0.4-0.7,0.7
					c-0.4,0.3-0.9,0.4-1.4,0.4s-1-0.1-1.4-0.4c-0.4-0.3-0.6-0.6-0.8-0.9l-3.2-9.4c-2,6-3,9-3.1,9.1c0,0.1-0.1,0.3-0.2,0.5
					s-0.3,0.4-0.4,0.5c-0.4,0.4-0.9,0.6-1.5,0.6s-1.1-0.1-1.4-0.4c-0.4-0.3-0.6-0.5-0.7-0.8l-0.2-0.4l-5.3-15
					c-0.2-0.6-0.3-1-0.3-1.3c0-0.7,0.6-1.3,1.8-1.7c0.5-0.2,1-0.3,1.4-0.3s0.8,0.1,1,0.4s0.4,0.7,0.6,1.3l3,9.1l3-9
					c0.3-0.8,0.7-1.3,1.4-1.6c0.3-0.1,0.7-0.2,1.1-0.2s0.9,0.1,1.3,0.4s0.7,0.6,0.8,0.9l3.1,9.4l3-9.1c0.1-0.4,0.3-0.7,0.4-0.9
					c0.1-0.2,0.3-0.4,0.5-0.6s0.5-0.3,0.9-0.3S437.2,17.8,437.7,17.9z"/>
				<path class="st10" d="M459.9,17.6c2.7,0,5,1,7,2.9s3,4.4,3,7.2c0,2.9-0.9,5.3-2.8,7.4c-1.9,2-4.2,3-7,3s-5.1-1-7-3
					s-2.9-4.4-2.9-7.1c0-1.5,0.3-2.9,0.8-4.2s1.3-2.4,2.2-3.3c0.9-0.9,2-1.6,3.1-2.1C457.5,17.8,458.7,17.6,459.9,17.6z M455,27.9
					c0,1.6,0.5,2.9,1.6,3.9c1,1,2.2,1.5,3.5,1.5s2.5-0.5,3.5-1.5s1.6-2.3,1.6-3.9c0-1.7-0.5-3-1.6-4c-1-1-2.2-1.5-3.5-1.5
					s-2.5,0.5-3.5,1.5C455.5,24.9,455,26.2,455,27.9z"/>
				<path class="st10" d="M481.5,35c-0.5-0.6-0.7-1.1-0.7-1.6s0.4-1.1,1.2-1.8c0.5-0.4,0.9-0.7,1.4-0.7s1.2,0.5,2.1,1.4
					c0.3,0.3,0.6,0.6,1.1,0.9c0.5,0.3,0.9,0.4,1.3,0.4c1.7,0,2.5-0.7,2.5-2.1c0-0.4-0.2-0.8-0.7-1c-0.5-0.3-1-0.5-1.7-0.6
					s-1.4-0.3-2.2-0.6c-0.8-0.3-1.5-0.6-2.2-1s-1.3-1-1.7-1.8c-0.5-0.8-0.7-1.8-0.7-3c0-1.6,0.6-3,1.8-4.2c1.2-1.2,2.8-1.8,4.9-1.8
					c1.1,0,2.1,0.1,3,0.4s1.5,0.6,1.9,0.9l0.7,0.5c0.6,0.5,0.8,1,0.8,1.3s-0.2,0.9-0.7,1.5c-0.6,0.9-1.3,1.4-1.9,1.4
					c-0.4,0-0.9-0.2-1.4-0.5c-0.1,0-0.2-0.1-0.3-0.3s-0.3-0.3-0.4-0.4c-0.4-0.2-0.9-0.4-1.5-0.4s-1.1,0.1-1.5,0.4S486,23,486,23.5
					s0.2,0.9,0.7,1.2c0.5,0.3,1,0.5,1.7,0.6s1.4,0.3,2.3,0.5c0.8,0.2,1.6,0.5,2.3,0.8c0.7,0.3,1.3,0.9,1.7,1.7
					c0.5,0.8,0.7,1.8,0.7,3c0,1.2-0.2,2.2-0.7,3.1s-1.1,1.6-1.9,2.1c-1.5,1-3,1.4-4.7,1.4c-0.9,0-1.7-0.1-2.4-0.3s-1.4-0.5-1.9-0.8
					c-1-0.6-1.6-1.1-2-1.7L481.5,35z"/>
				<path class="st10" d="M510.8,33.3c0.3,0.3,0.5,0.9,0.5,1.9v0.1c0,0.4,0,0.8,0,1s-0.1,0.5-0.3,0.7c-0.3,0.5-1,0.8-2.1,0.8
					s-1.8-0.2-2.2-0.5c-0.4-0.3-0.5-1-0.5-2v-0.1c0-0.4,0-0.7,0-1c0-0.2,0.1-0.5,0.3-0.7c0.3-0.5,1-0.8,2.1-0.8
					S510.4,32.9,510.8,33.3z"/>
				<path class="st10" d="M533,25.8h4.8c1,0,1.6,0.3,1.8,0.8c0.2,0.3,0.3,0.9,0.3,1.5v6c0,0.6-0.3,1.1-0.8,1.7
					c-1.5,1.6-3.8,2.4-6.9,2.4c-2.7,0-5.1-1-7.1-3.1c-2-2-3-4.5-3-7.4s1-5.3,3-7.2c2-1.9,4.4-2.9,7.2-2.9c2.1,0,4.2,0.7,6.1,2.1
					c0.5,0.4,0.7,0.8,0.7,1.2c0,0.4-0.2,1-0.6,1.5c-0.7,1-1.4,1.4-1.9,1.4c-0.3,0-0.9-0.2-1.7-0.7s-1.7-0.7-2.7-0.7
					c-1.4,0-2.6,0.5-3.7,1.5s-1.6,2.2-1.6,3.8c0,1.6,0.5,2.9,1.6,4s2.3,1.6,3.7,1.6c1,0,1.9-0.2,2.7-0.5v-3h-2.2
					c-0.6,0-1-0.1-1.2-0.2s-0.4-0.4-0.5-0.6c-0.1-0.3-0.1-0.7-0.1-1.1s0-0.9,0.1-1.2c0.1-0.3,0.2-0.5,0.4-0.6
					C532,25.8,532.5,25.8,533,25.8z"/>
				<path class="st10" d="M562,25.8h4.8c1,0,1.6,0.3,1.8,0.8c0.2,0.3,0.3,0.9,0.3,1.5v6c0,0.6-0.3,1.1-0.8,1.7
					c-1.5,1.6-3.8,2.4-6.9,2.4c-2.7,0-5.1-1-7.1-3.1c-2-2-3-4.5-3-7.4s1-5.3,3-7.2c2-1.9,4.4-2.9,7.2-2.9c2.1,0,4.2,0.7,6.1,2.1
					c0.5,0.4,0.7,0.8,0.7,1.2c0,0.4-0.2,1-0.6,1.5c-0.7,1-1.4,1.4-1.9,1.4c-0.3,0-0.9-0.2-1.7-0.7s-1.7-0.7-2.7-0.7
					c-1.4,0-2.6,0.5-3.7,1.5s-1.6,2.2-1.6,3.8c0,1.6,0.5,2.9,1.6,4s2.3,1.6,3.7,1.6c1,0,1.9-0.2,2.7-0.5v-3h-2.2
					c-0.6,0-1-0.1-1.2-0.2s-0.4-0.4-0.5-0.6c-0.1-0.3-0.1-0.7-0.1-1.1s0-0.9,0.1-1.2c0.1-0.3,0.2-0.5,0.4-0.6
					C561,25.8,561.4,25.8,562,25.8z"/>
			</g>
		</g>
	</g>
</g>
</svg>
