<svg id="Camada_1" data-name="Camada 1" xmlns="http://www.w3.org/2000/svg" viewBox="0 0 74 79"><defs><style>.cls-1{fill:#b983ff;}.cls-1,.cls-2{fill-rule:evenodd;}.cls-2{fill:#894cd8;}</style></defs><g id="Page-1"><g id="Ranking-Primeira-Rodada-Copy-26"><g id="bulinha"><path id="Fill-34" class="cls-1" d="M72.12,20.87a40.82,40.82,0,0,0-71.22,0Z"/><path id="Fill-36" class="cls-1" d="M.9,58a40.82,40.82,0,0,0,71.22,0Z"/><path id="Fill-38" class="cls-2" d="M71.67,39.79c0,19.14-15.74,34.65-35.16,34.65S1.35,58.93,1.35,39.79,17.09,5.15,36.51,5.15,71.67,20.66,71.67,39.79"/><path id="Fill-40" class="cls-1" d="M36.51,3.89C16.38,3.89,0,20,0,39.79s16.38,35.9,36.51,35.9S73,59.59,73,39.79,56.64,3.89,36.51,3.89m0,1.85C55.6,5.74,71.07,21,71.07,39.79S55.6,73.85,36.51,73.85,2,58.6,2,39.79s15.48-34,34.56-34"/></g></g></g></svg>