<?xml version="1.0" encoding="UTF-8"?>
<svg width="74px" height="79px" viewBox="0 0 74 79" version="1.1" xmlns="http://www.w3.org/2000/svg" xmlns:xlink="http://www.w3.org/1999/xlink">
    <!-- Generator: Sketch 63.1 (92452) - https://sketch.com -->
    <title>bulinha</title>
    <desc>Created with Sketch.</desc>
    <g id="Page-1" stroke="none" stroke-width="1" fill="none" fill-rule="evenodd">
        <g id="Ranking-Primeira-Rodada-Copy-26" transform="translate(-1528.000000, -584.000000)">
            <g id="bulinha" transform="translate(1528.000000, 584.000000)">
                <path d="M72.1219857,20.867 C65.2590143,8.452 51.8766429,-7.94031507e-13 36.5121286,-7.94031507e-13 C21.1476143,-7.94031507e-13 7.76524286,8.452 0.902271429,20.867 L72.1219857,20.867 Z" id="Fill-34" fill="#A662F0"></path>
                <path d="M0.902165714,58.0003 C7.76513714,70.4153 21.1475086,78.8673 36.5120229,78.8673 C51.8765371,78.8673 65.2589086,70.4153 72.12188,58.0003 L0.902165714,58.0003 Z" id="Fill-36" fill="#A662F0"></path>
                <path d="M71.6729114,39.7943 C71.6729114,58.9283 55.92994,74.4403 36.5112829,74.4403 C17.0926257,74.4403 1.35071143,58.9283 1.35071143,39.7943 C1.35071143,20.6593 17.0926257,5.1483 36.5112829,5.1483 C55.92994,5.1483 71.6729114,20.6593 71.6729114,39.7943" id="Fill-38" fill="#782CCA"></path>
                <path d="M36.5116,3.8934 C16.3793714,3.8934 5.40824528e-13,19.9984 5.40824528e-13,39.7934 C5.40824528e-13,59.5894 16.3793714,75.6944 36.5116,75.6944 C56.6448857,75.6944 73.0242571,59.5894 73.0242571,39.7934 C73.0242571,19.9984 56.6448857,3.8934 36.5116,3.8934 M36.5116,5.7414 C55.5983143,5.7414 71.0706571,20.9874 71.0706571,39.7934 C71.0706571,58.6014 55.5983143,73.8464 36.5116,73.8464 C17.4259429,73.8464 1.9536,58.6014 1.9536,39.7934 C1.9536,20.9874 17.4259429,5.7414 36.5116,5.7414" id="Fill-40" fill="#A662F0"></path>
            </g>
        </g>
    </g>
</svg>