<?xml version="1.0" encoding="utf-8"?>
<!-- Generator: Adobe Illustrator 24.0.3, SVG Export Plug-In . SVG Version: 6.00 Build 0)  -->
<svg version="1.1" id="Camada_1" xmlns="http://www.w3.org/2000/svg" xmlns:xlink="http://www.w3.org/1999/xlink" x="0px" y="0px"
	 viewBox="0 0 956.1 676.6" style="enable-background:new 0 0 956.1 676.6;" xml:space="preserve">
<style type="text/css">
	.st0{display:none;}
	.st1{display:inline;fill:#BCBCBC;stroke:#FFFFFF;stroke-miterlimit:10;}
	.st2{opacity:0.4;fill-rule:evenodd;clip-rule:evenodd;fill:#1C142E;enable-background:new    ;}
	.st3{fill-rule:evenodd;clip-rule:evenodd;fill:#6A3BCA;}
	.st4{fill-rule:evenodd;clip-rule:evenodd;fill:#CBB0FB;}
	.st5{fill:#FDFDFF;}
	.st6{clip-path:url(#SVGID_2_);}
	.st7{clip-path:url(#SVGID_4_);}
	.st8{fill:#341C59;}
	.st9{clip-path:url(#SVGID_6_);}
	.st10{clip-path:url(#SVGID_8_);}
	.st11{fill:#6A3BCA;}
	.st12{clip-path:url(#SVGID_10_);}
	.st13{clip-path:url(#SVGID_12_);}
	.st14{fill:#1C142E;}
</style>
<g id="Camada_2_1_" class="st0">
	<rect class="st1" width="956.1" height="612.6"/>
</g>
<g id="Camada_1_1_">
	<path class="st2" d="M25.5,24.3h902.3c10.5,0,19,8.4,19,18.7c0,0.3,0,0.5,0,0.8l-22.1,608.8c-0.4,10-8.8,17.9-19,17.9h-855
		c-10.2,0-18.6-7.9-19-17.9L6.5,43.8c-0.4-10.3,7.7-19,18.2-19.4L25.5,24.3z"/>
	<path class="st3" d="M25.5,14.3h902.3c10.5,0,19,8.4,19,18.7c0,0.3,0,0.5,0,0.8l-21.1,612.8c-0.4,10-8.8,17.9-19,17.9h-858
		c-10.2,0-18.6-7.9-19-17.9L6.5,33.8c-0.4-10.3,7.7-19,18.2-19.4L25.5,14.3z"/>
	<path class="st4" d="M26.5,4.5h902.3c10.5,0,19,8.4,19,18.7c0,0.3,0,0.5,0,0.8l-24.1,612.8c-0.4,10-7.8,17.9-18,17.9h-856
		c-10.2,0-17.6-7.9-18-17.9L7.5,24C7.1,13.7,15.2,5,25.7,4.5H26.5z"/>
	<path class="st5" d="M905.6,656.1h-856c-11,0-20-8.5-20.5-19.3L6,24C5.5,12.9,14.3,3.5,25.6,3h0.9h902.3c11.3,0,20.5,9,20.5,20.2
		c0,0.3,0,0.6,0,0.8l-23.1,612.8C925.7,647.6,916.6,656.2,905.6,656.1z M26.5,6h-0.7C16.1,6.4,8.6,14.4,9,23.9l0,0l23.1,612.8
		c0.4,9.2,8.1,16.5,17.5,16.5h856c9.4,0,17.1-7.3,17.5-16.5l23.1-612.8c0-0.2,0-0.5,0-0.7c0-9.5-7.8-17.2-17.5-17.2L26.5,6L26.5,6z"
		/>
	<g>
		<g>
			<g>
				<defs>
					<path id="SVGID_1_" d="M54.1,46.8h847c8.8,0,16,7,16,15.7c0,0.2,0,0.4,0,0.6L897.5,613c-0.3,8.4-7.4,15.1-16,15.1H73.8
						c-8.6,0-15.7-6.7-16-15.1L37.1,63.2c-0.4-8.7,7.5-16,16.3-16.4l0,0L54.1,46.8z"/>
				</defs>
				<clipPath id="SVGID_2_">
					<use xlink:href="#SVGID_1_"  style="overflow:visible;"/>
				</clipPath>
				<g class="st6">
					<g>
						<g>
							<g>
								<defs>
									<polygon id="SVGID_3_" points="-841.3,-166.6 1078.7,-106.6 1078.7,955.4 -841.3,895.4 									"/>
								</defs>
								<clipPath id="SVGID_4_">
									<use xlink:href="#SVGID_3_"  style="overflow:visible;"/>
								</clipPath>
								<g class="st7">
									<rect x="33.1" y="41.9" class="st8" width="889" height="591.2"/>
								</g>
							</g>
						</g>
					</g>
				</g>
			</g>
		</g>
	</g>
	<g>
		<g>
			<g>
				<defs>
					<path id="SVGID_5_" d="M37.7,66.8V45.6c0-8.8,7.2-16,16-16h847c8.8,0,16,7.2,16,16v21.1c0-8.8-7.2-16-16-16h-847
						C44.9,50.8,37.7,57.9,37.7,66.8z"/>
				</defs>
				<clipPath id="SVGID_6_">
					<use xlink:href="#SVGID_5_"  style="overflow:visible;"/>
				</clipPath>
				<g class="st9">
					<g>
						<g>
							<g>
								<defs>
									<rect id="SVGID_7_" x="-841.3" y="-169.5" width="1920" height="1080"/>
								</defs>
								<clipPath id="SVGID_8_">
									<use xlink:href="#SVGID_7_"  style="overflow:visible;"/>
								</clipPath>
								<g class="st10">
									<rect x="32.7" y="24.6" class="st11" width="889" height="47.2"/>
								</g>
							</g>
						</g>
					</g>
				</g>
			</g>
		</g>
	</g>
	<g>
		<g>
			<g>
				<defs>
					<path id="SVGID_9_" d="M37.7,70.6v-15c0-8.8,7.2-16,16-16h847c8.8,0,16,7.2,16,16v14.9c0-8.8-7.2-16-16-16h-847
						C44.9,54.6,37.7,61.7,37.7,70.6z"/>
				</defs>
				<clipPath id="SVGID_10_">
					<use xlink:href="#SVGID_9_"  style="overflow:visible;"/>
				</clipPath>
				<g class="st12">
					<g>
						<g>
							<g>
								<defs>
									<rect id="SVGID_11_" x="-841.3" y="-176.5" width="1920" height="1080"/>
								</defs>
								<clipPath id="SVGID_12_">
									<use xlink:href="#SVGID_11_"  style="overflow:visible;"/>
								</clipPath>
								<g class="st13">
									<rect x="32.7" y="34.6" class="st14" width="889" height="40.9"/>
								</g>
							</g>
						</g>
					</g>
				</g>
			</g>
		</g>
	</g>
</g>
</svg>
