<?xml version="1.0" encoding="utf-8"?>
<!-- Generator: Adobe Illustrator 23.0.2, SVG Export Plug-In . SVG Version: 6.00 Build 0)  -->
<svg version="1.1" id="Camada_1" xmlns="http://www.w3.org/2000/svg" xmlns:xlink="http://www.w3.org/1999/xlink" x="0px" y="0px"
	 viewBox="0 0 778.4 284.8" style="enable-background:new 0 0 778.4 284.8;" xml:space="preserve">
<style type="text/css">
	.st0{clip-path:url(#SVGID_2_);}
	.st1{fill-rule:evenodd;clip-rule:evenodd;fill:#C9A2FB;}
	.st2{clip-path:url(#SVGID_6_);}
	.st3{fill-rule:evenodd;clip-rule:evenodd;fill:#6A3BCA;}
	.st4{fill:none;stroke:#FDFDFF;stroke-width:3;stroke-miterlimit:10;}
	.st5{fill-rule:evenodd;clip-rule:evenodd;fill:#1C142E;}
</style>
<g>
	<g>
		<defs>
			<path id="SVGID_1_" d="M24.2,4.5h730.1c10.5,0,19,8.5,19,19c0,0.5,0,0.9-0.1,1.4l-17.5,237.8c-0.7,9.9-9,17.6-18.9,17.6H41.6
				c-10,0-18.2-7.7-18.9-17.6L5.2,24.9C4.4,14.4,12.3,5.3,22.8,4.5C23.2,4.5,23.7,4.5,24.2,4.5z"/>
		</defs>
		<use xlink:href="#SVGID_1_"  style="overflow:visible;fill-rule:evenodd;clip-rule:evenodd;fill:#AB7DFA;"/>
		<clipPath id="SVGID_2_">
			<use xlink:href="#SVGID_1_"  style="overflow:visible;"/>
		</clipPath>
		<g class="st0">
			<defs>
				<rect id="SVGID_3_" x="-548.3" y="-187.5" width="1840" height="1236"/>
			</defs>
			<use xlink:href="#SVGID_3_"  style="overflow:visible;fill:#AB7DFA;"/>
			<clipPath id="SVGID_4_">
				<use xlink:href="#SVGID_3_"  style="overflow:visible;"/>
			</clipPath>
		</g>
	</g>
	<path class="st1" d="M32.1,56.2V43.4c0-8.8,7.2-16,16-16h679c8.8,0,16,7.2,16,16v12.7c0-8.8-7.2-16-16-16h-679
		C39.2,40.2,32.1,47.3,32.1,56.2z"/>
	<g>
		<defs>
			<path id="SVGID_5_" d="M48.1,46.2h680.3c8.8,0,14.7,7.3,14.7,16.2c0,0.4-13.1,175.7-13.1,175.7c-0.7,8.3-7.6,14.7-15.9,14.7H62.5
				c-8.3,0-16.3-6.4-16.9-14.7L32.1,63.6C31.4,54.8,38,47,46.8,46.3C47.2,46.3,47.6,46.2,48.1,46.2z"/>
		</defs>
		<use xlink:href="#SVGID_5_"  style="overflow:visible;fill-rule:evenodd;clip-rule:evenodd;fill:#341C59;"/>
		<clipPath id="SVGID_6_">
			<use xlink:href="#SVGID_5_"  style="overflow:visible;"/>
		</clipPath>
		<g class="st2">
			<defs>
				<rect id="SVGID_7_" x="-548.3" y="-187.5" width="1840" height="1236"/>
			</defs>
			<clipPath id="SVGID_8_">
				<use xlink:href="#SVGID_7_"  style="overflow:visible;"/>
			</clipPath>
		</g>
	</g>
	<path class="st3" d="M32.5,59V46.3c0-8.8,7.2-16,16-16h679c8.8,0,16,7.2,16,16v11.3c0-8.8-7.2-14.6-16-14.6h-679
		C39.6,43,32.5,50.2,32.5,59z"/>
	<path class="st4" d="M24.2,4.5h730.1c10.5,0,19,8.5,19,19c0,0.5,0,0.9-0.1,1.4l-17.5,237.8c-0.7,9.9-9,17.6-18.9,17.6H41.6
		c-10,0-18.2-7.7-18.9-17.6L5.2,24.9C4.4,14.4,12.3,5.3,22.8,4.5C23.2,4.5,23.7,4.5,24.2,4.5z"/>
	<path class="st5" d="M32.5,65V52.3c0-8.8,7.2-16,16-16h679c8.8,0,16,7.2,16,16l-0.4,11c0-8.8-6.8-14.3-15.6-14.3h-679
		C39.6,49,32.5,56.2,32.5,65z"/>
</g>
</svg>
