<svg id="Camada_1" data-name="Camada 1" xmlns="http://www.w3.org/2000/svg" xmlns:xlink="http://www.w3.org/1999/xlink" viewBox="0 0 1474.81 433.56"><defs><style>.cls-1,.cls-4{fill:#341c59;}.cls-1,.cls-2{clip-rule:evenodd;}.cls-2,.cls-7,.cls-9{fill:#201535;}.cls-3{fill:#ab7dfa;}.cls-11,.cls-3,.cls-4,.cls-6,.cls-7{fill-rule:evenodd;}.cls-5{clip-path:url(#clip-path);}.cls-6{fill:#6a3bca;}.cls-8{clip-path:url(#clip-path-2);}.cls-10{fill:none;stroke:#fdfdff;stroke-miterlimit:10;stroke-width:3px;}.cls-11{fill:#c9a2fb;}</style><clipPath id="clip-path"><path class="cls-1" d="M322.46,213.9H109.82c-9,0-17.2-3.13-21-8l-57.19-79a9,9,0,0,1,0-11.71l57.19-71c3.8-4.89,12-8,21-8H1362.67c9.15,0,17.44,3.24,21.16,8.25l58.46,77.85A9,9,0,0,1,1442,134l-57.89,72.13c-3.88,4.77-12,7.79-20.81,7.79H1165.12L1141,388.23a19,19,0,0,1-18.83,16.4H365.38a19,19,0,0,1-18.82-16.4Z"/></clipPath><clipPath id="clip-path-2"><path class="cls-2" d="M1440,136.5c1.44-2.32,1.07-3.76-1.13-6.74l-62.38-82.34c-3.68-5-11.91-8.26-21-8.26H113.14c-8.93,0-17.06,3.14-20.82,8L31.63,126.89s-2.3-3.54-2.3-3.51c-.92-3.13.57-5.85,2.29-8.08l58-75.1c3.79-4.9,12-8,20.93-8H1359.12c9.12,0,17.39,3.24,21.09,8.26l62.27,83c2.77,3.76,3.64,5.06.66,8.75Z"/></clipPath></defs><title>fimdejogo1</title><path class="cls-3" d="M306.82,229.67H99.35c-9.29,0-17.74-3.91-21.66-10L8.74,126.1a13.09,13.09,0,0,1,0-14.61l68-93.55c3.91-6.1,12.36-10,21.65-10h1273.9c9.43,0,18,4,21.81,10.29l73.22,98.36a13.1,13.1,0,0,1-.36,14.63l-69.63,88.73c-4,5.95-12.33,9.73-21.46,9.73h-195L1156.07,409a19,19,0,0,1-18.82,16.4H350.42A19,19,0,0,1,331.6,409Z"/><path class="cls-4" d="M322.46,213.9H109.82c-9,0-17.2-3.13-21-8l-57.19-79a9,9,0,0,1,0-11.71l57.19-71c3.8-4.89,12-8,21-8H1362.67c9.15,0,17.44,3.24,21.16,8.25l58.46,77.85A9,9,0,0,1,1442,134l-57.89,72.13c-3.88,4.77-12,7.79-20.81,7.79H1165.12L1141,388.23a19,19,0,0,1-18.83,16.4H365.38a19,19,0,0,1-18.82-16.4Z"/><path class="cls-6" d="M1442.67,132.77c1.51-3.44-1.67-7-4.19-10.39l-58.22-79c-3.71-5-12-8.26-21.08-8.26H111.49c-9,0-17.13,3.14-20.92,8L31.62,118.3c-1.49,1.94-2.35,3.77-2.29,5.08a9.81,9.81,0,0,1,.3-12.08L87.87,36.2c3.8-4.9,12-8,21-8H1362.78c9.16,0,17.46,3.24,21.18,8.26l61.51,85c2.79,3.76.2,7.7-2.8,11.39Z"/><path class="cls-7" d="M1440,136.5c1.44-2.32,1.07-3.76-1.13-6.74l-62.38-82.34c-3.68-5-11.91-8.26-21-8.26H113.14c-8.93,0-17.06,3.14-20.82,8L31.63,126.89s-2.3-3.54-2.3-3.51c-.92-3.13.57-5.85,2.29-8.08l58-75.1c3.79-4.9,12-8,20.93-8H1359.12c9.12,0,17.39,3.24,21.09,8.26l62.27,83c2.77,3.76,3.64,5.06.66,8.75Z"/><g class="cls-8"><rect class="cls-9" x="-214.53" y="-344.84" width="1840" height="1236"/></g><path class="cls-10" d="M305.77,229.9H98.3c-9.29,0-17.73-3.9-21.65-10L7.7,126.34a13.09,13.09,0,0,1,0-14.61l68-93.55c3.92-6.11,12.37-10,21.66-10H1371.2c9.44,0,18,4,21.82,10.28l73.21,98.37a13.08,13.08,0,0,1-.35,14.62l-69.63,88.74c-4,5.95-12.34,9.72-21.47,9.72h-195L1155,409.23a19,19,0,0,1-18.83,16.4H349.38a19,19,0,0,1-18.82-16.4Z"/><path class="cls-11" d="M1443.57,131.33l2-4.35c3-3.69-2.33-7.84-5.11-11.6l-58.39-79c-3.71-5-12-8.26-21.13-8.26H109.72c-9,0-17.18,3.14-21,8L30.63,111.3a9.19,9.19,0,0,0-2,7.6l-.56,2.26c-2.89-3.71-4.42-8.88-1.53-12.59L86,32.19c3.82-4.89,12-8,21.08-8H1364.38c9.18,0,17.51,3.24,21.24,8.25l61.67,84.85c2.79,3.74,1.19,7.86-1.82,11.55Z"/></svg>