<?xml version="1.0" encoding="utf-8"?>
<!-- Generator: Adobe Illustrator 23.0.2, SVG Export Plug-In . SVG Version: 6.00 Build 0)  -->
<svg version="1.1" id="Camada_1" xmlns="http://www.w3.org/2000/svg" xmlns:xlink="http://www.w3.org/1999/xlink" x="0px" y="0px"
	 viewBox="0 0 199 101.5" style="enable-background:new 0 0 199 101.5;" xml:space="preserve">
<style type="text/css">
	.st0{fill:#14134C;}
	.st1{fill:#8A5EED;}
	.st2{fill:#5C36BF;}
	.st3{fill:#DFCAFC;}
	.st4{fill:#A97DF8;}
	.st5{fill:#090958;}
	.st6{fill:#559595;}
	.st7{fill:#3A6666;}
	.st8{fill:#D6FFF1;}
	.st9{fill:#90FFEB;}
	.st10{fill:#5E9AF9;}
	.st11{fill:#622115;}
	.st12{fill:#F7FFFB;}
	.st13{fill:#BB6C1B;}
	.st14{fill:#465360;}
	.st15{fill:#340022;}
	.st16{fill:#203941;}
	.st17{fill:#668087;}
	.st18{fill:#FFFFFF;}
	.st19{fill:#2C4C5E;}
	.st20{fill:#E2E6E6;}
	.st21{fill:#CE6920;}
	.st22{fill:#8F2C0A;}
	.st23{fill:#EBBA49;}
	.st24{fill:#F5E383;}
</style>
<g>
	<path class="st0" d="M194.2,29.6L194.2,29.6c-0.2-0.3-0.5-0.6-0.9-1c-1-1-2.2-1.7-3.5-2.2l-27.9-9.8c-0.3-0.1-0.5-0.2-0.8-0.2
		l-0.2,0c-0.3-0.1-0.5-0.1-0.8-0.1c-0.1,0-0.1,0-0.2,0c-0.1,0-0.2,0-0.4,0c-0.1-0.2-0.3-0.4-0.4-0.6c-0.5-0.7-1.1-1.3-1.8-1.9
		c-0.7-0.6-1.5-1-2.4-1.3c-0.3-0.1-0.6-0.2-0.9-0.3c-0.3-0.1-0.6-0.2-0.9-0.2l-29.2-5.4c-0.3,0-0.5-0.1-0.8-0.1
		c-1.7-2.6-4.6-4.2-7.8-4.3L85.9,1.5c-2.8-0.1-5.5,1.2-7.3,3.3c-0.4,0-0.9,0.1-1.3,0.1l-30.2,5.3c-3.1,0.6-5.6,2.5-6.8,5.3
		c-2-0.5-4.1-0.2-6,0.6l-26.7,12c-2.2,1-3.9,2.8-4.7,5c-0.8,2.3-0.7,4.7,0.4,6.9l12.9,25.6c1.4,2.9,3.3,4.7,5.9,5.5l0.3,0.1
		c1.9,0.5,7.9,1.1,8.3,1.2l0.1,0c2.2,0,4.2-0.8,6-1.6l22.9-10.6c1-0.4,1.8-1,2.6-1.6l26-5c0.9-0.2,1.8-0.5,2.6-0.9l20.2,0.4
		c0.8,0.4,1.6,0.6,2.4,0.8l23.9,4.4c1.1,1.7,2.8,2.9,4.7,3.6l28.6,10c0.8,0.3,1.8,0.5,2.8,0.5c3.8,0,8.3-2.2,10.6-5.2l0.3-0.4l0,0
		c0.1-0.1,0.1-0.2,0.2-0.3c0-0.1,0.1-0.1,0.1-0.2c0.1-0.2,0.2-0.3,0.3-0.6c0.1-0.1,0.1-0.2,0.1-0.3c0.1-0.3,0.3-0.6,0.4-0.9
		l9.9-26.6C196.6,35.2,196.1,32.1,194.2,29.6z"/>
	<path class="st1" d="M39.9,18.8L14.3,32.1c-3.2,1.4-4.5,5-2.9,8l13,25.6c0.6,1.2-2.9,1.9-1.7,2.5c0.5,0.2,7.4,1.1,8,1.1
		c1.6,0,3.4-0.7,4.8-1.3l23.1-10.6c3.8-1.7,4.6-4.8,3-7.8l-11.9-25c-1-2-2-3.5-2-3.5C46.6,21,39.9,18.8,39.9,18.8z"/>
	<path class="st2" d="M39.4,18.2L14.5,31.1c-3.2,1.4-4.5,5-2.9,8l13,25.6c0.6,1.2-1.5,1.7-0.3,2.3c0.5,0.2,5.8,1.2,6.3,1.2
		c1.6,0,2.9-0.7,4.2-1.3l23.1-10.6c3.2-1.4,4.8-4.2,3.3-7.2L49.9,23.6c-1-2-3.7-1.9-3.7-1.9C45,21.6,39.4,18.2,39.4,18.2z"/>
	<path class="st3" d="M35.2,18.6l-26.8,12c-3.2,1.4-4.5,5-2.9,8l13,25.6c2.5,5.2,6.5,4.7,9.7,3.3l25.6-12.4c3.2-1.4,4.5-5,3-8
		l-13-25.6C42.2,18.5,38.4,17.2,35.2,18.6z"/>
	<path class="st4" d="M36.4,18.9l-26.8,12c-3.2,1.4-4.5,5-2.9,8l13,25.6c1.5,3,5.4,4.3,8.5,2.9l26.8-12c3.2-1.4,4.5-5,3-8l-13-25.6
		C43.4,18.8,39.5,17.5,36.4,18.9z"/>
	<path class="st1" d="M49.1,31.6c-2.8,1.5-5.5,3.1-8.2,4.8c-9,5.6-18.3,12.4-25.3,20.1l4.1,8.1c0.7,1.3,1.2,1.8,2.5,2.6
		c0.6,0.3,2.9,0.7,5.7-0.3l26.8-12c1.4-0.6,2.4-1.7,2.9-3c0.5-1.4,0.4-2.8-0.3-4.1L49.1,31.6z"/>
	<path class="st2" d="M49.9,52.3l-3.6-20.3l0,0c-0.1-0.5-0.4-0.9-0.9-1.2c-0.5-0.2-1.1-0.3-1.5,0l-4.2,1.9c-0.7,0.3-1.1,1-0.9,1.7
		l1.6,7.8l-5.8-6c-0.5-0.5-1.3-0.7-2-0.4l-3.8,1.7c-0.7,0.3-1,1-0.9,1.6l1.1,7.8L24,41c-0.5-0.6-1.3-0.7-2-0.4l-4.5,2
		c-0.5,0.2-0.8,0.6-0.9,1.1c-0.1,0.5,0,1,0.4,1.4l14.6,15.4c0.3,0.3,0.8,0.5,1.3,0.5c0.2,0,0.5-0.1,0.7-0.2l3.5-1.6
		c0.7-0.3,1-1,0.9-1.7l-1.4-9.3l6.8,6.9c0.5,0.5,1.3,0.7,2,0.4L49,54C49.7,53.7,50.1,53,49.9,52.3z"/>
	<path class="st1" d="M38.3,18.5l7,14.4L42.2,19C42.2,19,39.8,17.9,38.3,18.5z"/>
	<path class="st5" d="M42.1,29.8c-0.5-1.3-2.1-2.1-5.7-4.4c-1.1-0.7-1.7-1.3-2.9-0.8c-3.8,1.5-5.5,1.8-5.9,3.2
		c-0.2,0.7,0.4,3.3,0.7,4.6c-1.4-0.9-2.9-2.2-4.5-2.8c-1.4-0.5-2.7,0.5-4,1c-1.4,0.6-3.1,1.1-3.2,2.8c0,0,0.3,2.4,0.5,3.5
		c-0.8-0.5-4-2.7-4.7-2.8c-1.1-0.2-4.6,1.8-5.6,2.3C5,37.1,4.7,37.8,6.5,40c0.9,1.1,9.7,10.7,12.9,14.1c1.1,1.1,7.4,4.9,8.5,5.2
		c0.7,0.2,5.2-2.2,5.4-2.4c0.7-0.6-0.1-4.8-0.4-6.4c2,1.2,5.8,3.2,6.6,3.4c1,0.2,1.5-0.1,2.5-0.6c0.6-0.3,2.6-1.2,3.1-1.5
		c0.8-0.5,0.6-0.7,0.5-1.8c0-0.8-0.3-1.7-0.4-2.6C44.2,41.6,43.1,35.7,42.1,29.8z M23.5,30.2"/>
	<path class="st6" d="M40.6,29.7c0-0.2-0.2-0.4-0.4-0.5c-0.2-0.1-5.7-3.6-5.7-3.6l0.9,5.5c-0.3,0.1-0.5,0.4-0.4,0.8l2.3,10.9
		l-8.1-8.3c-0.2-0.2-5.9-4-6.2-3.9l1.5,5.4c-0.3,0.1-0.5,0.4-0.4,0.7l1.5,10.9l-7.1-8.2c-0.2-0.2-0.6-0.7-0.8-0.7l-5.4-3.3
		c-0.2,0.1,0.4,6,0.4,6.2c0,0.2,0,0.4,0.2,0.6L21.3,54c0.1,0.2,6.4,3.7,6.6,3.7c0.1,0,0.2,0,0.3-0.1l3.5-1.6
		c0.3-0.1,0.5-0.4,0.4-0.7l-1.8-12.1l2.9,5.6c0.2,0.2,6.5,3.7,6.8,3.6l4.2-1.7c0.3-0.1,0.2-0.2,0.1-0.5L40.6,29.7z"/>
	<path class="st7" d="M24.1,36.6l0.3,2c0.6-0.2,1.3-0.3,2.1,0c2,0.6,3.9,1.5,5.8,2.5c0.7-0.6,1.1-1.3,1.4-2.1l-4.5-4.6
		c-0.2-0.2-5.9-4-6.2-3.9l1.5,5.4C24.2,36,24,36.3,24.1,36.6z"/>
	<path class="st7" d="M23.1,45.5l-4.7-6.3c-0.2-0.2-0.6-0.7-0.8-0.7l-5.4-3.3c-0.2,0.1,3.5,11,3.6,12.4
		C18.5,48.4,20.3,45.4,23.1,45.5z"/>
	<path class="st7" d="M38.2,46.5l6.1,3.8c0.1,0.1,0.1,0.3,0,0.4l-3.7,1.6c-0.2,0.1-0.6,0.3-1.2-0.1l-6.2-3.3c-0.2-0.1,1-0.1,1.1-0.2
		l3.5-2.1C38,46.5,38.2,46.5,38.2,46.5z"/>
	<path class="st7" d="M26.3,52l5.9,3.8c0.1,0.1,0.1,0.3,0,0.4l-3.6,1.6c-0.2,0.1-0.6,0.3-1.1-0.1l-5.9-3.3c-0.1-0.1,0.9-0.1,1.1-0.2
		L26,52C26,51.9,26.2,51.9,26.3,52z"/>
	<path class="st8" d="M34.8,26.1c0-0.2-0.2-0.4-0.4-0.5c-0.2-0.1-0.5-0.1-0.7,0l-4.2,1.9c-0.3,0.1-0.5,0.4-0.4,0.8L31.5,39l-8.1-8.3
		c-0.2-0.2-0.6-0.3-0.9-0.2l-3.8,1.7c-0.3,0.1-0.5,0.4-0.4,0.7l1.5,10.9l-7.2-8.3c-0.2-0.2-0.6-0.3-0.9-0.2l-4.5,2
		c-0.2,0.1-0.4,0.3-0.4,0.5c0,0.2,0,0.4,0.2,0.6l14.6,15.4c0.1,0.2,0.3,0.2,0.6,0.2c0.1,0,0.2,0,0.3-0.1l3.5-1.6
		c0.3-0.1,0.5-0.4,0.4-0.7l-1.8-12.1l8.8,9c0.2,0.2,0.6,0.3,0.9,0.2l3.7-1.6c0.3-0.1,0.5-0.4,0.4-0.7L34.8,26.1z"/>
	<path class="st9" d="M30.9,33.9l1.5,6.7l-4.8-5c-0.2,0.1-0.4,0.2-0.6,0.3c-2.5,1.5-4.9,3.1-7.2,4.8l0.8,4.6l-2.6-3.1
		c-1.2,1-2.5,2-3.7,3l7.7,8.2c0.1,0.1,0.1,0.1,0.2,0.1l3.7-1.6c0.1,0,0.2-0.1,0.1-0.2L24,38.3l9.8,10.1c0.1,0.1,0.2,0.1,0.3,0.1
		l3.7-1.6c0.1,0,0.2-0.2,0.1-0.3L35.4,32C33.9,32.6,32.3,33.2,30.9,33.9z"/>
	<g>
		<path class="st1" d="M81.8,9.7l-30.2,6.5c-3.4,0.6-5.7,3.8-5,7.1L50.8,52c0.2,0.6,5.9,4.5,9.4,3.9l27.5-5.3c3.4-0.6,5.7-3.8,5-7.1
			l-4.3-27.8c-0.3-1.6-1.3-2.9-2.6-3.8C84.4,11,81.8,9.7,81.8,9.7z"/>
	</g>
	<g>
		<path class="st2" d="M82,8.6l-30.2,6.5c-3.4,0.6-5.7,3.8-5,7.1l4.1,28.7c0.2,0.6,5.9,4.5,9.4,3.9l27.5-5.3c3.4-0.6,5.7-3.8,5-7.1
			l-4.3-27.8c-0.3-1.6-1.3-2.9-2.6-3.8C84.6,9.9,82,8.6,82,8.6z"/>
	</g>
	<path class="st3" d="M90.3,40.4l-5.5-28c-0.7-3.3-3.6-5.5-7.1-4.9l-30.4,5.3c-3.5,0.6-5.7,3.8-5,7.1l6,28c0.7,3.3,3.5,6.2,7,5.6
		l30-6C88.8,46.9,91,43.7,90.3,40.4z"/>
	<g>
		<path class="st4" d="M77.6,8.5l-29.2,5.3c-3.4,0.6-5.7,3.8-5,7.1l5.9,27.8c0.7,3.3,4.1,5.4,7.5,4.8L86,48.2c3.4-0.6,5.7-3.8,5-7.1
			l-5.9-27.8C84.4,10,81,7.9,77.6,8.5z"/>
	</g>
	<g>
		<path class="st1" d="M87.3,21.3c-6.6,0.3-26.8,4-40.7,14.4L49.1,48c0.7,3.3,4.1,5.4,7.5,4.8l29.7-5.6c3.4-0.6,5.7-3.8,5-7.1
			L87.3,21.3z"/>
	</g>
	<path class="st2" d="M79.5,32.8C79,31,78.3,29.4,77.3,28c-1-1.4-2.2-2.5-3.6-3.3s-3-1.3-4.7-1.6c-1.7-0.2-3.5-0.2-5.4,0.2
		c-1.9,0.4-3.5,1-5,1.9c-1.4,0.9-2.6,2-3.6,3.3c-0.9,1.3-1.5,2.8-1.8,4.4c-0.3,1.6-0.2,3.4,0.2,5.2c0.4,1.8,1.2,3.4,2.2,4.8
		c1,1.4,2.2,2.5,3.6,3.3c1.4,0.8,3,1.4,4.7,1.6c1,0.1,2.1,0.2,3.2,0.1c0.7-0.1,1.4-0.2,2.2-0.3c1.9-0.4,3.5-1,5-1.9
		c1.5-0.9,2.6-2,3.6-3.3c0.9-1.3,1.5-2.8,1.8-4.4C80,36.4,79.9,34.6,79.5,32.8z M72.7,34.2c0.2,0.9,0.3,1.8,0.2,2.6
		c-0.1,0.8-0.4,1.5-0.8,2.2c-0.4,0.6-1,1.2-1.6,1.7c-0.7,0.5-1.5,0.8-2.5,1c-1,0.2-1.9,0.2-2.7,0.1c-0.8-0.1-1.6-0.4-2.2-0.9
		c-0.7-0.4-1.3-1-1.7-1.7c-0.5-0.7-0.8-1.5-1-2.4c-0.2-0.9-0.3-1.8-0.2-2.6c0.1-0.8,0.4-1.6,0.8-2.2c0.4-0.7,1-1.2,1.7-1.7
		c0.7-0.5,1.5-0.8,2.5-1c0.4-0.1,0.7-0.1,1-0.1c0.6,0,1.1,0,1.7,0.1c0.8,0.2,1.6,0.4,2.3,0.9c0.7,0.4,1.2,1,1.7,1.7
		C72.1,32.5,72.5,33.3,72.7,34.2z"/>
	<path class="st1" d="M76,8.7l3.2,24.4l10.3-0.2l-8.2-22.6C80.8,9,79.4,8.2,78,8.4L76,8.7z"/>
	<path class="st5" d="M78.9,28.1c-1.2-4.8-5.2-10.5-10-12.6c-5.8-2.6-13.7-1.3-18.1,3c-5.4,5.2-4.8,14.3,0.6,19.5
		c2.4,2.3,4.1,4.7,7.5,5.9c3.5,1.3,7.4,1.1,10.9,0C76.7,41.7,80.6,35.1,78.9,28.1z M62.5,33c-1.2,0.1-2.5-0.1-2.9-1.2
		c-0.3-0.8-0.1-2,0.1-2.7c0.6-1.5,1.9-2.5,3.6-2.9c0.8-0.2,1.9-0.3,2.6,0.1c0.9,0.5,0.9,2,0.8,3C66.4,31.5,64.6,32.4,62.5,33z"/>
	<path class="st6" d="M77.4,28.1c-0.4-1.8-1.2-3.4-2.2-4.8c-0.4-0.5-2.8-3.8-3.2-4.3c-0.7-0.8,0.5,1.5-0.4,1c-1.4-0.8-3-1.3-4.7-1.6
		c-1.7-0.2-3.5-0.2-5.4,0.2c-1.9,0.4-3.5,1-5,1.9c-1.4,0.9-2.6,2-3.6,3.3c-0.9,1.3-1.5,2.8-1.8,4.4c-0.3,1.6-0.2,3.4,0.2,5.2
		c0.3,1.2-1.1,0.1-0.5,1.2c0.3,0.5,2.4,3.2,2.7,3.6c1,1.4,2.2,2.5,3.6,3.3c1.4,0.8,3,1.4,4.7,1.6c1,0.1,2.1,0.2,3.2,0.1
		c0.7-0.1,1.4-0.2,2.2-0.3c1.9-0.4,3.5-1,5-1.9c1.5-0.9,2.6-2,3.6-3.3c0.9-1.3,1.5-2.8,1.8-4.4C77.9,31.7,77.8,29.9,77.4,28.1z
		 M70.6,29.5c0.2,0.9,0.3,1.8,0.2,2.6c-0.1,0.8-0.4,1.5-0.8,2.2c-0.4,0.6-1,1.2-1.6,1.7c-0.7,0.5-1.5,0.8-2.5,1
		c-1,0.2-1.9,0.2-2.7,0.1c-0.8-0.1-1.6-0.4-2.2-0.9c-0.7-0.4-1.3-1-1.7-1.7c-0.5-0.7-0.8-1.5-1-2.4c-0.2-0.9-0.3-1.8-0.2-2.6
		c0.1-0.8,0.4-1.6,0.8-2.2c0.4-0.7,1-1.2,1.7-1.7c0.7-0.5,1.5-0.8,2.5-1c0.4-0.1,0.7-0.1,1-0.1c0.6,0,1.1,0,1.7,0.1
		c0.8,0.2,1.6,0.4,2.3,0.9c0.7,0.4,1.2,1,1.7,1.7C70.1,27.8,70.4,28.6,70.6,29.5z"/>
	<path class="st7" d="M68.3,36c-0.7,0.5-1.5,0.8-2.5,1c-1,0.2-1.9,0.2-2.7,0.1c-0.8-0.1-1.6-0.4-2.2-0.9c-0.7-0.4-1.3-1-1.7-1.7
		c-0.5-0.7-0.8-1.5-1-2.4c0-0.2-0.1-0.4-0.1-0.6c-2.3,1.3-4.6,2.5-7.1,3.3c0.5,0.8,2.3,3,2.6,3.4c1,1.4,2.2,2.5,3.6,3.3
		c1.4,0.8,3,1.4,4.7,1.6c1,0.1,2.1,0.2,3.2,0.1c0.7-0.1,1.4-0.2,2.2-0.3c1.9-0.4,3.5-1,5-1.9c0.9-0.6,1.7-1.2,2.5-2
		C72.4,38.3,70.3,37.3,68.3,36C68.4,36,68.3,36,68.3,36z"/>
	<path class="st7" d="M58.5,32.9c0,0-4.5-3.7-2.2-8.6l2.9,2.5C59.2,26.8,57,28.8,58.5,32.9z"/>
	<path class="st8" d="M75.2,25.1c-0.4-1.8-1.2-3.4-2.2-4.8c-1-1.4-2.2-2.5-3.6-3.3c-1.4-0.8-3-1.3-4.7-1.6c-1.7-0.2-3.5-0.2-5.4,0.2
		c-1.9,0.4-3.5,1-5,1.9c-1.4,0.9-2.6,2-3.6,3.3c-0.9,1.3-1.5,2.8-1.8,4.4c-0.3,1.6-0.2,3.4,0.2,5.2c0.4,1.8,1.2,3.4,2.2,4.8
		c1,1.4,2.2,2.5,3.6,3.3c1.4,0.8,3,1.4,4.7,1.6c1,0.1,2.1,0.2,3.2,0.1c0.7-0.1,1.4-0.2,2.2-0.3c1.9-0.4,3.5-1,5-1.9
		c1.5-0.9,2.6-2,3.6-3.3c0.9-1.3,1.5-2.8,1.8-4.4C75.7,28.7,75.6,26.9,75.2,25.1z M68.4,26.5c0.2,0.9,0.3,1.8,0.2,2.6
		c-0.1,0.8-0.4,1.5-0.8,2.2c-0.4,0.6-1,1.2-1.6,1.7c-0.7,0.5-1.5,0.8-2.5,1c-1,0.2-1.9,0.2-2.7,0.1c-0.8-0.1-1.6-0.4-2.2-0.9
		c-0.7-0.4-1.3-1-1.7-1.7c-0.5-0.7-0.8-1.5-1-2.4c-0.2-0.9-0.3-1.8-0.2-2.6c0.1-0.8,0.4-1.6,0.8-2.2c0.4-0.7,1-1.2,1.7-1.7
		c0.7-0.5,1.5-0.8,2.5-1c0.4-0.1,0.7-0.1,1-0.1c0.6,0,1.1,0,1.7,0.1c0.8,0.2,1.6,0.4,2.3,0.9c0.7,0.4,1.2,1,1.7,1.7
		C67.8,24.8,68.2,25.6,68.4,26.5z"/>
	<path class="st9" d="M72.4,20.7c-0.4-0.6-0.9-1.1-1.4-1.6c-2.1,0.6-4.2,1.2-6.2,2c0.5,0.2,0.9,0.4,1.3,0.6c0.8,0.5,1.4,1.1,1.9,1.9
		c0.5,0.8,0.9,1.7,1.1,2.7l0,0c0.2,1,0.3,2,0.2,2.9c-0.1,0.9-0.4,1.7-0.9,2.5c-0.5,0.7-1.1,1.4-1.9,1.9c-0.8,0.5-1.7,0.9-2.8,1.1
		c-0.6,0.1-1.2,0.2-1.8,0.2c-0.4,0-0.8,0-1.2-0.1c-0.9-0.2-1.8-0.5-2.5-1c-0.8-0.5-1.4-1.1-1.9-1.9c-0.5-0.8-0.9-1.7-1.2-2.7
		c-0.2-1-0.3-2-0.2-2.9c0-0.1,0-0.1,0-0.1c-1.8,1.2-3.6,2.6-5.2,4.1c0,0,0,0,0,0c0.4,1.7,1.1,3.3,2,4.5c0.9,1.3,2.1,2.3,3.4,3.1
		c1.3,0.8,2.8,1.3,4.4,1.5c1,0.1,2,0.2,3,0.1c0.7,0,1.4-0.1,2.1-0.3c1.8-0.4,3.4-1,4.7-1.8c1.4-0.8,2.5-1.9,3.3-3.1
		c0.9-1.2,1.4-2.6,1.7-4.1c0.3-1.5,0.2-3.2-0.2-4.9C74,23.5,73.3,22,72.4,20.7z"/>
	<g>
		<path class="st1" d="M185.6,31l-28.1-9.8c-3.3-1.2-7,0.5-8.1,3.6l-9.9,26.6c-1.2,3.1,0.6,6.6,3.9,7.8l28.8,10
			c3.3,1.2,8.1-1.2,10.2-3.8l7.3-26.5C190.7,35.6,188.9,32.1,185.6,31z"/>
	</g>
	<g>
		<path class="st2" d="M186.1,30.3L158,20.5c-3.3-1.2-7,0.5-8.1,3.6L140,49.9c-1.2,3.1,0.6,7.3,3.9,8.3L172,68
			c3.3,1.3,8.6-1.4,9.5-3.3L190,38C191.2,34.9,189.5,31.4,186.1,30.3z"/>
	</g>
	<path class="st10" d="M189.2,29.7l-28.1-9.8c-0.6-0.2-1.3-0.3-1.9-0.3c-0.8,0-1.6,0.2-2.4,0.5c-1.4,0.6-2.4,1.7-2.9,3L144,49.6
		c-0.5,1.3-0.4,2.8,0.2,4.1c0.7,1.3,1.8,2.3,3.2,2.8l28.1,9.8c2.9,1,6.2-0.4,7.2-3.2l9.9-26.6C193.7,33.8,192.2,30.7,189.2,29.7z"/>
	<g>
		<path class="st4" d="M189.5,29l-28.1-9.8c-3.3-1.2-7,0.5-8.1,3.6l-9.9,26.6c-1.2,3.1,0.6,6.6,3.9,7.8l28.1,9.8
			c3.3,1.2,7-0.5,8.1-3.6l9.9-26.6C194.5,33.7,192.8,30.2,189.5,29z"/>
	</g>
	<path class="st1" d="M171.7,43.4c-6.5-3.8-16.4-8.3-18.4-8.8c-0.3-0.1-0.6-0.1-0.8-0.2c-0.2,0-0.3,0-0.5,0
		c-0.4,0.1-0.9,0.1-1.4,0.1c-0.3,0-0.6-0.1-0.9-0.1L144,49.6c-1,2.8,0.5,5.9,3.4,6.9l28.1,9.8c1.4,0.5,3,0.4,4.3-0.2
		c1.4-0.6,2.4-1.7,2.9-3l2.7-7.3C181.3,50.7,177,46.4,171.7,43.4z"/>
	<path class="st2" d="M182,36.6c-1-1.4-2.1-2-3.2-1.9c-1.8,0.2-2.6,2.1-2.8,2.7c-0.1,0.2-0.2,0.4-0.3,0.5c-0.7-0.7-1.5-1.3-2.3-1.8
		c0-0.1,0.1-0.1,0.1-0.2c0.4-0.7,1-1.5,0.6-2.4c-0.2-0.5-0.6-0.8-1.2-1c-0.1,0-0.2-0.1-0.4-0.3c-0.6-0.4-1.6-1.2-3.4-0.7
		c-1.3,0.3-6.6,3.2-7.2,3.5c-1.1,0.7-2.1,1.6-2.9,2.8c-0.8,1.3-1.2,2.7-1.1,3.9c0.1,0.9,0.3,1.8,0.7,2.6c-0.3,0-0.5,0.1-0.8,0.3
		l-4.9,2.5c-0.5,0.2-0.9,0.5-1.1,0.9c-0.3,0.5-0.3,1-0.2,1.6c0.5,1.6,1.3,2.9,2.3,4.1c1,1.1,2.2,2.1,3.6,2.9
		c1.1,0.6,2.3,1.1,3.5,1.5c0.9,0.2,1.8,0.4,2.7,0.4c0.4,0,0.7,0,1.1-0.1c1.3-0.1,2.5-0.5,3.6-1.2c0.2-0.1,0.7-0.4,1.3-0.7
		c3.9-2.1,6-3.3,6.5-4.3c0.3-0.5,0.4-1.2,0.1-1.7c-0.6-1-1.8-1-3.1-1c-0.2,0-0.5,0-0.8,0c-0.1-0.9-0.4-1.7-0.9-2.5
		c-0.3-0.6-0.7-1.1-1.1-1.6c0.5,0.3,1.2,0.4,1.7,0.2l4.6-1.3c0.1,0,0.3-0.1,3.3-1.6c3.2-1.7,3.2-1.7,3.4-2.1
		C184.2,39.6,182,36.6,182,36.6z M167.5,42.5C167.6,42.5,167.6,42.5,167.5,42.5c0.2,0.1,0.4,0.2,0.6,0.3c0.3,0.2,0.6,0.4,0.9,0.8
		c0.2,0.3,0.3,0.5,0.3,0.6c0,0.2,0.1,0.3,0.1,0.5c-0.5-0.5-1-1-1.5-1.5C167.8,42.9,167.7,42.7,167.5,42.5z M162.9,50.2
		c-0.1,0-0.1,0-0.2,0c-0.2-0.1-0.4-0.2-0.6-0.3c-0.4-0.2-0.7-0.5-1-0.9c-0.1-0.2-0.2-0.4-0.3-0.6c0.1-0.1,0.2-0.2,0.3-0.3
		c0.4,0.4,0.8,0.9,1.3,1.4C162.6,49.7,162.8,49.9,162.9,50.2z"/>
	<path class="st3" d="M189.5,29l-28.1-9.8c-3.4-1.4-5.8,0.3-6,1.8c1.4-0.5,3-1.6,4.5-1l28.1,9.8c3.3,1.2,5.1,4.7,3.9,7.8l-9.9,26.6
		c-0.4,1.1-1.2,2.1-2.1,2.8c1.6-0.6,3-1.8,3.6-3.5l9.9-26.6C194.5,33.7,192.8,30.2,189.5,29z"/>
	<path class="st1" d="M151.2,43.9l11.7-22.7l-3-1.2c-2-0.5-2.4,0.8-2.6,1.7L151.2,43.9z"/>
	<path class="st5" d="M188.3,37c-1.2-3.5-4.2-6.2-7.7-7.6c-4.2-1.7-7.6-0.8-11.4,1.1c-2.9,1.4-5.7,2.6-7.3,5.4
		c-1.3,2.2-1.3,4.5-0.3,6.7c-1.1,0.4-2.2,1-3.3,1.6c-1.1,0.5-2.4,1-3.4,1.7c-3.5,2.6,2.6,8.1,4.8,9.5c2.8,1.8,6.4,2.8,9.7,2
		c2.5-0.6,5-2.2,7.2-3.3c4.1-2.1,6.7-7.3,4.2-11.5C183,41.8,189.2,39.7,188.3,37z M161.7,40.5C161.7,40.5,161.7,40.5,161.7,40.5
		L161.7,40.5z"/>
	<path class="st6" d="M179,36.4c-0.9-1-2-1.8-3.2-2.5c-1-0.6-2.2-1.1-3.3-1.3c-1.2-0.3,2.3-2.9,1.2-2.8c-1.1,0.1-6.9,3-7.9,3.6
		c-1,0.6-1.9,1.4-2.6,2.6c-0.7,1.2-1.1,2.3-1,3.4c0.1,1,0.4,2,0.9,2.9c0.5,0.8,1.1,1.6,1.8,2.4c0.7,0.7,1.3,1.3,1.8,2
		c0.5,0.6,0.9,1.1,1.1,1.6c0.2,0.4,0.1,0.7-0.1,1.1c-0.1,0.2-0.3,0.3-0.5,0.4c-0.2,0.1-0.5,0.1-0.7,0.1c-0.4-0.1-0.7-0.1-1-0.2
		c-0.3-0.1-0.7-0.3-1-0.4c-0.6-0.4-1.2-0.8-1.6-1.5c-0.4-0.6-0.7-1.2-0.8-2c0-0.2-0.2-0.4-0.4-0.6c-0.2-0.1,0.2-1.7-0.1-1.6
		l-5.8,2.9c-0.4,0.1-0.7,0.6-0.5,1c0.5,1.5,1.2,2.8,2.1,3.9c0.9,1.1,2.1,2,3.5,2.8c1.1,0.6,2.2,1.1,3.4,1.4c0.8,0.2,1.7,0.3,2.5,0.3
		c0.3,0,0.7,0,1,0c1.1-0.1,2.2-0.5,3.3-1.1c1-0.6,7.2-3.7,7.9-4.8c0.8-1.2-4.2-0.2-4.2-1.3c0-1-0.3-2-0.8-2.9
		c-0.5-0.9-1.1-1.6-1.8-2.4c-0.6-0.7-1.3-1.3-1.8-1.9c-0.5-0.5-0.9-1.1-1.1-1.6c-0.2-0.3-0.1-0.6,0.1-1c0.1-0.2,0.3-0.4,0.5-0.4
		c0.2-0.1,0.5-0.1,0.7-0.1c0.3,0,0.6,0.1,0.9,0.2c0.3,0.1,0.6,0.2,0.9,0.4c0.5,0.3,0.9,0.6,1.3,1.1c0.4,0.4,0.6,0.9,0.7,1.4
		c0,0.2,0.2,0.4,0.4,0.6c0.2,0.1,0.5,0.2,0.7,0.1l5-1.4c0.2-0.1,5.9-2.8,6-3c0.1-0.2-2.7-8.4-5-2.8C181.1,36.4,180,37.4,179,36.4z"
		/>
	<path class="st7" d="M167.8,48.8c0,0.1-0.1,0.3-0.2,0.4c-0.1,0.2-0.3,0.3-0.5,0.4c-0.2,0.1-0.5,0.1-0.7,0.1c-0.4-0.1-0.7-0.1-1-0.2
		c-0.3-0.1-0.7-0.3-1-0.4c-0.6-0.4-1.2-0.8-1.6-1.5c-0.4-0.6-0.7-1.2-0.8-2c0-0.2-0.2-0.4-0.4-0.6c-0.2-0.1,0.2-1.7-0.1-1.6
		l-5.8,2.9c-0.4,0.1-0.7,0.6-0.5,1c0.5,1.5,1.2,2.8,2.1,3.9c0.9,1.1,2.1,2,3.5,2.8c1.1,0.6,2.2,1.1,3.4,1.4c0.8,0.2,1.7,0.3,2.5,0.3
		c0.3,0,0.7,0,1,0c1.1-0.1,2.2-0.5,3.3-1.1c0.3-0.2,2.9-1.5,3.8-2C173,51.4,169.4,50.6,167.8,48.8z"/>
	<path class="st7" d="M169.9,38.6c0.2-0.1,0.5-0.1,0.7-0.1c0,0,0,0,0.1,0c0-0.5,0.2-0.9,0.8-1.2c1.8-0.9,3.6-1.8,5.4-2.7
		c-0.3-0.2-0.7-0.5-1.1-0.7c-0.2-0.1-0.4-0.2-0.6-0.3c-1.2,0.7-2.3,1.4-3.5,2.1c-3,1.7-6.4,2.7-9.4,4.4c0.1,0.7,0.4,1.4,0.8,2.1
		c0.5,0.8,1.1,1.6,1.8,2.4c0.7,0.7,1.3,1.3,1.8,2c0.2,0.3,0.5,0.6,0.6,0.8c1.4,1.2,3,2,4.7,2.6c0.8-0.3,1.6-0.7,2.4-1.1
		c0.1-0.1,0.2-0.1,0.4-0.2c0,0,0,0,0,0c0-1-0.3-2-0.8-2.9c-0.5-0.9-1.1-1.6-1.8-2.4c-0.6-0.7-1.3-1.3-1.8-1.9
		c-0.5-0.5-0.9-1.1-1.1-1.6c-0.2-0.3-0.1-0.6,0.1-1C169.6,38.8,169.7,38.7,169.9,38.6z"/>
	<path class="st7" d="M175.7,41.4c0.1,0.1,0.2,0.3,0.4,0.4c1.9-0.9,3.8-1.9,5.7-2.8c-0.2-0.2-0.4-0.4-0.6-0.6
		c-0.5-0.5-0.9-1.1-1.1-1.6c-0.2-0.3-0.1-0.6,0.1-1c0.1-0.2,0.3-0.4,0.5-0.4c0.1-0.1,0.3-0.1,0.5-0.1c-0.1-0.1-0.2-0.1-0.2-0.2
		c-0.5-0.3-0.9-0.8-1.2-1.3c-2.2,1-4.6,1.9-6.7,3c0.1,0.7,0.4,1.4,0.8,2.1C174.4,39.9,175,40.7,175.7,41.4z"/>
	<path class="st8" d="M184.7,33.6c-0.9-1-2-1.8-3.2-2.5c-1-0.6-2.2-1.1-3.3-1.3c-1.2-0.3-2.4-0.4-3.5-0.3c-1.1,0.1-2.2,0.5-3.2,1.1
		c-1,0.6-1.9,1.4-2.6,2.6c-0.7,1.2-1.1,2.3-1,3.4c0.1,1,0.4,2,0.9,2.9c0.5,0.8,1.1,1.6,1.8,2.4c0.7,0.7,1.3,1.3,1.8,2
		c0.5,0.6,0.9,1.1,1.1,1.6c0.2,0.4,0.1,0.7-0.1,1.1c-0.1,0.2-0.3,0.3-0.5,0.4c-0.2,0.1-0.5,0.1-0.7,0.1c-0.4-0.1-0.7-0.1-1-0.2
		c-0.3-0.1-0.7-0.3-1-0.4c-0.6-0.4-1.2-0.8-1.6-1.5c-0.4-0.6-0.7-1.2-0.8-2c0-0.2-0.2-0.4-0.4-0.6c-0.2-0.1-0.5-0.2-0.7-0.1
		l-5.2,1.5c-0.4,0.1-0.7,0.6-0.5,1c0.5,1.5,1.2,2.8,2.1,3.9c0.9,1.1,2.1,2,3.5,2.8c1.1,0.6,2.2,1.1,3.4,1.4c0.8,0.2,1.7,0.3,2.5,0.3
		c0.3,0,0.7,0,1,0c1.1-0.1,2.2-0.5,3.3-1.1c1-0.6,1.9-1.5,2.6-2.6c0.8-1.2,1.1-2.4,1.1-3.5c0-1-0.3-2-0.8-2.9
		c-0.5-0.9-1.1-1.6-1.8-2.4c-0.6-0.7-1.3-1.3-1.8-1.9c-0.5-0.5-0.9-1.1-1.1-1.6c-0.2-0.3-0.1-0.6,0.1-1c0.1-0.2,0.3-0.4,0.5-0.4
		c0.2-0.1,0.5-0.1,0.7-0.1c0.3,0,0.6,0.1,0.9,0.2c0.3,0.1,0.6,0.2,0.9,0.4c0.5,0.3,0.9,0.6,1.3,1.1c0.4,0.4,0.7,1.1,0.9,1.6
		c0.2,0.4,0.6,0.5,0.9,0.5l5-1.4c0.2-0.1,0.4-0.2,0.5-0.4c0.1-0.2,0.1-0.4,0.1-0.6C186.4,35.8,185.7,34.6,184.7,33.6z"/>
	<path class="st9" d="M168.7,35.3c-0.1,0.4-0.1,0.8-0.1,1.2c0.1,0.9,0.3,1.8,0.8,2.6c0.5,0.8,1,1.5,1.7,2.3c0.8,0.8,1.3,1.4,1.8,2
		c0.5,0.6,0.9,1.2,1.2,1.8c0.2,0.6,0.2,1.1-0.1,1.7c-0.2,0.3-0.5,0.6-0.8,0.7c-0.3,0.1-0.7,0.2-1,0.2l-0.1,0c-0.1,0-0.2,0-0.3,0
		c-0.3,0-0.5-0.1-0.8-0.2c-0.4-0.1-0.8-0.3-1.1-0.5c-0.7-0.4-1.3-1-1.8-1.7c-0.5-0.7-0.8-1.4-0.9-2.3c0,0,0-0.1,0-0.1l0,0l-0.1,0
		l-5.2,1.5c-0.1,0-0.1,0.1-0.1,0.1c0.4,1.4,1.1,2.6,2,3.6c0.9,1,2,1.9,3.3,2.7c1,0.6,2.1,1,3.2,1.3c1.1,0.3,2.3,0.4,3.2,0.3
		c1-0.1,2-0.4,3-1c0.9-0.6,1.7-1.4,2.4-2.4c0.4-0.6,0.7-1.3,0.8-1.9c0,0,0,0,0,0C177.6,41.6,169,35.5,168.7,35.3z"/>
	<path class="st11" d="M141.1,37.1c0,0,1.9-2.4,1.9-2.4c0.1,0,0.1,0,0.2,0c2.2-0.4,4.4-1,6.5-1.7c0-0.5-0.1-1-0.2-1.5
		c-0.3-1.5-1-2.9-1.9-4.1c-0.2-0.2-0.4-0.5-0.6-0.7c-1.7,1.2-3.3,2.4-4.8,3.7c0,0,0,0.1,0,0.2C143.6,33.1,141.4,36.2,141.1,37.1z"/>
	<path class="st1" d="M150.9,16.6l-29.4-5.4c-3.5-0.6-6.8,1.5-7.4,4.8l-5.2,28.2c-0.6,3.3,1.7,6.5,5.2,7.1l25,4.6
		c5.5,0.9,9.9-1.8,9.9-1.8l7.1-30.4C156.7,20.4,154.3,17.2,150.9,16.6z"/>
	<path class="st2" d="M151.4,15.9l-29.4-5.4c-3.5-0.6-6.8,1.5-7.4,4.8l-5.2,27.8c-0.6,3.3,1.7,6.5,5.2,7.1l25,4.6
		c5.5,0.9,9.9-1.4,9.9-1.4l7.1-30.4C157.2,19.7,154.9,16.5,151.4,15.9z"/>
	<path class="st4" d="M153.1,14.5l-29.4-5.4c-3.5-0.6-6.8,1.5-7.4,4.8l-5.2,27.8c-0.6,3.3,1.7,6.5,5.2,7.1l29.4,5.4
		c3.5,0.6,6.8-1.5,7.4-4.8l5.2-27.8C158.9,18.3,156.6,15.1,153.1,14.5z"/>
	<path class="st1" d="M115.4,24.2l-3.3,17.7c-0.3,1.3,0.1,2.7,0.9,3.9c0.8,1.1,2.1,1.9,3.5,2.2l29.4,5.4c1.4,0.3,2.9,0,4.1-0.8
		c1.2-0.8,2-1.9,2.2-3.3l2.6-13.6C139.4,24.1,115.4,24.2,115.4,24.2z"/>
	<path class="st2" d="M147.3,32.9c-0.5-1.7-1.3-3.3-2.5-4.6c-1.2-1.3-2.6-2.3-4.3-3.1c-1.6-0.8-3.4-1.4-5.3-1.7l-7.3-1.5
		c-0.5-0.1-0.9,0-1.3,0.2c-0.4,0.2-0.7,0.6-0.7,1l-4.5,21c-0.2,0.9,0.4,1.8,1.4,2l8,1.7c1.6,0.3,3.3,0.5,4.9,0.4c0.2,0,0.4,0,0.5,0
		c1.8-0.2,3.5-0.6,5-1.4c1.5-0.7,2.9-1.8,4-3.1c1.1-1.4,1.9-3,2.3-5C147.7,36.6,147.7,34.7,147.3,32.9z M138.8,36.8
		c-0.2,0.9-0.5,1.7-0.9,2.2c-0.4,0.5-0.9,0.9-1.5,1.1c-0.6,0.3-1.3,0.4-2.1,0.4c-0.9,0-1.8-0.1-2.8-0.3l-0.8-0.2l2-9.2l1.2,0.2
		c0.9,0.2,1.7,0.5,2.4,0.8c0.7,0.3,1.2,0.8,1.7,1.2c0.4,0.4,0.7,1,0.9,1.6C139,35.4,139,36,138.8,36.8z"/>
	<path class="st3" d="M153.1,14.5l-29.4-5.4c-2-0.4-3.9,0.2-5.3,1.3c1.2-0.6,2.6-0.8,4-0.5l29.4,5.4c3.5,0.6,5.8,3.8,5.2,7.1
		l-5.2,27.8c-0.3,1.4-1,2.6-2.1,3.5c1.7-0.8,3-2.4,3.4-4.3l5.2-27.8C158.9,18.3,156.6,15.1,153.1,14.5z"/>
	<path class="st5" d="M153.7,25.9c-0.5-1.8-1.4-3.4-2.6-4.7c-1.2-1.3-2.7-2.4-4.5-3.2c-1.7-0.8-7-2.1-7-2.1l0,0l-5.8-1.2
		c-0.4-0.1-0.9-0.1-1.3,0.1c-0.6,0.2-1,0.7-2.5,2.6c-0.2,0.3-0.6,0.7-0.7,0.9c-0.6,0.5-0.8,1.4-0.8,1.4l-4.5,20.8c0,0,0,0.1,0,0.1
		c0,0-0.6,1.8,1.8,2.4l8,1.7c1.7,0.3,3.4,0.5,5,0.4c0.2,0,0.4,0,0.6,0c1.9-0.2,3.6-0.6,5.2-1.4c1.6-0.8,3-1.9,4.2-3.3
		c0.2-0.2,2.1-2.6,2.6-3.2c1.2-1.4,2-3.1,2.4-5.2C154.2,29.8,154.2,27.7,153.7,25.9z M139.4,28.7c0.5,0.3,1,0.6,1.3,0.9l-0.1,0.1
		l0.7,0.7c0.1,0.2,0.2,0.5,0.3,0.7c0.2,0.6,0.1,1.3-0.1,2.1c-0.4,0.1-0.8,0.2-1.3,0.2c-0.2,0-0.3,0-0.5,0c-0.2,0-0.3,0-0.5,0
		c-0.6,0-1.1-0.1-1.7-0.2l-0.4-0.1l1-4.7C138.7,28.3,139.1,28.5,139.4,28.7z"/>
	<path class="st6" d="M149.6,29.2c-0.4-1.6-1.2-3-2.3-4.2c-1.1-1.2-2.4-2.1-4-2.9c-1.6-0.7-3.3-1.3-5.1-1.7l-5.3-4.6
		c-0.2,0-2.4,3.1-2.6,3.2c-0.2,0.1-0.4,0.5-0.4,0.7l-4.5,20.8c-0.1,0.4,0.2,0.8,0.6,0.9l8,1.7c1.5,0.3,3.1,0.4,4.6,0.3
		c0.2,0,0.3,0,0.5,0c1.7-0.2,3.3-0.6,4.7-1.3s2.7-1.7,3.7-2.9c1-1.2,1.8-2.8,2.1-4.6C150,32.6,150,30.8,149.6,29.2z M137.3,26.3
		c0.9,0.2,1.8,0.5,2.6,0.9c0.8,0.4,1.4,0.9,2,1.4c0.5,0.5,0.9,1.2,1.1,1.9c0.2,0.7,0.2,1.6,0,2.5c-0.2,1.1-0.6,1.9-1.1,2.6
		c-0.5,0.6-1.1,1.1-1.8,1.4c-0.7,0.3-1.5,0.5-2.4,0.5c-0.9,0-2-0.1-3-0.3l-1.8-0.4l2.4-11L137.3,26.3z"/>
	<path class="st7" d="M149.1,35.5c-2.2-0.2-4.5-0.3-6.7-0.7c-0.2,0.3-0.3,0.6-0.5,0.8c-0.5,0.6-1.1,1.1-1.8,1.4
		c-0.7,0.3-1.5,0.5-2.4,0.5c-0.9,0-2-0.1-3-0.3l-0.7-0.1c-1.2,0.6-0.6-4.1-1.9-3.6c-1.9,0.9-5.1,6.8-6.6,7.6
		c0.1,0.2,0.3,0.3,0.5,0.4l8,1.7c1.5,0.3,3.1,0.4,4.6,0.3c0.2,0,0.3,0,0.5,0c1.7-0.2,3.3-0.6,4.7-1.3c1.4-0.7,2.7-1.7,3.7-2.9
		c0.9-1,1.5-2.3,1.9-3.8C149.3,35.5,149.2,35.5,149.1,35.5z"/>
	<path class="st7" d="M137.6,20c-0.2,1.1-0.4,2.2-0.5,3.3c-0.1,0.9-0.3,1.9-0.4,2.8l0.7,0.1c0.9,0.2,1.8,0.5,2.6,0.9
		c0.8,0.4,1.4,0.9,2,1.4c0.1,0.1,0.1,0.1,0.2,0.2c1.5-1.5,3-3,4.6-4.4c-1-0.9-2.1-1.7-3.4-2.3c-1.6-0.7-3.3-1.3-5.1-1.7L137.6,20z"
		/>
	<path class="st8" d="M152.2,26c-0.4-1.6-1.2-3-2.3-4.2c-1.1-1.2-2.4-2.1-4-2.9c-1.6-0.7-3.3-1.3-5.1-1.7l-7.3-1.5
		c-0.2,0-0.4,0-0.6,0.1s-0.3,0.3-0.3,0.5l-4.5,21c-0.1,0.4,0.2,0.8,0.6,0.9l8,1.7c1.5,0.3,3.1,0.4,4.6,0.3c0.2,0,0.3,0,0.5,0
		c1.7-0.2,3.3-0.6,4.7-1.3c1.4-0.7,2.7-1.7,3.7-2.9c1-1.2,1.8-2.8,2.1-4.6C152.6,29.4,152.6,27.6,152.2,26z M139.9,23.1
		c0.9,0.2,1.8,0.5,2.6,0.9c0.8,0.4,1.4,0.9,2,1.4c0.5,0.5,0.9,1.2,1.1,1.9c0.2,0.7,0.2,1.6,0,2.5c-0.2,1.1-0.6,1.9-1.1,2.6
		c-0.5,0.6-1.1,1.1-1.8,1.4c-0.7,0.3-1.5,0.5-2.4,0.5c-0.9,0-2-0.1-3-0.3l-1.8-0.4l2.4-11L139.9,23.1z"/>
	<path class="st9" d="M128.5,37.5c0,0.1,0,0.2,0.1,0.2l8,1.7c1.5,0.3,3,0.4,4.4,0.3l0.2,0c0.1,0,0.2,0,0.3,0
		c1.6-0.1,3.1-0.5,4.5-1.2c1.3-0.6,2.5-1.6,3.5-2.7c0.6-0.8,1.2-1.7,1.6-2.8c-1.4-1.5-3-3.2-4.8-4.7c0.1,0.6,0,1.2-0.1,1.8
		c-0.3,1.2-0.7,2.1-1.2,2.8c-0.6,0.7-1.2,1.2-2,1.6c-0.8,0.4-1.7,0.5-2.7,0.5c-1,0-2-0.1-3.2-0.3l-2.4-0.5l2.4-11.2
		c-1.8-0.8-3.5-1.3-5.1-1.6L128.5,37.5z"/>
	<path class="st1" d="M126.2,10.7l-5.5,24.3l-8.4-0.3l6.8-23c0.4-1.3,1.3-2,2.7-1.8L126.2,10.7z"/>
	<path class="st1" d="M115.6,9.8L85.7,9.2c-3.5-0.1-6.4,2.6-6.4,5.9l-0.2,28.3c0,3.3,2.8,6.1,6.3,6.2l29.8,0.6
		c3.5,0.1,6.4-2.6,6.4-5.9l0.2-28.3C121.9,12.7,119.1,9.9,115.6,9.8z"/>
	<path class="st2" d="M115.7,8.6L85.8,8c-3.5-0.1-6.4,2.6-6.4,5.9l-0.2,28.3c0,3.3,2.8,6.1,6.3,6.2l29.8,0.6
		c3.5,0.1,6.4-2.6,6.4-5.9l0.2-28.3C122,11.5,119.2,8.7,115.7,8.6z"/>
	<path class="st3" d="M115.6,4.8L85.8,4.2c-3.5-0.1-6.4,2.6-6.4,6l-0.2,28.5c0,3.3,1.6,7.1,6.5,7.1l29.4,0.6
		c3.5,0.1,6.6-2.2,6.7-6.8l0.2-28.5C122,7.7,119.1,4.9,115.6,4.8z"/>
	<path class="st4" d="M115.6,6L85.8,5.4c-3.5-0.1-5.4,2.6-5.4,5.9l-0.2,28.3c0,3.3,1.8,6.1,5.3,6.2l28.8,0.6
		c3.5,0.1,6.4-2.6,6.4-5.9l0.2-28.3C121,8.8,119.1,6,115.6,6z"/>
	<path class="st1" d="M106.2,20.6c-5.1-0.6-10.3-0.9-15.4-0.7c-3.3,0.1-5.6,0.5-8.8,0.7c-0.2,0.1-1.5,0.2-1.7,0.2l-0.2,18.7
		c0,1.4,0.5,2.7,1.6,3.7c1,1,2.4,1.6,3.8,1.6l29.8,0.6c1.4,0.1,2.8-0.5,3.8-1.4c1-1,1.6-2.2,1.6-3.6l0.1-17.4
		C115.9,22.1,111,21.2,106.2,20.6z"/>
	<path class="st2" d="M112.1,39l-4.5-7.7c1-0.5,1.8-1.1,2.5-1.9l0,0c1.2-1.4,1.8-3.1,1.9-5.1c0.1-1.6-0.2-3-0.8-4.2
		c-0.6-1.2-1.4-2.2-2.5-2.9c-1-0.7-2.2-1.2-3.5-1.5c-1.2-0.3-2.5-0.5-3.8-0.5l-9.2-0.4c-0.5,0-1,0.2-1.4,0.5
		c-0.4,0.3-0.6,0.8-0.6,1.3l-0.7,22.5c0,0.5,0.2,1,0.5,1.4c0.4,0.4,0.9,0.6,1.4,0.6l5.2,0.2l0,0l0,0c1.1,0,2-0.8,2-1.8l0.2-5.8
		l3.5,6.9c0.3,0.6,1,1.1,1.8,1.1l6.2,0.3l0.1,0l0.1,0c0.7,0,1.3-0.4,1.6-0.9C112.5,40.4,112.5,39.7,112.1,39z M99.1,23.1l1.4,0.1
		c0.4,0,0.8,0.1,1.2,0.1c0.3,0,0.5,0.1,0.7,0.2c0.1,0,0.1,0.1,0.1,0.1c0,0,0,0.1,0,0.3c0,0.2,0,0.2,0,0.3c-0.1,0.1-0.1,0.1-0.2,0.1
		c-0.2,0.1-0.5,0.1-0.8,0.1l-0.1,0c-0.3,0-0.7,0-1.1,0l-1.3-0.1L99.1,23.1z"/>
	<path class="st5" d="M112.6,37.3c0.3-1.5,0.2-5.2,0.1-5.4l-2.9-5c0.2-0.2,0.4-0.4,0.6-0.6l0,0c1.2-1.4,2-2.5,1.9-6.2
		c0-0.5,0.1-4.1,0.1-4.1c0-0.9-0.3-2.2-0.7-3c-0.6-1.2-1.5-2.2-2.6-3c-1-0.7-2.2-1.2-3.6-1.6c-1.2-0.3-2.6-0.5-3.9-0.5l-9.5-0.4
		c-0.6,0-1.1,0.2-1.6,0.6c-0.4,0.4-0.7,0.9-0.7,1.4c-0.2,0.8-0.1,3.2-0.2,3.6L89,35.6c0,0.6,0.2,1.1,0.6,1.6c0.4,0.4,1,0.7,1.5,0.7
		l5.5,0.4l0.1,0l0,0c1.2,0,2.2-0.9,2.2-2l0.2-4.8l2.3,4.5l0,0l0.7,1.5c0.1,0.2,0.2,0.4,0.4,0.6l0.5,0.3l0.1,0.1
		c0.3,0.2,0.7,0.3,1,0.3l6.2,0.3l0.1,0l0.1,0C110.6,38.8,112.4,38.8,112.6,37.3z"/>
	<path class="st6" d="M109.2,25.2c1-1.2,1.6-2.7,1.6-4.5c0-1.5,0.2-5.1,0.2-5.1c-0.5-1-2.1-0.4-3-1c-0.9-0.6-1.9-1.1-3.1-1.4
		c-1.1-0.3-2.3-0.5-3.6-0.5l-9.2-0.4c-0.2,0-0.4,0.1-0.6,0.2c-0.2,0.1-0.5,0.2-0.5,0.4l-0.7,22.5c0,0.2,0.1,0.4,0.2,0.6
		c0.2,0.2,0.4,0.2,0.6,0.3l5.5,0.4c0.5,0,0.8-0.3,0.9-0.8l0.3-8.2l1.2,0.1l4.4,8.8c0.1,0.3,0.4,0.4,0.7,0.5l6.3,0.3c0,0,0,0,0.1,0
		c0.3,0,0.5-0.1,0.7-0.4l0.3-4.2l-5.4-5.4C107.3,26.8,108.4,26.1,109.2,25.2z M98,18.3l2.6,0.1c0.4,0,0.9,0.1,1.3,0.2
		c0.4,0.1,0.7,0.2,1,0.3c0.2,0.1,0.4,0.3,0.6,0.5c0.1,0.2,0.2,0.5,0.2,0.9c0,0.4-0.1,0.7-0.3,0.9c-0.2,0.2-0.4,0.4-0.7,0.5
		c-0.3,0.1-0.7,0.2-1.1,0.2c-0.5,0.1-1,0-1.5,0l-2.2-0.1L98,18.3z"/>
	<path class="st7" d="M99.1,23.6l-8.4,0l-0.4,11.7c0,0.2,0.1,0.4,0.2,0.6c0.2,0.2,0.4,0.2,0.6,0.3l5.5,0.4c0.5,0,0.8-0.3,0.9-0.8
		l0.3-8.2l1.2,0.1l0.2,0.3c0-0.2-0.1-0.4-0.1-0.6C98.9,26.2,99.1,24.9,99.1,23.6z"/>
	<path class="st7" d="M104.9,28.3c-0.2,2.9-0.6,5.7-1.1,8.5c0.1,0,0.2,0.1,0.3,0.1l6.3,0.3c0,0,0,0,0.1,0c0.3,0,0.5-0.1,0.7-0.4
		l0.3-4.2l-3.4-3.4C107,28.9,105.9,28.5,104.9,28.3z"/>
	<polygon class="st7" points="99.9,19.6 95.5,19.6 95.5,13.4 102.9,13.4 	"/>
	<g>
		<path class="st8" d="M109.5,21.5c1-1.2,1.6-2.7,1.6-4.5c0-1.5-0.2-2.7-0.7-3.7c-0.5-1-1.2-1.9-2.1-2.5c-0.9-0.6-1.9-1.1-3.1-1.4
			C104,9.2,102.8,9,101.5,9l-9-0.4c-0.2,0-0.4,0.1-0.6,0.2c-0.2,0.1-0.3,0.3-0.3,0.6L91,31.8c0,0.2,0.1,0.4,0.2,0.6s0.4,0.2,0.6,0.3
			l5.1,0.3c0.5,0,0.8-0.3,0.9-0.8l0.3-8.2l1.2,0.1l4.4,8.8c0.1,0.3,0.4,0.4,0.7,0.5l6.3,0.3c0,0,0,0,0.1,0c0.3,0,0.5-0.1,0.7-0.4
			c0.2-0.2,0.2-0.5,0-0.8l-5.2-8.8C107.5,23.1,108.6,22.4,109.5,21.5z M98.3,14.6l2.6,0.1c0.4,0,0.9,0.1,1.3,0.2
			c0.4,0.1,0.7,0.2,1,0.3c0.2,0.1,0.4,0.3,0.6,0.5c0.1,0.2,0.2,0.5,0.2,0.9c0,0.4-0.1,0.7-0.3,0.9c-0.2,0.2-0.4,0.4-0.7,0.5
			c-0.3,0.1-0.7,0.2-1.1,0.2c-0.5,0.1-1,0-1.5,0l-2.2-0.1L98.3,14.6z"/>
	</g>
	<path class="st9" d="M105.5,23.8l-0.4-0.7l0.8-0.2c1.2-0.3,2.2-0.9,2.9-1.8c0.8-1,1.3-2.2,1.4-3.6c-1.9-0.3-3.8-0.7-5.7-0.9
		c0,0,0,0.1,0,0.1c0,0.6-0.2,1-0.4,1.3c-0.3,0.3-0.6,0.5-1,0.7c-0.4,0.1-0.8,0.2-1.3,0.2c-0.2,0-0.4,0-0.6,0c-0.2,0-0.5,0-0.7,0
		l-0.2,0L98,18.8l-0.7,0l0-0.7l0.1-2.1c-1.8-0.1-3.7,0-5.5,0.1l-0.5,15.8c0,0,0,0.1,0,0.1c0,0,0.1,0,0.1,0l5.2,0.2
		c0.2,0,0.2-0.1,0.2-0.1l0.3-8.2l0-0.7l0.7,0l1.2,0.1l0.4,0l0.2,0.4l4.4,8.8c0,0,0.1,0.1,0.1,0.1l6.2,0.3l0,0l0,0c0,0,0.1,0,0.1-0.1
		c0-0.1,0-0.1,0-0.1L105.5,23.8z"/>
	<g>
		<g>
			<path class="st12" d="M19.4,43.4l0.9,1.1L18.6,33c0-0.3,0.1-0.7,0.6-1l3.3-1.5c0,0,0,0,0,0l-4,1.8c-0.6,0.2-0.7,0.7-0.6,1
				L19.4,43.4z"/>
			<path class="st12" d="M31.1,38.6l1,1.1L29.5,28c-0.1-0.3,0.1-0.6,0.4-0.8l3.6-1.6c0,0-0.1,0-0.1,0l-4.2,1.9
				c-0.3,0.1-0.5,0.4-0.4,0.8L31.1,38.6z"/>
			<path class="st12" d="M21.8,53.6L7.4,38.3c-0.2-0.2-0.2-0.4-0.2-0.6c0-0.2,0.2-0.4,0.4-0.5l4-1.8c-0.1,0-0.1,0-0.2,0.1l-4.5,2
				c-0.2,0.1-0.4,0.3-0.4,0.5c0,0.2,0,0.4,0.2,0.6l14.5,15.3c0.4,0.5,1,0.3,1.2,0.2c0.1,0,0.1,0,0.2-0.1l0.4-0.2
				C22.7,53.9,22.2,54,21.8,53.6z"/>
			<path class="st12" d="M33.8,48.5L24,38.3l0.7,1.4l8.5,9.1c0.2,0.2,0.6,0.3,0.9,0.2l0.7-0.3C34.4,48.8,34,48.7,33.8,48.5z"/>
		</g>
		<g>
			<path class="st12" d="M67.3,31.3c-0.4,0.6-1,1.2-1.6,1.7c-0.6,0.4-1.4,0.7-2.2,0.9c0.3,0,0.5-0.1,0.8-0.1c1-0.2,1.8-0.5,2.5-1
				c0.7-0.5,1.2-1,1.6-1.7c0.4-0.7,0.7-1.4,0.8-2.2c0.1-0.8,0.1-1.7-0.2-2.6c-0.2-0.9-0.6-1.7-1-2.4c-0.5-0.7-1-1.3-1.7-1.7
				c-0.7-0.4-1.4-0.7-2.3-0.9c-0.5-0.1-1.1-0.1-1.7-0.1c-0.3,0-0.7,0.1-1,0.1c-0.1,0-0.2,0-0.3,0.1c0.1,0,0.1,0,0.2,0
				c0.6,0,1.1,0,1.7,0.1c0.8,0.2,1.6,0.4,2.3,0.9c0.7,0.4,1.2,1,1.7,1.7c0.5,0.7,0.8,1.5,1,2.4c0.2,0.9,0.3,1.8,0.2,2.6
				C67.9,29.9,67.7,30.6,67.3,31.3z"/>
			<path class="st12" d="M63.5,40c-1.1,0.1-2.2,0.1-3.2-0.1c-1.7-0.2-3.3-0.8-4.7-1.6c-1.4-0.8-2.6-1.9-3.6-3.3
				c-1-1.4-1.7-3-2.2-4.8c-0.4-1.8-0.5-3.6-0.2-5.2c0.3-1.6,0.9-3.1,1.8-4.4c0.9-1.3,2.1-2.4,3.6-3.3c1.4-0.9,3.1-1.5,4.9-1.9
				c-0.3,0-0.7,0.1-1,0.2c-1.9,0.4-3.5,1-5,1.9c-1.4,0.9-2.6,2-3.6,3.3c-0.9,1.3-1.5,2.8-1.8,4.4c-0.3,1.6-0.2,3.4,0.2,5.2
				c0.4,1.8,1.2,3.4,2.2,4.8c1,1.4,2.2,2.5,3.6,3.3c1.4,0.8,3,1.4,4.7,1.6c1,0.1,2.1,0.2,3.2,0.1c0.7-0.1,1.4-0.2,2.2-0.3
				c0,0,0,0,0,0C64.2,39.9,63.8,39.9,63.5,40z"/>
		</g>
		<g>
			<path class="st12" d="M168.2,44.1c0.1,0.7,0.3,1.3,0.8,2c0.4,0.6,0.9,1.1,1.6,1.5c0.3,0.2,0.6,0.3,1,0.4s0.6,0.1,1,0.2
				c0.2,0,0.5,0,0.7-0.1c0.2-0.1,0.3-0.2,0.5-0.4c0.2-0.4,0.3-0.7,0.1-1.1c-0.1-0.1-0.1-0.3-0.2-0.4c0,0.1-0.1,0.2-0.2,0.4
				c-0.1,0.2-0.3,0.3-0.5,0.4c-0.2,0.1-0.5,0.1-0.7,0.1c-0.4-0.1-0.7-0.1-1-0.2c-0.3-0.1-0.7-0.3-1-0.4c-0.6-0.4-1.2-0.8-1.6-1.5
				C168.4,44.6,168.3,44.3,168.2,44.1C168.1,44.1,168.2,44.1,168.2,44.1z"/>
			<path class="st12" d="M168.3,38.2c0-0.2-0.1-0.4-0.1-0.6c-0.1-1.1,0.3-2.2,1-3.4c0.7-1.1,1.6-2,2.6-2.6c1-0.6,2.1-0.9,3.2-1.1
				c1.1-0.1,2.3,0,3.5,0.3c1.2,0.3,2.3,0.7,3.3,1.3c1.2,0.7,2.3,1.5,3.2,2.5c0.8,0.8,1.4,1.7,1.8,2.8c0-0.1,0-0.3,0-0.4
				c-0.4-1.3-1.1-2.5-2.1-3.4c-0.9-1-2-1.8-3.2-2.5c-1-0.6-2.2-1.1-3.3-1.3c-1.2-0.3-2.4-0.4-3.5-0.3c-1.1,0.1-2.2,0.5-3.2,1.1
				c-1,0.6-1.9,1.4-2.6,2.6c-0.7,1.2-1.1,2.3-1,3.4C168,37.1,168.1,37.7,168.3,38.2z"/>
			<path class="st12" d="M161.9,44.9l5.2-1.5c0.2-0.1,0.5,0,0.7,0.1c0.1,0.1,0.2,0.2,0.3,0.3c-0.1-0.3-0.2-0.6-0.2-0.9
				c0-0.2-0.2-0.4-0.4-0.6c-0.2-0.1-0.5-0.2-0.7-0.1l-5.2,1.5c-0.4,0.1-0.7,0.6-0.5,1c0.1,0.2,0.2,0.5,0.3,0.7
				C161.4,45.2,161.6,45,161.9,44.9z"/>
			<path class="st12" d="M177.9,40.7c-0.6-0.7-1.3-1.3-1.8-1.9c-0.4-0.4-0.6-0.8-0.9-1.1c-0.1,0.2-0.1,0.5,0,0.7
				c0.2,0.5,0.6,1,1.1,1.6c0.6,0.6,1.2,1.2,1.8,1.9c0.7,0.7,1.3,1.5,1.8,2.4c0.2,0.4,0.4,0.7,0.5,1.1c-0.1-0.8-0.4-1.5-0.8-2.2
				C179.3,42.2,178.6,41.4,177.9,40.7z"/>
		</g>
		<g>
			<path class="st12" d="M144.5,32.4c-0.5,0.6-1.1,1.1-1.8,1.4c-0.7,0.3-1.5,0.5-2.4,0.5c-0.4,0-0.8,0-1.1,0
				c0.8,0.1,1.5,0.2,2.2,0.2c0.9,0,1.7-0.2,2.4-0.5c0.7-0.3,1.3-0.8,1.8-1.4c0.5-0.6,0.9-1.5,1.1-2.6c0.2-0.9,0.2-1.7,0-2.5
				c-0.2-0.7-0.6-1.4-1.1-1.9c-0.5-0.6-1.2-1-2-1.4c-0.8-0.4-1.7-0.7-2.6-0.9l-2.1-0.4l0,0.1l1,0.2c0.9,0.2,1.8,0.5,2.6,0.9
				c0.8,0.4,1.4,0.9,2,1.4c0.5,0.5,0.9,1.2,1.1,1.9c0.2,0.7,0.2,1.6,0,2.5C145.4,30.9,145,31.8,144.5,32.4z"/>
		</g>
		<g>
			<path class="st12" d="M104.8,33.2c-0.3,0-0.6-0.2-0.7-0.5L99.7,24l-1.2-0.1l0,0l0.4,0l4.4,8.8c0.1,0.3,0.4,0.4,0.7,0.5l6.3,0.3
				c0,0,0,0,0.1,0c0.1,0,0.1,0,0.2,0L104.8,33.2z"/>
			<path class="st12" d="M102.6,18.1c-0.3,0.1-0.7,0.2-1.1,0.2c-0.1,0-0.1,0-0.2,0c0.3,0,0.7,0,1.1,0c0.4,0,0.8-0.1,1.1-0.2
				c0.3-0.1,0.5-0.2,0.7-0.5c0.2-0.2,0.3-0.5,0.3-0.9c0-0.4-0.1-0.7-0.2-0.9c-0.2-0.2-0.4-0.4-0.6-0.5c-0.3-0.2-0.6-0.3-1-0.3
				c-0.5-0.1-0.9-0.1-1.3-0.2l-2.6-0.1l0,0l1.7,0.1c0.4,0,0.9,0.1,1.3,0.2c0.4,0.1,0.7,0.2,1,0.3c0.2,0.1,0.4,0.3,0.6,0.5
				c0.1,0.2,0.2,0.5,0.2,0.9c0,0.4-0.1,0.7-0.3,0.9C103.1,17.8,102.9,18,102.6,18.1z"/>
			<path class="st12" d="M92.1,32.6c-0.2,0-0.4-0.1-0.6-0.3c-0.2-0.2-0.2-0.4-0.2-0.6L92,9.3c0-0.2,0.1-0.4,0.3-0.6
				c0.1-0.1,0.3-0.2,0.4-0.2l-0.7,0c-0.2,0-0.4,0.1-0.6,0.2c-0.2,0.1-0.3,0.3-0.3,0.6l-0.7,22.5c0,0.2,0.1,0.4,0.2,0.6
				c0.2,0.2,0.4,0.2,0.6,0.3l5.2,0.2c0.1,0,0.1,0,0.2,0L92.1,32.6z"/>
		</g>
		<path class="st12" d="M129.1,37.9c0-0.1-0.1-0.3,0-0.4l4.5-21c0-0.2,0.2-0.4,0.3-0.5c0.1,0,0.1-0.1,0.2-0.1l-0.7-0.1
			c-0.2,0-0.4,0-0.6,0.1c-0.2,0.1-0.3,0.3-0.3,0.5l-4.5,21c-0.1,0.4,0.2,0.8,0.6,0.9l0.9,0.2C129.2,38.3,129.1,38.1,129.1,37.9z"/>
	</g>
</g>
<g>
	<path class="st13" d="M170.1,90.2C170.1,90.2,170.1,90.2,170.1,90.2C170.1,90.2,170.1,90.2,170.1,90.2z"/>
	<path class="st15" d="M73.6,87.7l-6.5-20.2l0-0.1l-5.4-3.1l-9.5,3.3l0.3,1l-1.9-0.5l-9.7,3.4l1.1,3.4c-2.1-0.3-4.6-0.3-5.1-0.3
		c-0.1,0-0.1,0-0.1,0c-1.5,0-2.9,0.3-4.4,0.9c-1.5,0.6-2.8,1.4-3.9,2.4c-1.2,1-2.1,2.3-2.7,3.6c-0.7,1.4-1,2.9-1.1,4.5
		c-0.1,1.6,0.2,3.2,0.8,4.8c0.6,1.6,1.4,3.1,2.4,4.2c1.1,1.2,2.3,2.1,3.8,2.8c0.5,0.2,1,0.4,1.6,0.5c1,0.3,2.6,0.5,5.1,0.6l0.2,0
		c0.2,0,0.4,0,0.6,0c0.5,0,0.8,0,1,0c1.5,0,3.1-0.3,4.6-0.9c1.5-0.6,2.9-1.4,4-2.4c0.7-0.6,1.3-1.3,1.8-2l3.2,0.8l8-2.8l-0.5-1.5
		l2,1L73.6,87.7z"/>
	<path class="st16" d="M177.8,80.3C177.8,80.3,177.8,80.3,177.8,80.3l-0.1-0.8l-0.1,0c-0.2-0.6-0.6-1.1-1.2-1.5
		c-0.5-0.3-1-0.6-1.7-0.9c-0.7-0.3-1.4-0.4-2.1-0.4c-1.6-0.1-5.6,0.5-7.6,1.1l-0.1-0.2l-0.1,0.1c-0.2-0.8-0.5-1.6-0.8-2.5l-0.2-0.4
		c-0.2-0.5-0.6-1-1.3-1.4c-0.5-0.3-1.1-0.6-1.7-0.8c-0.6-0.2-1.2-0.3-1.7-0.3c-0.7-0.1-1.6,0.1-4.9,0.9c-0.3,0.1-0.9,0.2-1.2,0.3
		c-0.1,0-0.2,0-0.3,0c-0.1-0.6-0.2-1.2-0.3-1.9c-0.3-1.8-1.4-3.2-3.1-3.7c-0.7-0.2-1.5-0.2-2.2-0.1c-0.7,0.1-1.6,0.4-4,1.4l-0.2,0.1
		c-0.1,0.1-0.2,0.1-0.3,0.1c-0.8,0.3-1.4,0.7-1.9,1.4c0,0-0.1,0.1-0.1,0.1c0.1-0.2,0.1-0.3,0.2-0.5c0.2-0.7,0.3-1.3,0.2-1.9
		c-0.1-1.2-0.6-2-1.1-2.4c-0.4-0.4-0.9-0.7-1.4-0.9c-0.3-0.1-0.6-0.2-1.1-0.3c-3-0.7-6.1-1.4-9.1-2l-0.1,0c-1-0.2-2.3-0.3-5,1.4
		c-0.1,0.1-0.5,0.3-0.9,0.6c-0.5-0.8-1-1.5-1.7-2.1c-0.8-0.7-1.8-1.3-2.8-1.8c-1-0.5-2.1-0.7-3.1-0.8c-1.9-0.1-3.9-0.3-5.8-0.4
		c-0.8-0.1-1.5,0-2.1,0.1c-0.7,0.2-1.3,0.5-1.7,0.9c-0.3-0.3-0.6-0.5-1-0.7c-0.4-0.2-0.8-0.3-1.2-0.4c-0.3-0.1-0.6-0.1-1.2-0.1
		c-5.3,0-8.6,0.1-13.3,0.3c-0.5,0-0.8,0.1-1.2,0.1c-0.4,0.1-0.8,0.2-1.2,0.5c-0.6,0.3-1.3,0.9-1.6,2c0,0.1-0.1,0.3-0.1,0.5l-0.3-0.2
		c-0.7-0.4-1.6-0.7-2.9-0.9c-1.2-0.2-2.6-0.3-4-0.2c-2.9,0.2-5.1,1.1-6.6,2.7c-1.5,1.6-2.3,4.1-1.9,6.3c0,0.3,0,0.5,0.1,0.8
		c0.2,1.4,0.8,2.6,1.6,3.5c0.1,0.1,0.1,0.2,0.2,0.3c0.2,0.2,0.5,0.5,0.7,0.8c-0.8,1-1,1.9-1.1,2.4l0,0.2c-0.4,1.6,0,3.1,1.1,4.1
		c0.2,0.2,0.5,0.5,0.7,0.7l0.2,0.2c0.3,0.3,0.7,0.6,1.3,1l0,0c0.7,0.5,1.5,1,1.7,1.2c0.5,0.3,1.1,0.6,1.7,0.9
		c0.7,0.3,1.6,0.6,2.6,0.7c0.6,0.1,1.2,0.1,1.8,0.1c0.4,0,0.8,0,1.3,0c1-0.1,2-0.3,2.9-0.7c1-0.4,1.9-0.9,2.7-1.5
		c1-0.8,1.7-1.8,2.2-3c0.5-1.2,0.6-2.6,0.4-4.1c0-0.1,0-0.2-0.1-0.4c-0.2-1.3-0.5-3.6-2.2-5.2c-0.1-0.2-0.2-0.3-0.3-0.4
		c-0.3-0.3-0.6-0.6-0.9-0.9c0,0,0-0.1,0.1-0.1c0.1-0.1,0.1-0.2,0.2-0.4c0,0,0,0,0,0c0.4,0.2,0.9,0.3,1.3,0.4c0.3,0,0.6,0,1.1,0
		l0.7,0c0.2,3.3,0.3,6.2,0.5,8.9c0,0.5,0.1,0.9,0.1,1.2c0,0.1,0,0.1,0,0.2l0,0.1l0.1,0.3c0.3,1,1.5,2.5,1.6,2.6
		c0.2,0.3,0.8,1,1.9,1.3c0.5,0.1,1,0.2,1.5,0.2c0.1,0,0.3,0,0.5,0c0.8,0,1.4-0.2,1.9-0.4c0.9-0.3,1.5-1,1.9-1.9
		c0.2-0.5,0.3-0.9,0.3-1.4c0-0.3,0-0.7,0-1.1c-0.2-3.1-0.4-7.7-0.5-10.5c0.4,0,0.8,0,1.3,0c0.3,0,0.5,0,0.7,0
		c-0.4,5.4-0.6,8.6-0.6,9.9c0,0.3,0,0.6,0,0.9c0,0.4,0.1,0.7,0.2,1.2c0.2,0.7,0.5,1.2,1,1.7c0.4,0.3,0.9,0.6,1.4,0.8
		c0.6,0.2,1.6,0.3,2.2,0.3c0.8,0,1.4,0,2-0.2c0.7-0.2,1.5-0.7,2-1.3c0.5-0.6,0.8-1.2,1-1.7c0.1,0.2,0.1,0.4,0.2,0.5
		c0.2,0.4,0.3,0.8,0.4,1c0.2,0.5,0.5,0.9,1,1.3c0.6,0.6,1.4,0.9,2.2,1c0.7,0,1.5-0.1,2.3-0.4c0.2-0.1,0.4-0.2,0.6-0.3l1.5,0.9
		l0.2,0.1l0.1,0c0.3,0.1,0.5,0.2,0.8,0.2c0.6,0.1,1.3,0.2,2,0.4l0.3,0.1c2,0.4,4.2,0.8,6,1.2c0.3,0.1,0.5,0.1,0.7,0.1
		c0.4,0.1,0.8,0.1,1.2,0c0.1,0,0.2,0,0.9-0.2c0,0,0,0,0.1,0.1c0.9,0.9,2,1.4,3.2,1.4l0,0c1.5,0,3.3-0.7,4.2-1.2
		c0.5-0.2,0.8-0.5,1.1-0.8c0.1-0.1,0.2-0.2,0.3-0.4c0.1,0,0.1,0,0.2,0.1l0.2,1.2c0.4,2.8,2.4,3.7,3.6,3.8c0.3,0,0.7,0,1.2-0.1
		c0.2,0.4,0.5,0.7,0.9,1c0.5,0.3,1,0.6,1.7,0.8c0.7,0.2,1.3,0.3,1.9,0.3c0,0,2.9-0.2,4.5-0.6c0.8-0.1,1.5-0.4,2-0.9
		c0.1-0.1,0.1-0.1,0.2-0.2c0.2-0.1,0.3-0.2,0.5-0.4c0.1-0.1,0.2-0.1,0.2-0.2c0.1,0,0.2,0,0.2,0c0,0,0,0,0.1,0
		c-0.1,0.2-0.1,0.4-0.2,0.6c-0.1,0.3-0.2,0.5-0.2,0.7c-0.1,0.3-0.1,0.7-0.2,1.1c0,0.7,0.1,1.3,0.4,1.8c0.2,0.4,0.6,0.8,1,1.1
		c0.4,0.3,0.9,0.6,1.5,0.8c0.3,0.1,0.6,0.2,1.2,0.2c0.1,0,0.1,0,0.2,0c0.8,0,2.2,0,4.8-0.2l0.5,0c0.2,0,0.4,0,0.4,0
		c0.9,0,1.7-0.3,2.3-0.8c0.1,0,0.1-0.1,0.2-0.2c0.2-0.1,0.4-0.3,0.6-0.4c0.4-0.3,0.6-0.7,0.9-1c0.2-0.3,0.3-0.6,0.5-1.1
		c1.6-4,3.2-8,4.9-11.9c0.2-0.5,0.3-0.8,0.4-1c0.1-0.2,0.1-0.5,0.1-0.7l0.1,0L177.8,80.3z M136.9,74.9c0.1,0,0.1,0,0.2-0.1
		c0.1,0,0.1,0,0.2,0c-0.1,0.2-0.3,0.4-0.4,0.5C136.8,75.2,136.9,75.1,136.9,74.9z"/>
	<path class="st17" d="M75.7,81.6c-0.6-0.5-1.2,0.1-1.3-0.3c-0.1-0.5,0.2-1.2,0.8-1.9c0.4-0.4,0.8-0.7,1.2-0.7
		c0.6-0.1,1.3,0.3,2.3,0.9c0.1,0,0.1,0.1,0.2,0.1c0.1,0.1,0.2,0.2,0.4,0.3c0.2,0.1,0.5,0.3,0.9,0.5c0.5,0.2,0.9,0.3,1.3,0.2
		c1.7-0.1,2.4-0.8,2.2-2.1c-0.1-0.4-0.4-0.7-0.9-0.9c-0.5-0.2-1.1-0.4-1.8-0.4c-0.7-0.1-1.5-0.2-2.3-0.4c-0.8-0.2-1.6-0.5-2.4-0.7
		c-1.5-0.5-3.1-1.9-3.7-2.6c-0.6-0.7,0.7-0.5,0.5-1.6c-0.3-1.5,0.1-2.8,1.1-4c1-1.2,2.6-1.9,4.7-2.1c1.1-0.1,2.2,0,3.1,0.2
		c1,0.2,1.6,0.4,2,0.7c0.2,0.1,0.4,0.2,0.6,0.3c0.1,0-0.4-1.3-0.3-1.2c1.1,0.9,1.5,2.2,1.5,2.5c0.1,0.4-0.1,0.8-0.4,1.5
		c-0.5,0.9-1.1,1.3-1.7,1.4c-0.4,0-0.9-0.1-1.5-0.4c-0.1,0-0.2-0.1-0.4-0.2c-0.2-0.1-0.3-0.2-0.5-0.3C81,70,80.8,70,80.5,69.9
		c-0.3-0.1-0.7-0.1-1.1,0c-0.4,0-0.8,0.2-1.2,0.5c-0.4,0.3-0.5,0.7-0.4,1.1c0.1,0.5,0.4,0.9,0.9,1.1c0.5,0.2,1.1,0.4,1.8,0.4
		c0.7,0,1.5,0.1,2.4,0.3c0.9,0.1,1.7,0.3,2.4,0.6c0.7,0.3-0.1-1.6,0.7-1c1.9,1.4,2.2,4.1,2.4,5.2c0.2,1.1,0.1,2-0.2,2.9
		c-0.3,0.9-0.8,1.6-1.5,2.1c-0.7,0.5-1.4,0.9-2.1,1.2c-0.7,0.3-1.5,0.5-2.3,0.5c-0.8,0.1-1.6,0-2.4-0.1c-0.8-0.1-1.4-0.3-2-0.5
		c-0.5-0.2-1-0.5-1.4-0.7c-0.4-0.3-2.2-1.5-2.4-1.7C74,81.7,75.8,81.6,75.7,81.6z"/>
	<path class="st17" d="M89.6,64.7c4.6-0.2,7.5-0.4,12.1-0.4c0.3,0,0.6,0,0.7,0c0.1,0,0.3,0.1,0.5,0.2c0.2,0.1,0.3,0.3,0.4,0.6
		c0.1,0.3,0.3,0.1,0.3,0.5c0,0.4-0.1,1.4-0.2,1.6c-0.1,0.3-0.2,0.4-0.4,0.6c-0.2,0.1-0.4,0.2-0.5,0.2c-0.2,0-0.4,0-0.7,0.1
		c-1.5,0-2.1,0-3.7,0.1c0.1,1.7,0.3,8.6,0.6,12.9c0,0.4,0,0.7,0,0.9c0,0.2-0.1,0.4-0.2,0.7c-0.1,0.3-0.3,0.4-0.6,0.5
		c-0.3,0.1-0.7,0.2-1.2,0.2c-0.5,0-0.9,0-1.2-0.1c-0.3-0.1-0.5-0.3-0.6-0.5c-0.7-0.9-1.2-1.7-1.2-1.9c0-0.2,0.4-2.8,0.4-3.2
		c-0.3-4.3-0.1-5-0.4-9.3c-1.6,0.1-2.3,0.1-3.9,0.2c-0.3,0-0.5,0-0.7,0c-0.2,0-0.3-0.1-0.5-0.2c-0.2-0.1-0.8-0.7-0.9-0.9
		c-0.1-0.3-0.6-0.6-0.7-1.1c0-0.4,0.8-0.4,0.9-0.7c0.1-0.3,0.2-0.5,0.4-0.6c0.2-0.1,0.4-0.2,0.5-0.2C89,64.8,89.2,64.8,89.6,64.7z"
		/>
	<path class="st17" d="M118.2,80.3c0.2,0.6,1.7,0.4,1.7,0.6c0,0.6-2,1.9-3,2.2c-0.5,0.2-0.9,0.3-1.3,0.3c-0.3,0-0.5-0.1-0.7-0.3
		c-0.2-0.2-0.3-0.3-0.4-0.5c-0.1-0.2-0.2-0.4-0.3-0.8c-0.3-0.9-0.7-2.2-1.3-3.9c-0.2,0-0.5,0-0.7,0c-1-0.1-2-0.1-3-0.2
		c0,1,0.1,1.2,0.1,2.1c0,0.4,0.5,0.5,0.4,0.7c0,0.2-0.2,0.9-0.8,1.6c-0.2,0.2-0.5,0.5-0.8,0.5c-0.3,0.1-0.7,0.1-1.2,0.1
		c-0.4,0-1.2-0.1-1.5-0.2c-0.3-0.1-0.5-0.2-0.6-0.3c-0.1-0.1-0.2-0.3-0.3-0.5c-0.1-0.2-0.1-0.4-0.1-0.6c0-0.2,0-0.4,0-0.7
		c0.1-2.7,0.9-13.9,0.9-14.2c0-0.4,0-0.7,0.1-0.9c0-0.2,0.1-0.6,0.2-0.8c0.2-0.7,0.9-1.9,1.2-2c0.3-0.1,0.3,1.6,0.8,1.6
		c1.8,0.1,3.6,0.2,5.3,0.3c0.7,0,1.4,0.2,2.1,0.6c0.7,0.3,1.4,0.8,2,1.4c0.6,0.6,1.1,1.3,1.5,2.3c0.4,0.9,0.5,1.9,0.4,3
		c-0.1,1.9-0.8,3.4-2.1,4.6C117.1,77.1,117.6,78.5,118.2,80.3z M109.4,73.2c1,0.1,2.1,0.1,3.1,0.2c0.5,0,0.9-0.1,1.4-0.5
		c0.5-0.3,0.8-0.9,0.8-1.7c0-0.7-0.2-1.3-0.6-1.7c-0.4-0.4-0.9-0.6-1.4-0.7c-1-0.1-2-0.1-3.1-0.2C109.5,70.2,109.4,71.7,109.4,73.2z
		"/>
	<path class="st17" d="M146.9,73.2c0.7,4.8,0.8,8.1,1.4,12.9c0.1,0.6,0.4,1.4,0.3,1.7c-0.1,0.6,1.2,1.2,0.4,1.4
		c-0.4,0.1-3.2,0.7-4,0.7c-0.2,0-1.1-0.2-1.3-1.7c-0.1-0.9-0.2-1.9-0.4-2.8c-1.8-0.5-3.6-1-5.4-1.5c-0.5,0.7-0.2,0.8-0.7,1.6
		c-0.2,0.3,1.2,0.7,1.1,0.8c-0.1,0.1-1.9,1-3,0.9c-0.6,0-1.1-0.3-1.5-0.7c-0.7-0.6-0.9-1.7-0.8-2.2c0.1-0.3,0.3-0.6,0.6-1.1
		c2.7-3.9,8.9-11.2,8.9-11.2c0.2-0.3,0.5-0.5,0.9-0.7c0.4-0.1,3.7-1.6,4.1-1.5C148.2,69.9,146.8,72.3,146.9,73.2z M142.2,77.9
		c-0.7,0.9-1.4,1.9-2.1,2.8c0.9,0.2,1.7,0.5,2.6,0.7C142.6,80.3,142.4,79.1,142.2,77.9z"/>
	<path class="st17" d="M172.5,78.7c-0.9-0.3-6.9,0.8-7.3,1.1c-1.1,0.8-1.9,1.1-5.3,3.6c-0.8-2.7-1.5-2.2-2.4-4.9
		c0-0.1,1.7-4.4,1.3-4.5c-0.4-0.1-5.3,1.1-5.6,1.1c-0.3,0-0.5,0.1-0.7,0.3c-0.2,0.2-0.3,0.3-0.4,0.5c-0.1,0.2-0.2,0.4-0.3,0.8
		c-1.2,4.1-2.4,8.2-3.6,12.3c-0.1,0.4-0.2,0.6-0.2,0.8c0,0.2,0,0.4,0,0.6c0,0.2,0.2,0.5,0.4,0.6c0.2,0.2,0.5,0.3,1,0.4
		c0.4,0.1,0.8,0.2,1.1,0.2c0.3,0,4.1-0.4,4.3-0.6c0.2-0.2-0.4-7.5,0-6c0.4,1.5,0.7,2.4,0.9,2.9c0,0.1,0.1,0.2,0.1,0.3
		c0.1,0.2,0.2,0.4,0.4,0.6c0.2,0.2,0.4,0.4,0.7,0.5c0.3,0.1,0.6,0.1,0.9,0c0.2-0.1,2.9-0.3,4.1-0.4c-0.4,1.3-0.9,2.7-1.3,4
		c-0.1,0.3-0.2,0.5-0.2,0.6c0,0.1-0.1,0.3-0.1,0.5c0,0.2,0,0.4,0.1,0.5c0.1,0.1,0.2,0.3,0.4,0.4c0.2,0.2,0.5,0.3,0.8,0.4
		c0.4,0.2,6-0.2,6.2-0.2c0.3,0,0.5-1.3,0.7-1.5c0.2-0.2-0.5-0.7-0.5-0.8c0.1-0.2,0.3-2.5,0.4-2.8c1.4-4,0.3-2.1,1.7-6.1
		c0.1-0.3-1.8-2.4-1.7-2.5c0-0.2,0-0.4,0-0.7c0-0.2,2.5,1.9,2.7,2.1C170.9,82.9,172.9,78.9,172.5,78.7z M162.6,86.9
		c0.1-0.5,0.2-0.9,0.3-1C162.8,86.2,162.7,86.5,162.6,86.9z"/>
	<path class="st17" d="M124.4,80.3c2.1,0.4,4.2,0.9,6.2,1.3c0.3,0.1,0.5,0.1,0.7,0.2c0.1,0.1,0.3,0.2,0.5,0.3
		c0.2,0.2,0.3,0.4,0.3,0.7c0,0.3,0,0.7-0.1,1.2c-0.1,0.4,1.5-0.8,1.4-0.6c-0.1,0.2,0.2,1.4,0.1,1.5c-0.1,0.1-2.4,0.8-2.6,0.8
		c-0.2,0-0.4,0-0.5,0c-0.1,0-0.3-0.1-0.6-0.1c-2.6-0.6-5.8-1.1-8.4-1.7c-0.3-0.1-0.6-0.2-0.8-0.3c-0.2-0.1-0.4-0.2-0.5-0.4
		c-0.1-0.1-0.2-0.3-0.2-0.5c0-0.2,0-0.4,0-0.6c0-0.1,0.1-0.4,0.1-0.7c0.7-4.4,2-8.7,2.7-13.1c0.1-0.8,0.4-1.3,0.7-1.6
		c0.3-0.2,2.6-1.3,2.9-1.5c2.8,0.6,4.2,2.5,6.9,3.2c0.3,0.1,0.6,0.1,0.7,0.2c0.2,0.1,0.3,0.2,0.5,0.4c0.2,0.2,0.3,0.4,0.3,0.7
		c0,0.3,0,0.7-0.1,1.2c-0.1,0.4,1.6-0.2,1.4,0c-0.1,0.2,1.2,0.7,1.1,0.8c-0.1,0.1-3.5,0.9-3.7,0.9c-0.2,0-0.4,0-0.5,0
		c-0.1,0-0.3-0.1-0.6-0.1c-2.1-0.5-4.2-1-6.4-1.4c-0.1,0.8-0.3,1.6-0.4,2.4c1.4,0.3,2.7,0.6,4.1,0.9c0.3,0.1,0.5,0.1,0.7,0.2
		c0.2,0.1,0.3,0.2,0.5,0.3c0.2,0.2,0.3,0.4,0.3,0.7c0,0.3,0,0.7-0.1,1.2c-0.1,0.4,2.2-0.8,2.1-0.6c-0.1,0.2,0.1,1.2,0,1.3
		c-0.1,0.1-3,1-3.2,1c-0.2,0-0.4,0-0.5,0c-0.1,0-0.3-0.1-0.6-0.1c-1.3-0.3-2.7-0.6-4-0.8C124.7,78.7,124.5,79.5,124.4,80.3z"/>
	<path class="st18" d="M73.1,80.9c-0.6-0.5-0.9-1.1-0.7-1.7c0.1-0.5,0.3-1.1,1-1.8c0.4-0.4,0.8-0.7,1.3-0.7c0.6,0,1.4,0.3,2.4,1
		c0.1,0,0.1,0.1,0.2,0.1c0.1,0.1,0.2,0.2,0.4,0.3c0.2,0.1,0.5,0.3,1,0.5c0.5,0.2,0.9,0.3,1.3,0.2c1.8-0.1,2.6-0.8,2.4-2.1
		c-0.1-0.4-0.4-0.7-0.9-0.9c-0.5-0.2-1.2-0.4-1.9-0.4c-0.7-0.1-1.6-0.2-2.5-0.4c-0.9-0.2-1.7-0.4-2.5-0.7c-0.8-0.3-1.5-0.8-2.1-1.5
		c-0.6-0.7-1.1-1.1-1.3-2.2c-0.3-1.5,0.2-3.3,1.3-4.5c1.1-1.2,2.8-1.8,5-2c1.2-0.1,2.3,0,3.3,0.2c1,0.2,1.7,0.4,2.1,0.7
		c0.2,0.1,0.4,0.2,0.6,0.3c0.1,0,0.1,0.1,0.2,0.1c0.7,0.5,1,0.8,1.1,1.2c0.3,0.8,0,1.5-0.3,2.1c-0.5,0.9-1.3,0.6-2,0.7
		c-0.4,0-0.9-0.1-1.6-0.4c-0.1,0-0.2-0.1-0.4-0.2c-0.2-0.1-0.4-0.2-0.5-0.3c-0.1-0.1-0.4-0.1-0.7-0.2c-0.3-0.1-0.7-0.1-1.1,0
		c-0.5,0-0.9,0.2-1.3,0.5c-0.4,0.3-0.5,0.6-0.5,1.1c0.1,0.5,0.4,0.9,0.9,1.1c0.5,0.2,1.2,0.4,1.9,0.5c0.8,0.1,1.6,0.2,2.5,0.3
		c0.9,0.2,1.7,0.4,2.5,0.6c0.8,0.3,1.5,0.7,2.1,1.5c0.6,0.7,1,1.9,1.2,3c0.2,1.1,0,2.5-0.4,3.4c-0.4,0.8-0.9,0.7-1.6,1.2
		c-0.7,0.5-1.5,0.9-2.3,1.1c-0.8,0.3-1.6,0.4-2.4,0.5c-0.9,0.1-1.7,0-2.6-0.1c-0.8-0.1-1.5-0.3-2.1-0.6c-0.5-0.2-1-0.5-1.5-0.7
		c-0.4-0.3-0.7-0.5-0.9-0.7C73.7,80.7,73.2,81,73.1,80.9z"/>
	<path class="st18" d="M101.8,65.7c0.1,0,0.2,0,0.3,0c0.3-0.7,0.7,0.1,1.5-0.2c0-0.1,0.2-1.6,0.2-1.7c0-0.4-0.1-0.8-0.2-1.1
		c-0.1-0.3-0.3-0.5-0.5-0.6c-0.2-0.1-0.4-0.2-0.6-0.2c-0.2,0-0.4,0-0.8,0c-5,0-8.2,0.1-13.2,0.2c-0.4,0-0.6,0-0.8,0.1
		c-0.2,0-0.4,0.1-0.6,0.2c-0.2,0.1-0.3,0.3-0.4,0.6c-0.1,0.3-0.2,1.6-0.1,2c0,0.4,0.2-0.2,0.3,0.1c0.1,0.3,0.3,0.5,0.5,0.5
		c0.2,0.1,0.4,0.2,0.6,0.2c0.2,0,0.4,0,0.8,0c1.7-0.1,2.5-0.1,4.2-0.1c0.2,4.3,0.4,8.6,0.7,12.9c0,0.4,0.1,0.7,0.1,0.9
		c0,0.2,0.1,0.4,0.3,0.7c0.1,0.2,0.4,0.4,0.7,0.5c0.3,0.1,0.7,0.1,1.3,0.1c0.5,0,0.9-0.1,1.3-0.2c0.3-0.1,0.5-0.3,0.7-0.5
		c0.1-0.2-0.6-10.1-0.7-14.4C98.9,65.7,100.2,65.7,101.8,65.7z"/>
	<path class="st18" d="M115.7,80.7c0.1-0.1,0.2-0.1,0.3-0.2c1.3-0.7,2.7-0.6,4.1-0.3c0-0.1,0-0.2,0-0.3c0-0.3-0.1-0.7-0.3-1.3
		c-0.6-1.8-1.1-3.2-1.4-4.1c1.4-1.1,2.2-2.6,2.4-4.5c0.1-1.1,0-2.1-0.4-3c-0.4-0.9-0.9-1.7-1.6-2.3c-0.7-0.6-1.4-1-2.2-1.4
		c-0.8-0.3-1.5-0.5-2.3-0.6c-1.9-0.1-3.9-0.3-5.8-0.4c-0.6,0-1,0-1.4,0.1c-0.3,0.1-0.6,0.2-0.8,0.5c-0.2,0.2-0.3,0.5-0.3,0.7
		c0,0.2-0.1,0.5-0.1,0.9c-0.3,4.7-0.6,9.4-0.8,14.1c0,0.3,0,0.6,0,0.7c0,0.2,0,0.4,0.1,0.6c0.1,0.2,0.2,0.4,0.3,0.5
		c0.1,0.1,0.4,0.2,0.6,0.3c0.3,0.1,0.6,0.2,1.1,0.2c0.5,0,1,0,1.3-0.1c0.3-0.1,0.6-0.2,0.7-0.5c0.2-0.2-0.2-0.5-0.1-0.7
		c0-0.2,0.1-0.5,0.1-0.9c0.1-1,0.1-1.9,0.2-2.9c1.1,0.1,2.6,0.1,3.7,0.2c0.3,0,0.5,0,0.8,0c0.6,1.7,1,3.1,1.3,3.9
		C115.6,80.3,115.7,80.6,115.7,80.7z M113.7,71.6c-1.1-0.1-2.6-0.2-3.8-0.2c0.1-1.5,0.6-3,0.7-4.5c1.1,0.1,2.2,0.2,3.3,0.2
		c0.5,0,1.1,0.3,1.5,0.7c0.5,0.4,0.7,1,0.6,1.7c-0.1,0.8-0.4,1.3-0.9,1.6C114.8,71.5,114.2,71.6,113.7,71.6z"/>
	<path class="st18" d="M126.7,78.9c2.3,0.5,4.5,0.9,6.8,1.5c0.3,0.1,0.6,0.1,0.7,0.2c0.2,0.1,0.3,0.2,0.5,0.4
		c0.2,0.2,0.3,0.4,0.3,0.7c0,0.3,0,0.7-0.2,1.2c-0.1,0.4-0.2,0.7-0.4,1c-0.1,0.2-0.3,0.4-0.4,0.5c-0.1,0.1-0.3,0.2-0.5,0.2
		c-0.2,0-0.4,0-0.5,0c-0.1,0-0.3-0.1-0.6-0.1c-2.9-0.6-5.7-1.2-8.6-1.8c-0.4-0.1-0.7-0.2-0.9-0.3c-0.2-0.1-0.4-0.3-0.5-0.4
		c-0.1-0.1-0.2-0.3-0.2-0.5c0-0.2,0-0.4,0-0.6c0-0.1,0.1-0.4,0.1-0.7c0.9-4.3,1.8-8.7,2.8-13c0.2-0.8,0.4-1.3,0.8-1.5
		c0.4-0.2,0.9-0.3,1.7-0.1c3,0.6,6,1.3,9,2c0.3,0.1,0.6,0.2,0.8,0.2c0.2,0.1,0.3,0.2,0.5,0.4c0.2,0.2,0.3,0.4,0.3,0.7
		c0,0.3,0,0.7-0.2,1.2c-0.1,0.4-0.2,0.7-0.4,1c-0.1,0.2-0.3,0.4-0.4,0.5c-0.1,0.1-0.3,0.2-0.5,0.2c-0.2,0-0.4,0-0.5,0
		c-0.1,0-0.4-0.1-0.6-0.1c-2.3-0.5-4.6-1-6.9-1.5c-0.2,0.8-0.4,1.6-0.5,2.4c1.5,0.3,3,0.6,4.4,1c0.3,0.1,0.6,0.1,0.8,0.2
		c0.2,0.1,0.3,0.2,0.5,0.4c0.2,0.2,0.3,0.4,0.3,0.7c0,0.3,0,0.7-0.2,1.2c-0.1,0.4-0.2,0.7-0.4,1c-0.1,0.2-0.3,0.4-0.4,0.5
		c-0.1,0.1-0.3,0.2-0.5,0.2c-0.2,0-0.4,0-0.5,0c-0.1,0-0.4-0.1-0.6-0.1c-1.4-0.3-2.9-0.6-4.3-0.9C127.1,77.4,126.9,78.2,126.7,78.9z
		"/>
	<path class="st18" d="M150,71.4c0.7,4.9,1.3,9.7,1.8,14.5c0.1,0.6,0.1,1.4,0.1,1.6c-0.2,0.6-0.9,1.2-1.9,1.4
		c-0.6,0.1-0.8-0.5-1.2-0.6c-0.2-0.1-0.4-0.2-0.5-0.4c-0.1-0.2-0.2-0.4-0.2-0.5c0-0.2-0.1-0.4-0.1-0.8c-0.1-0.9-0.2-1.9-0.3-2.8
		c-1.9-0.6-3.9-1.1-5.8-1.6c-0.6,0.7-1.2,1.5-1.8,2.2c-0.2,0.3-0.4,0.5-0.5,0.6c-0.1,0.1-0.3,0.2-0.5,0.3c-0.2,0.1-0.4,0.1-0.7,0.1
		c-0.3-0.1-0.7-0.3-1.1-0.7c-0.7-0.6-1-1.2-0.8-1.8c0.1-0.3,0.3-0.6,0.7-1.1c3.1-3.9,6.2-7.7,9.4-11.5c0.3-0.3,0.6-0.5,1-0.7
		c0.4-0.1,0.8-0.1,1.1,0C149.4,69.9,149.8,70.5,150,71.4z M146.6,76.4c-0.8,0.9-2.8,3-3.5,3.9c0.9,0.3,2.7,0.5,3.6,0.8
		C146.5,80,146.7,77.6,146.6,76.4z"/>
	<path class="st18" d="M173.7,79.1c0.5,0.2,0.8,0.3,1.1,0.5c0.2,0.2,0.4,0.4,0.4,0.7c0,0.3,0,0.5,0,0.7c0,0.2-0.1,0.4-0.3,0.8
		c-1.6,4-3.3,7.9-4.9,11.9c-0.1,0.3-0.2,0.6-0.3,0.7c-0.1,0.2-0.2,0.3-0.4,0.5c-0.2,0.2-0.4,0.3-0.7,0.2c-0.3,0-0.7-0.1-1.1-0.2
		c-0.4-0.1-0.7-0.3-0.9-0.4c-0.2-0.2-0.4-0.3-0.5-0.4c-0.1-0.1-0.1-0.3-0.1-0.5c0-0.2,0-0.4,0.1-0.5c0-0.1,0.1-0.3,0.2-0.6
		c0.9-2.4,1.9-4.8,2.9-7.2c-0.5,0.3-1.4,0.8-2.4,1.6c-1.1,0.7-1.9,1.3-2.4,1.6c-0.1,0.1-0.2,0.1-0.3,0.2c-0.1,0.1-0.3,0.1-0.7,0.2
		c-0.3,0.1-0.7,0.1-1-0.1c-0.3-0.1-0.6-0.3-0.8-0.5c-0.2-0.2-0.4-0.5-0.4-0.6c0-0.1-0.1-0.2-0.1-0.3c-0.2-0.5-0.4-1.4-0.9-2.9
		c-0.4-1.5-0.7-2.3-0.7-2.4c-0.9,2.5-1.8,4.9-2.7,7.4c-0.1,0.3-0.2,0.6-0.3,0.8c-0.1,0.2-0.2,0.3-0.4,0.5c-0.2,0.2-0.4,0.3-0.7,0.3
		c-0.3,0-0.7-0.1-1.1-0.2c-0.4-0.1-0.8-0.3-1-0.5c-0.2-0.2-0.4-0.4-0.4-0.6c0-0.2,0-0.5,0-0.6c0-0.2,0.1-0.5,0.2-0.8
		c1.4-4.1,2.4-8.2,3.9-12.3c0.1-0.3,0.2-0.6,0.3-0.7c0.1-0.2,0.2-0.3,0.4-0.5c0.2-0.2,0.9-0.3,1.2-0.3c0.3,0,0.7,0.1,1.2,0.2
		c0.4,0.1,0.7,0.3,1,0.5c0.3,0.2,0.4,0.3,0.5,0.5c0,0.1,0.1,0.1,0.1,0.2c0.9,2.7,1.8,5.8,2.6,8.6c3.7-2.4,6.3-4.4,7.5-5.1
		C172.1,78.7,172.8,78.7,173.7,79.1z"/>
	<polygon class="st19" points="145.4,72.9 142.2,77.2 147.6,76.3 	"/>
	<g>
		<path class="st20" d="M73.6,81.3c-0.6-0.5-0.9-0.9-1-1.3c-0.1-0.5,0.2-1.1,0.9-1.9c0.4-0.4,0.8-0.7,1.3-0.7c0.6,0,1.4,0.3,2.4,1
			c0.1,0,0.1,0.1,0.2,0.1c0.1,0.1,0.2,0.2,0.4,0.3c0.2,0.1,0.5,0.3,1,0.5c0.5,0.2,0.9,0.3,1.3,0.2c1.8-0.1,2.5-0.8,2.3-2.1
			c-0.1-0.4-0.4-0.7-0.9-0.9c-0.5-0.2-1.2-0.4-1.9-0.4c-0.7-0.1-1.6-0.2-2.4-0.4c-0.9-0.2-1.7-0.4-2.5-0.7c-0.8-0.3-1.5-0.8-2.1-1.5
			c-0.6-0.7-1-1.6-1.2-2.7c-0.3-1.5,0.1-2.8,1.2-4c1.1-1.2,2.8-1.8,5-2c1.2-0.1,2.3,0,3.3,0.2c1,0.2,1.7,0.4,2.1,0.7
			c0.2,0.1,0.4,0.2,0.6,0.3c0.1,0,0.1,0.1,0.2,0.1c0.7,0.5,1,0.8,1.1,1.2c0.1,0.3-0.1,0.8-0.5,1.4c-0.5,0.9-1.2,1.3-1.9,1.4
			c-0.4,0-0.9-0.1-1.6-0.4c-0.1,0-0.2-0.1-0.4-0.2c-0.2-0.1-0.4-0.2-0.5-0.3c-0.1-0.1-0.4-0.1-0.7-0.2c-0.3-0.1-0.7-0.1-1.1,0
			c-0.5,0-0.9,0.2-1.3,0.5c-0.4,0.3-0.5,0.6-0.5,1.1c0.1,0.5,0.4,0.9,0.9,1.1c0.5,0.2,1.2,0.4,1.9,0.5c0.8,0.1,1.6,0.2,2.5,0.3
			c0.9,0.2,1.7,0.4,2.5,0.6c0.8,0.3,1.5,0.7,2.1,1.5c0.6,0.7,1,1.6,1.1,2.7c0.1,1.1,0,2-0.3,2.9c-0.4,0.8-0.9,1.5-1.6,2
			c-0.7,0.5-1.5,0.9-2.3,1.1c-0.8,0.3-1.6,0.4-2.4,0.5c-0.9,0.1-1.7,0-2.5-0.1c-0.8-0.1-1.5-0.3-2-0.6c-0.5-0.2-1-0.5-1.4-0.7
			c-0.4-0.3-0.7-0.5-0.9-0.7C73.8,81.5,73.7,81.4,73.6,81.3z"/>
		<path class="st20" d="M88.5,63.2c4.9-0.2,8.2-0.2,13.1-0.3c0.4,0,0.6,0,0.8,0c0.2,0,0.3,0.1,0.6,0.2c0.2,0.1,0.4,0.3,0.5,0.6
			c0.1,0.3,0.1,0.6,0.2,1.1c0,0.4,0,0.8-0.1,1.1c-0.1,0.3-0.2,0.4-0.4,0.5c-0.2,0.1-0.4,0.2-0.6,0.2c-0.2,0-0.4,0-0.8,0
			c-1.7,0-2.5,0-4.2,0c0.2,4.3,0.3,8.6,0.5,12.9c0,0.4,0,0.7,0,0.9c0,0.2-0.1,0.4-0.2,0.7c-0.1,0.3-0.3,0.4-0.6,0.5
			c-0.3,0.1-0.7,0.2-1.3,0.2c-0.5,0-0.9,0-1.3-0.1c-0.3-0.1-0.5-0.3-0.7-0.5c-0.1-0.2-0.2-0.5-0.3-0.7c0-0.2-0.1-0.5-0.1-0.9
			c-0.2-4.3-0.5-8.6-0.7-12.9c-1.7,0-2.5,0.1-4.2,0.1c-0.3,0-0.6,0-0.8,0c-0.2,0-0.4-0.1-0.6-0.2c-0.2-0.1-0.4-0.3-0.5-0.5
			c-0.1-0.3-0.2-0.6-0.2-1.1c0-0.4,0-0.8,0.1-1.1c0.1-0.3,0.2-0.5,0.4-0.6c0.2-0.1,0.4-0.2,0.6-0.2C87.9,63.2,88.2,63.2,88.5,63.2z"
			/>
		<path class="st20" d="M119.8,79.2c0.2,0.6,0.3,1.1,0.3,1.3c-0.1,0.6-0.6,1.1-1.7,1.5c-0.6,0.2-1,0.3-1.4,0.2
			c-0.3,0-0.5-0.1-0.7-0.3c-0.2-0.2-0.3-0.4-0.4-0.5c-0.1-0.2-0.2-0.4-0.3-0.8c-0.3-0.9-0.7-2.2-1.3-3.9c-0.3,0-0.5,0-0.8,0
			c-1.1-0.1-2.2-0.1-3.3-0.2c-0.1,1-0.1,1.9-0.2,2.9c0,0.4-0.1,0.7-0.1,0.9c0,0.2-0.1,0.4-0.3,0.7c-0.2,0.2-0.4,0.4-0.7,0.5
			c-0.3,0.1-0.8,0.1-1.3,0.1c-0.4,0-0.8-0.1-1.1-0.2c-0.3-0.1-0.5-0.2-0.6-0.3c-0.1-0.1-0.3-0.3-0.3-0.5c-0.1-0.2-0.1-0.4-0.1-0.6
			c0-0.2,0-0.4,0-0.7c0.3-4.7,0.5-9.4,0.8-14.1c0-0.4,0.1-0.7,0.1-0.9c0-0.2,0.1-0.4,0.3-0.7c0.2-0.2,0.4-0.4,0.8-0.5
			c0.3-0.1,0.8-0.1,1.4-0.1c1.9,0.1,3.9,0.3,5.8,0.4c0.7,0.1,1.5,0.3,2.3,0.6c0.8,0.3,1.5,0.8,2.1,1.4c0.7,0.6,1.2,1.3,1.5,2.3
			c0.4,0.9,0.5,1.9,0.4,3c-0.2,1.9-1,3.4-2.4,4.5C118.7,76,119.2,77.3,119.8,79.2z M110.4,72c1.1,0.1,2.2,0.1,3.3,0.2
			c0.5,0,1-0.1,1.6-0.4c0.5-0.3,0.8-0.9,0.9-1.6c0.1-0.7-0.1-1.3-0.6-1.7c-0.5-0.4-1-0.7-1.5-0.7c-1.1-0.1-2.2-0.2-3.3-0.2
			C110.6,69,110.5,70.5,110.4,72z"/>
		<path class="st20" d="M126.6,79.4c2.3,0.5,4.5,0.9,6.7,1.5c0.3,0.1,0.6,0.1,0.7,0.2c0.2,0.1,0.3,0.2,0.5,0.4
			c0.2,0.2,0.3,0.4,0.3,0.7c0,0.3,0,0.7-0.2,1.2c-0.1,0.4-0.2,0.7-0.4,1c-0.1,0.2-0.3,0.4-0.4,0.5c-0.1,0.1-0.3,0.2-0.5,0.2
			c-0.2,0-0.4,0-0.5,0c-0.1,0-0.3-0.1-0.6-0.1c-2.8-0.6-5.7-1.2-8.6-1.8c-0.4-0.1-0.7-0.2-0.9-0.3c-0.2-0.1-0.4-0.3-0.5-0.4
			c-0.1-0.1-0.2-0.3-0.2-0.5c0-0.2,0-0.4,0-0.6c0-0.1,0.1-0.4,0.1-0.7c0.9-4.3,1.8-8.7,2.8-13c0.2-0.8,0.4-1.3,0.8-1.5
			c0.4-0.2,0.9-0.3,1.7-0.1c3,0.6,6,1.3,9,2c0.3,0.1,0.6,0.2,0.8,0.2c0.2,0.1,0.3,0.2,0.5,0.4c0.2,0.2,0.3,0.4,0.3,0.7
			c0,0.3,0,0.7-0.2,1.2c-0.1,0.4-0.2,0.7-0.4,1c-0.1,0.2-0.3,0.4-0.4,0.5c-0.1,0.1-0.3,0.2-0.5,0.2c-0.2,0-0.4,0-0.5,0
			c-0.1,0-0.4-0.1-0.6-0.1c-2.3-0.5-4.6-1-6.9-1.5c-0.2,0.8-0.4,1.6-0.5,2.4c1.5,0.3,3,0.6,4.4,1c0.3,0.1,0.6,0.1,0.8,0.2
			c0.2,0.1,0.3,0.2,0.5,0.4c0.2,0.2,0.3,0.4,0.3,0.7c0,0.3,0,0.7-0.2,1.2c-0.1,0.4-0.2,0.7-0.4,1c-0.1,0.2-0.3,0.4-0.4,0.5
			c-0.1,0.1-0.3,0.2-0.5,0.2c-0.2,0-0.4,0-0.5,0c-0.1,0-0.4-0.1-0.6-0.1c-1.4-0.3-2.9-0.6-4.3-0.9C126.9,77.8,126.7,78.6,126.6,79.4
			z"/>
		<path class="st20" d="M149.4,72.1c0.7,4.9,1.3,9.7,1.8,14.5c0.1,0.6,0.1,1,0,1.3c-0.2,0.6-0.7,0.9-1.7,1.1c-0.5,0.1-1,0.1-1.3,0
			c-0.2-0.1-0.4-0.2-0.5-0.4c-0.1-0.2-0.2-0.4-0.2-0.5c0-0.2-0.1-0.4-0.1-0.8c-0.1-0.9-0.2-1.9-0.3-2.8c-1.9-0.6-3.9-1.1-5.8-1.6
			c-0.6,0.7-1.2,1.5-1.8,2.2c-0.2,0.3-0.4,0.5-0.5,0.6c-0.1,0.1-0.3,0.2-0.5,0.3c-0.2,0.1-0.4,0.1-0.7,0.1c-0.3-0.1-0.7-0.3-1.1-0.7
			c-0.7-0.6-1-1.2-0.8-1.8c0.1-0.3,0.3-0.6,0.7-1.1c3-3.9,6.2-7.7,9.4-11.5c0.3-0.3,0.6-0.5,1-0.7c0.4-0.1,0.8-0.1,1.1,0
			C148.8,70.7,149.2,71.2,149.4,72.1z M146,77.2c-0.8,0.9-1.6,1.9-2.3,2.8c0.9,0.3,1.9,0.5,2.8,0.8C146.3,79.6,146.1,78.4,146,77.2z
			"/>
		<path class="st20" d="M173,79.6c0.5,0.2,0.8,0.3,1.1,0.5c0.2,0.2,0.4,0.4,0.4,0.7c0,0.3,0,0.5,0,0.7c0,0.2-0.1,0.4-0.3,0.8
			c-1.6,4-3.3,7.9-4.9,11.9c-0.1,0.3-0.2,0.6-0.3,0.7c-0.1,0.2-0.2,0.3-0.4,0.5c-0.2,0.2-0.4,0.3-0.7,0.2c-0.3,0-0.7-0.1-1.1-0.2
			c-0.4-0.1-0.7-0.3-0.9-0.4c-0.2-0.2-0.4-0.3-0.5-0.4c-0.1-0.1-0.1-0.3-0.1-0.5c0-0.2,0-0.4,0.1-0.5c0-0.1,0.1-0.3,0.2-0.6
			c0.9-2.4,1.9-4.8,2.8-7.2c-0.5,0.3-1.3,0.8-2.4,1.6c-1.1,0.7-1.8,1.3-2.3,1.6c-0.1,0.1-0.2,0.1-0.3,0.2c-0.1,0.1-0.3,0.1-0.7,0.2
			c-0.3,0.1-0.7,0.1-1-0.1c-0.3-0.1-0.6-0.3-0.8-0.5c-0.2-0.2-0.3-0.5-0.4-0.6c0-0.1-0.1-0.2-0.1-0.3c-0.2-0.5-0.4-1.4-0.9-2.9
			c-0.4-1.5-0.7-2.3-0.7-2.4c-0.9,2.5-1.8,4.9-2.6,7.4c-0.1,0.3-0.2,0.6-0.3,0.8c-0.1,0.2-0.2,0.3-0.4,0.5c-0.2,0.2-0.4,0.3-0.7,0.3
			c-0.3,0-0.7-0.1-1.1-0.2c-0.4-0.1-0.8-0.3-1-0.5c-0.2-0.2-0.4-0.4-0.4-0.6c0-0.2,0-0.5,0-0.6c0-0.2,0.1-0.5,0.2-0.8
			c1.4-4.1,2.8-8.2,4.2-12.3c0.1-0.3,0.2-0.6,0.3-0.7c0.1-0.2,0.2-0.3,0.4-0.5c0.2-0.2,0.5-0.3,0.8-0.3c0.3,0,0.7,0.1,1.2,0.2
			c0.4,0.1,0.7,0.3,1,0.5c0.3,0.2,0.4,0.3,0.5,0.5c0,0.1,0.1,0.1,0.1,0.2c0.9,2.7,1.8,5.4,2.6,8.2c3.7-2.4,6.3-4,7.5-4.7
			C171.4,79.2,172.1,79.2,173,79.6z"/>
	</g>
	<path class="st21" d="M43.4,77.5c-1.1-0.3-5.2-0.6-6.4-0.6c-1.2,0,1.6,0.5,0.4,1c-1.2,0.5-2.3,1.1-3.2,1.9
		c-0.9,0.8-1.7,1.8-2.2,2.9c-0.5,1.1-0.8,2.3-0.9,3.5c-0.1,1.3,0.2,2.6,0.6,3.9c0.5,1.3,0,1.2,0.8,2.1c0.8,0.9,0.3,3,1.4,3.5
		c1.1,0.5,4.8,0.5,6.1,0.5c1.2,0,2.4-0.3,3.7-0.8c1.2-0.5,2.3-1.1,3.2-1.9c0.9-0.8,1.7-1.8,2.2-2.9c0.5-1.1,0.8-2.3,0.9-3.5
		c0.1-1.3-0.2-2.6-0.6-3.9c-0.5-1.3-1.1-2.4-2-3.4C46.5,79,45,77.9,43.4,77.5z"/>
	<path class="st22" d="M42.5,90.3l6.6,0.4c0,0-1.8,4.4-7,5.4c-4.8,0.9-8.2-0.3-8.2-0.3L42.5,90.3z"/>
	<polygon class="st21" points="61.4,66.8 60.2,77 53.9,71.3 50.8,70.5 50,90.8 53.4,91.6 58.4,89.9 55.8,82.6 60.9,87 63.3,88.1 
		70.3,85.8 64.8,68.8 	"/>
	<path class="st23" d="M40.3,77.6c-1-0.5-2.2-0.7-3.4-0.7c-1.2,0-2.4,0.2-3.6,0.7c-1.2,0.5-2.3,1.1-3.2,1.9
		c-0.9,0.8-1.6,1.8-2.1,2.8c-0.5,1.1-0.8,2.3-0.8,3.5c0,1.3,0.2,2.6,0.6,3.9c0.5,1.3,1.1,2.5,1.9,3.4c0.8,0.9,1.8,1.6,2.8,2.1
		c1,0.5,2.2,0.7,3.4,0.7c1.2,0,2.4-0.2,3.6-0.7c1.2-0.5,2.3-1.1,3.2-1.9c0.9-0.8,1.6-1.8,2.1-2.8c0.5-1.1,0.8-2.3,0.8-3.5
		c0-1.3-0.2-2.6-0.6-3.9c-0.5-1.3-1.1-2.5-1.9-3.4C42.4,78.8,41.4,78.1,40.3,77.6z"/>
	<polygon class="st23" points="55.4,68.9 57.8,76.3 50.8,70.5 44.1,72.9 50,90.8 56.1,88.7 53.5,81 60.9,87 67.3,84.7 61.4,66.8 	
		"/>
	<path class="st24" d="M41.1,84.5L41.1,84.5c-0.2-0.6-0.6-1-1.2-1.1l-6-1.6c-0.6-0.2-1.2,0-1.6,0.5c-0.5,0.5-0.6,1.2-0.4,1.8
		l2.2,6.5c0.2,0.6,0.7,1.1,1.3,1.2c0.1,0,0.2,0,0.3,0c0.5,0,1-0.2,1.3-0.7l3.8-4.9C41.2,85.7,41.3,85.1,41.1,84.5z"/>
	<g>
		<path class="st22" d="M32.7,83.8l2.2,6.5c0.2,0.7,1.1,0.8,1.5,0.3l3.8-4.9c0.4-0.5,0.2-1.4-0.5-1.5l-6-1.6
			C33,82.3,32.4,83.1,32.7,83.8z"/>
	</g>
	<path class="st15" d="M34.9,84.3c-0.2-0.6,0.2-1.2,0.7-1.3l-1.8-0.5c-0.7-0.2-1.3,0.5-1,1.3l2.2,6.5c0.2,0.7,1.1,0.8,1.5,0.3
		l0.4-0.6L34.9,84.3z"/>
	<polygon class="st22" points="56.1,88.7 58.4,89.9 53.4,91.6 50,90.8 	"/>
	<polygon class="st22" points="60.9,87 67.3,84.7 70.3,85.8 63.3,88.1 	"/>
	<g>
		<path class="st24" d="M37.2,95.6c-1.2,0-2.3-0.2-3.4-0.7c-1.1-0.5-2-1.2-2.8-2.1c-0.8-0.9-1.5-2.1-1.9-3.4
			c-0.5-1.3-0.7-2.6-0.6-3.9c0.1-1.3,0.3-2.5,0.8-3.5c0.5-1.1,1.2-2,2.1-2.8c0.9-0.8,2-1.4,3.2-1.9c0.1,0,0.1,0,0.2-0.1
			c-0.5,0.1-0.9,0.3-1.4,0.4c-1.2,0.5-2.3,1.1-3.2,1.9c-0.9,0.8-1.6,1.8-2.1,2.8c-0.5,1.1-0.8,2.3-0.8,3.5c0,1.3,0.2,2.6,0.6,3.9
			c0.5,1.3,1.1,2.5,1.9,3.4c0.8,0.9,1.8,1.6,2.8,2.1c1,0.5,2.2,0.7,3.4,0.7c1.1,0,2.2-0.2,3.4-0.6C38.7,95.5,37.9,95.6,37.2,95.6z"
			/>
		<g>
			<polygon class="st24" points="59.6,77.8 56.6,68.6 61.4,66.9 61.4,66.8 55.4,68.9 57.8,76.3 			"/>
			<polygon class="st24" points="45.3,72.5 50.8,70.6 50.8,70.5 44.1,72.9 50,90.8 51.2,90.4 			"/>
		</g>
		<polygon class="st24" points="52.9,79.1 53.5,81 60.9,87 62,86.6 		"/>
	</g>
</g>
</svg>
