<svg id="Camada_1" data-name="Camada 1" xmlns="http://www.w3.org/2000/svg" xmlns:xlink="http://www.w3.org/1999/xlink" viewBox="0 0 85.42 125.05"><defs><style>.cls-1,.cls-10,.cls-2{fill:none;}.cls-2{clip-rule:evenodd;}.cls-3{fill:#ab7dfa;}.cls-11,.cls-3,.cls-4{fill-rule:evenodd;}.cls-4,.cls-5{fill:#7d59ce;}.cls-6{fill:#6247ad;}.cls-7{fill:#ecc550;}.cls-8{clip-path:url(#clip-path);}.cls-9{clip-path:url(#clip-path-2);}.cls-10{stroke:#c6731c;stroke-miterlimit:10;stroke-width:13.5px;}.cls-11{fill:#c6731c;}.cls-12{clip-path:url(#clip-path-3);}.cls-13{fill:#fff;}.cls-14{clip-path:url(#clip-path-5);}.cls-15{clip-path:url(#clip-path-7);}</style><clipPath id="clip-path"><ellipse class="cls-1" cx="44.71" cy="48.93" rx="34" ry="33.84"/></clipPath><clipPath id="clip-path-2"><rect class="cls-1" x="-1333.29" y="-750.91" width="1840" height="1236"/></clipPath><clipPath id="clip-path-3"><path class="cls-2" d="M69.71,47.09a9.71,9.71,0,0,0,7,6.5,9.74,9.74,0,0,0-7,6.5,9.74,9.74,0,0,0-7-6.5A9.71,9.71,0,0,0,69.71,47.09Z"/></clipPath><clipPath id="clip-path-5"><path class="cls-2" d="M14.21,58.09a10.42,10.42,0,0,0,7.5,7,10.44,10.44,0,0,0-7.5,7,10.44,10.44,0,0,0-7.5-7A10.42,10.42,0,0,0,14.21,58.09Z"/></clipPath><clipPath id="clip-path-7"><path class="cls-2" d="M55.21,8.09a16.19,16.19,0,0,0,11.5,11,16.23,16.23,0,0,0-11.5,11,16.23,16.23,0,0,0-11.5-11A16.19,16.19,0,0,0,55.21,8.09Z"/></clipPath></defs><title>medalha</title><polygon class="cls-3" points="21.04 61.31 66.38 61.31 66.38 116.95 43.71 110.19 21.04 116.95 21.04 61.31"/><polygon class="cls-4" points="35.93 61.31 20.99 61.31 20.99 116.95 35.93 112.5 35.93 61.31"/><polygon class="cls-4" points="51.38 61.31 51.38 112.5 66.32 116.95 66.32 61.31 51.38 61.31"/><path class="cls-5" d="M21,44.53V80.09a33.85,33.85,0,0,0,22.72,8.8A41.35,41.35,0,0,0,66.68,82V44.53Z"/><path class="cls-6" d="M35.93,44.53H21V80.09A34,34,0,0,0,35.93,88Z"/><path class="cls-6" d="M51.38,44.53V88.18c8.6-1.87,10.72-4.26,15.3-7.29V43.47Z"/><ellipse class="cls-7" cx="44.71" cy="48.93" rx="34" ry="33.84"/><g class="cls-8"><g class="cls-9"><ellipse class="cls-10" cx="44.71" cy="48.93" rx="34" ry="33.84"/></g></g><path class="cls-11" d="M47.79,35.24,49,39.06a3.21,3.21,0,0,0,3,2.21h4A3.22,3.22,0,0,1,58,47.09L54.72,49.5a3.24,3.24,0,0,0-1.14,3.62l1.24,3.82a3.21,3.21,0,0,1-4.93,3.61l-3.24-2.41a3.21,3.21,0,0,0-3.74,0L39.67,60.5a3.22,3.22,0,0,1-4.94-3.61L36,53.07a3.3,3.3,0,0,0-1.15-3.62l-3.24-2.36a3.23,3.23,0,0,1,1.89-5.82h4a3.21,3.21,0,0,0,3-2.21l1.25-3.82A3.16,3.16,0,0,1,47.79,35.24Z"/><g class="cls-12"><g class="cls-9"><rect class="cls-13" x="57.71" y="42.09" width="24" height="23"/></g></g><g class="cls-14"><g class="cls-9"><rect class="cls-13" x="1.71" y="53.09" width="25" height="24"/></g></g><g class="cls-15"><g class="cls-9"><rect class="cls-13" x="38.71" y="3.09" width="33" height="32"/></g></g></svg>