<?xml version="1.0" encoding="UTF-8"?>
<svg width="35px" height="51px" viewBox="0 0 35 51" version="1.1" xmlns="http://www.w3.org/2000/svg" xmlns:xlink="http://www.w3.org/1999/xlink">
    <!-- Generator: Sketch 63.1 (92452) - https://sketch.com -->
    <title>Group 13</title>
    <desc>Created with Sketch.</desc>
    <g id="Page-1" stroke="none" stroke-width="1" fill="none" fill-rule="evenodd">
        <g id="Ranking-Primeira-Rodada-Copy-26" transform="translate(-1472.000000, -515.000000)" fill="#27123D">
            <g id="Group-13" transform="translate(1475.000000, 517.921500)">
                <path d="M29.122,30.812 L29.122,21.916 C29.122,20.895 28.291,20.064 27.27,20.064 L23.784,20.064 L23.784,9.413 C23.784,4.223 19.561,-2.27373675e-13 14.371,-2.27373675e-13 C9.18,-2.27373675e-13 4.957,4.223 4.957,9.413 L4.957,10.029 L9.295,10.029 L9.295,9.413 C9.295,6.615 11.572,4.338 14.371,4.338 C17.17,4.338 19.446,6.615 19.446,9.413 L19.446,20.064 L1.851,20.064 C0.831,20.064 -3.41060513e-13,20.895 -3.41060513e-13,21.916 L-3.41060513e-13,30.812 C-3.41060513e-13,38.841 6.532,45.373 14.56,45.373 C22.59,45.373 29.122,38.841 29.122,30.812" id="Fill-78" stroke="#A662F0" stroke-width="5"></path>
                <path d="M29.122,30.812 L29.122,21.916 C29.122,20.895 28.291,20.064 27.27,20.064 L23.784,20.064 L23.784,9.413 C23.784,4.223 19.561,-2.27373675e-13 14.371,-2.27373675e-13 C9.18,-2.27373675e-13 4.957,4.223 4.957,9.413 L4.957,10.029 L9.295,10.029 L9.295,9.413 C9.295,6.615 11.572,4.338 14.371,4.338 C17.17,4.338 19.446,6.615 19.446,9.413 L19.446,20.064 L1.851,20.064 C0.831,20.064 -3.41060513e-13,20.895 -3.41060513e-13,21.916 L-3.41060513e-13,30.812 C-3.41060513e-13,38.841 6.532,45.373 14.56,45.373 C22.59,45.373 29.122,38.841 29.122,30.812" id="Fill-78"></path>
            </g>
        </g>
    </g>
</svg>