<?xml version="1.0" encoding="UTF-8"?>
<svg width="31px" height="45px" viewBox="0 0 31 45" version="1.1" xmlns="http://www.w3.org/2000/svg" xmlns:xlink="http://www.w3.org/1999/xlink">
    <!-- Generator: Sketch 63.1 (92452) - https://sketch.com -->
    <title>Fill 68</title>
    <desc>Created with Sketch.</desc>
    <g id="Page-1" stroke="none" stroke-width="1" fill="none" fill-rule="evenodd">
        <g id="Ranking-Primeira-Rodada-Copy-26" transform="translate(-92.000000, -883.000000)" fill="#27123D" stroke="#A568E7" stroke-width="2">
            <path d="M107.329239,884 C110.048682,884 112.521991,885.119833 114.314771,886.927086 C116.104645,888.73141 117.215099,891.22025 117.215099,893.957596 L117.215099,893.957596 L117.215099,901.226633 L118.893496,901.226633 C119.751788,901.226633 120.52981,901.577096 121.092919,902.144994 C121.652886,902.709721 122,903.489585 122,904.351046 L122,904.351046 L122,912.390563 C122,916.423514 120.377623,920.074736 117.755781,922.71792 C115.131103,925.363963 111.505048,927 107.500448,927 C103.495446,927 99.8692245,925.364004 97.244453,922.718043 C94.6224242,920.074847 93,916.423575 93,912.390563 L93,912.390563 L93,904.351046 C93,903.489351 93.3472825,902.709297 93.9078016,902.144493 C94.4709754,901.577014 95.2491491,901.226633 96.1082965,901.226633 L96.1082965,901.226633 L97.4433784,901.226633 L97.4433784,893.957596 C97.4433784,891.22025 98.5538327,888.73141 100.343706,886.927086 C102.136487,885.119833 104.609796,884 107.329239,884 Z M108,891 C107.181351,891 106.443736,891.368221 105.907734,891.948932 C105.343795,892.55991 105,893.404906 105,894.333649 L105,902 L111,902 L111,894.333649 C111,893.404906 110.656205,892.55991 110.092266,891.948932 C109.556264,891.368221 108.818649,891 108,891 Z" id="Fill-68"></path>
        </g>
    </g>
</svg>