<?xml version="1.0" encoding="UTF-8"?>
<svg width="39px" height="54px" viewBox="0 0 39 54" version="1.1" xmlns="http://www.w3.org/2000/svg" xmlns:xlink="http://www.w3.org/1999/xlink">
    <!-- Generator: Sketch 63.1 (92452) - https://sketch.com -->
    <title>Fill 68</title>
    <desc>Created with Sketch.</desc>
    <g id="Page-1" stroke="none" stroke-width="1" fill="none" fill-rule="evenodd">
        <g id="Ranking-Primeira-Rodada-Copy-26" transform="translate(-1617.000000, -720.000000)" fill="#FFE497" stroke="#27123D" stroke-width="4">
            <path d="M1635.87,722 C1639.14598,722 1642.12552,723.33809 1644.28521,725.497786 C1646.44491,727.657483 1647.783,730.637015 1647.783,733.913 L1647.783,733.913 L1647.783,741.064 L1648.771,741.064 C1649.9716,741.064 1651.05946,741.551076 1651.847,742.338947 C1652.6341,743.126386 1653.121,744.214083 1653.121,745.415 L1653.121,745.415 L1653.121,754.312 C1653.121,759.022782 1651.21137,763.2881 1648.124,766.375677 C1645.03668,769.463203 1640.7717,771.373 1636.061,771.373 C1631.34985,771.373 1627.0847,769.463248 1623.99728,766.375834 C1620.90969,763.288239 1619,759.022858 1619,754.312 L1619,754.312 L1619,745.415 C1619,744.213706 1619.48716,743.125703 1620.27507,742.338126 C1621.06255,741.550981 1622.15039,741.064 1623.352,741.064 L1623.352,741.064 L1623.957,741.064 L1623.957,733.913 C1623.957,730.637015 1625.29509,727.657483 1627.45479,725.497786 C1629.61448,723.33809 1632.59402,722 1635.87,722 Z M1635.87,731.337 C1635.16007,731.337 1634.51691,731.626669 1634.05088,732.092798 C1633.58463,732.559144 1633.295,733.202758 1633.295,733.913 L1633.295,741.064 L1638.445,741.064 L1638.445,733.913 C1638.445,733.202758 1638.15537,732.559144 1637.68912,732.092798 C1637.22309,731.626669 1636.57993,731.337 1635.87,731.337 Z" id="Fill-68"></path>
        </g>
    </g>
</svg>