<?xml version="1.0" encoding="utf-8"?>
<!-- Generator: Adobe Illustrator 24.2.0, SVG Export Plug-In . SVG Version: 6.00 Build 0)  -->
<svg version="1.1" id="Camada_1" xmlns="http://www.w3.org/2000/svg" xmlns:xlink="http://www.w3.org/1999/xlink" x="0px" y="0px"
	 viewBox="0 0 36.3 53" style="enable-background:new 0 0 36.3 53;" xml:space="preserve">
<style type="text/css">
	.st0{fill:#27123D;}
	.st1{fill-rule:evenodd;clip-rule:evenodd;fill:#FFFAE3;}
</style>
<path class="st0" d="M30.8,21h-0.2v-7c0-6.7-5-12.4-11.4-13c-3.6-0.3-7.1,0.8-9.7,3.2C6.8,6.6,5.2,10,5.2,13.6v2.3
	c0,0.8,0.7,1.5,1.5,1.5h7.8c0.8,0,1.5-0.7,1.5-1.5v-2.2c0-1,0.7-1.8,1.6-1.9c0.5-0.1,1,0.1,1.4,0.5c0.4,0.3,0.6,0.8,0.6,1.4V21H5.4
	c-2.8,0-5.1,2.3-5.1,5.1v8.4c0,4.9,2,9.7,5.6,13.2c3.4,3.3,7.7,5.1,12.3,5.1c0.1,0,0.2,0,0.3,0c9.7-0.2,17.5-8.2,17.5-17.8v-8.9
	C35.9,23.3,33.6,21,30.8,21z"/>
<path id="Fill-78_1_" class="st1" d="M32.7,35v-8.9c0-1-0.8-1.9-1.9-1.9h-3.5V13.6c0-5.2-4.2-9.4-9.4-9.4c-5.2,0-9.4,4.2-9.4,9.4
	v0.6h4.3v-0.6c0-2.8,2.3-5.1,5.1-5.1s5.1,2.3,5.1,5.1v10.7H5.4c-1,0-1.9,0.8-1.9,1.9V35c0,8,6.5,14.6,14.6,14.6
	C26.1,49.5,32.7,43,32.7,35"/>
</svg>
