<?xml version="1.0" encoding="UTF-8"?>
<svg width="527px" height="169px" viewBox="0 0 527 169" version="1.1" xmlns="http://www.w3.org/2000/svg" xmlns:xlink="http://www.w3.org/1999/xlink">
    <!-- Generator: Sketch 62 (91390) - https://sketch.com -->
    <title>Group 10</title>
    <desc>Created with Sketch.</desc>
    <g id="Page-1" stroke="none" stroke-width="1" fill="none" fill-rule="evenodd">
        <g id="Group-10" stroke-width="2">
            <path d="M501,131 L526,131 L526,168 L511,168 C505.477153,168 501,163.522847 501,158 L501,131 L501,131 Z" id="Rectangle-Copy-3" stroke="#24E6FD" fill="#3F7A9B" transform="translate(513.500000, 149.500000) scale(-1, 1) translate(-513.500000, -149.500000) "></path>
            <path d="M510.582132,167.991566 L11.9874947,167.424742 C8.95237209,167.421292 6.2054984,166.188856 4.21740538,164.198501 C2.22931236,162.208147 1,159.459874 1,156.424749 L1,12.4264706 C1,9.2814742 2.41594684,6.43979915 4.68868086,4.38070926 C6.9989218,2.28763823 10.1923258,1 13.7157988,1 L494.683142,1 C498.158631,1 501.312889,2.25279896 503.615351,4.2956175 C505.882928,6.30748448 507.322733,9.0884931 507.395999,12.1780798 L507.398941,158.230392 C507.398941,162.533871 508.097021,165.078856 509.264278,166.674486 C509.650407,167.202322 510.089939,167.634081 510.582132,167.991566 Z" id="Path-Copy" stroke="#86FFF7" fill="#22D4E9"></path>
        </g>
    </g>
</svg>