<?xml version="1.0" encoding="utf-8"?>
<!-- Generator: Adobe Illustrator 23.0.2, SVG Export Plug-In . SVG Version: 6.00 Build 0)  -->
<svg version="1.1" id="Camada_1" xmlns="http://www.w3.org/2000/svg" xmlns:xlink="http://www.w3.org/1999/xlink" x="0px" y="0px"
	 viewBox="0 0 2580 2580" style="enable-background:new 0 0 2580 2580;" xml:space="preserve">
<style type="text/css">
	.st0{opacity:0.25;fill:#6F4DB2;enable-background:new    ;}
	.st1{enable-background:new    ;}
	.st2{opacity:0.5;fill:#7C51CE;}
</style>
<polygon class="st0" points="1170.2,47.7 1409.8,47.7 1294.9,1290 "/>
<polygon class="st0" points="1170.2,2532.4 1409.8,2532.4 1294.9,1290 "/>
<polygon class="st0" points="2532.4,1170.2 2532.4,1409.8 1290,1294.9 "/>
<polygon class="st0" points="47.7,1170.2 47.7,1409.8 1290,1294.9 "/>
<polygon class="st0" points="2083.7,326.8 2253.2,496.3 1293.5,1293.5 "/>
<polygon class="st0" points="326.8,2083.7 496.3,2253.2 1293.5,1293.5 "/>
<polygon class="st0" points="2253.2,2083.7 2083.7,2253.2 1286.5,1293.5 "/>
<polygon class="st0" points="496.3,326.8 326.8,496.3 1286.5,1293.5 "/>
<g class="st1">
	<polygon class="st0" points="1667.5,100.3 1887.9,194.4 1294.6,1291.9 	"/>
	<polygon class="st0" points="692.1,2385.6 912.5,2479.7 1294.6,1291.9 	"/>
</g>
<polygon class="st0" points="2479.7,1667.5 2385.6,1887.9 1288.1,1294.6 "/>
<polygon class="st0" points="194.4,692.1 100.3,912.5 1288.1,1294.6 "/>
<polygon class="st0" points="2398.1,715.7 2487.5,938.1 1291.8,1294.6 "/>
<polygon class="st0" points="92.5,1641.9 181.9,1864.3 1291.8,1294.6 "/>
<polygon class="st0" points="1864.3,2398.1 1641.9,2487.5 1285.4,1291.8 "/>
<polygon class="st0" points="938.1,92.5 715.7,181.9 1285.4,1291.8 "/>
<polygon class="st2" points="1496.5,226.8 1291.8,1294.6 1294.6,1294.6 "/>
<polygon class="st2" points="1087.7,226.8 1292.4,1294.6 1289.6,1294.6 "/>
<polygon class="st2" points="695,386.2 1292.4,1294.6 1289.8,1295.6 "/>
<polygon class="st2" points="392.9,683.8 1292.4,1294.6 1290.4,1296.5 "/>
<polygon class="st2" points="227.6,1075 1292.4,1294.6 1291.3,1297.1 "/>
<polygon class="st2" points="222.3,1486.6 1292.4,1294.6 1292.3,1297.3 "/>
<polygon class="st2" points="380.7,1886.9 1292.4,1294.6 1293.4,1297.1 "/>
<polygon class="st2" points="674.8,2189.3 1292.4,1294.6 1294.3,1296.6 "/>
<polygon class="st2" points="1068.5,2358.5 1292.4,1294.6 1294.9,1295.7 "/>
<polygon class="st2" points="1088.2,229.6 1292.8,1297.3 1290.1,1297.3 "/>
<polygon class="st2" points="1497,229.6 1292.3,1297.3 1295.1,1297.3 "/>
<polygon class="st2" points="1889.7,388.9 1292.3,1297.3 1294.9,1298.4 "/>
<polygon class="st2" points="2191.7,686.6 1292.3,1297.3 1294.3,1299.3 "/>
<polygon class="st2" points="2357.1,1077.8 1292.3,1297.3 1293.4,1299.9 "/>
<polygon class="st2" points="2360.8,1498.1 1292.3,1297.3 1292.3,1300.1 "/>
<polygon class="st2" points="2196.1,1901.7 1292.3,1297.3 1291.3,1299.9 "/>
<polygon class="st2" points="1890.1,2205.5 1292.3,1297.3 1290.4,1299.2 "/>
<polygon class="st2" points="1491.5,2366.1 1292.3,1297.3 1289.8,1298.3 "/>
</svg>
