<?xml version="1.0" encoding="utf-8"?>
<!-- Generator: Adobe Illustrator 23.0.3, SVG Export Plug-In . SVG Version: 6.00 Build 0)  -->
<svg version="1.1" id="Camada_1" xmlns="http://www.w3.org/2000/svg" xmlns:xlink="http://www.w3.org/1999/xlink" x="0px" y="0px"
	 viewBox="0 0 208.8 165.1" style="enable-background:new 0 0 208.8 165.1;" xml:space="preserve">
<style type="text/css">
	.st0{fill:#DBC0FD;}
	.st1{fill-rule:evenodd;clip-rule:evenodd;fill:#280E49;}
	.st2{fill-rule:evenodd;clip-rule:evenodd;fill:#A765FF;}
	.st3{fill-rule:evenodd;clip-rule:evenodd;fill:#CCB3F4;}
	.st4{fill-rule:evenodd;clip-rule:evenodd;fill:#702EE0;}
</style>
<title>premio_esquerda</title>
<g>
	<g>
		<path class="st0" d="M0.8,131.9L1.9,27.6C2,22.1,3.7,16.8,7,12.4c2.6-4,6.4-7,10.9-8.6c3.2-1.4,6.6-2.1,10.1-2h141.4
			c13.2,0,24.3,9.8,25.9,22.9l12.6,103.7c0.2,1.2,0.2,2.5,0.3,3.8c0,17.2-14,31.1-31.2,31.1H31.6C14.4,163.1,0.6,149,0.8,131.9z"/>
		<path class="st1" d="M4.7,131.9c-0.2,15,11.9,27.3,26.9,27.4h145.4c15,0,27.1-12.2,27.2-27.1c0-1.1-0.1-2.2-0.2-3.3L191.3,25.2
			c-1.3-11.1-10.7-19.4-21.9-19.4H27.9c-3,0-5.9,0.6-8.7,1.8c-3.7,1.3-6.9,3.9-9,7.2C7.5,18.5,5.9,23,5.9,27.6L4.7,131.9z"/>
		<path class="st2" d="M34.9,151.4c-12.7,0-23.1-10.3-23.1-23.1V28.1c0,0,0,0,0,0c0-9.6,7.8-16.3,17.3-16.3h138.5
			c9,0,16.5,5.7,17.6,14.6l12.1,99.1c0.1,0.9,0.2,1.9,0.2,2.8c0,12.7-10.3,23.1-23.1,23.1H34.9C34.9,151.4,34.9,151.4,34.9,151.4z"
			/>
		<path class="st3" d="M184.9,24.1c-2.5-8.3-9.5-12.3-17.2-12.3H29.1c-9.6,0-17.3,7.8-17.3,17.3v2.8c0.7-9.1,8.3-16.1,17.5-16h140.1
			C175.5,15.8,181.6,19,184.9,24.1z"/>
	</g>
	<path class="st4" d="M34.9,145.3h139.6c0.9,0,1.9-0.1,2.8-0.2c10.7-1.3,18.7-9.7,20.1-19.9l0,0.2c1.6,12.7-7.4,24.2-20.1,25.7
		c-0.9,0.1-1.9,0.2-2.8,0.2H34.9c-12.7,0-23.1-10.3-23.1-23.1v0v-6C11.8,135,22.2,145.4,34.9,145.3z"/>
</g>
</svg>
