<?xml version="1.0" encoding="utf-8"?>
<!-- Generator: Adobe Illustrator 23.0.3, SVG Export Plug-In . SVG Version: 6.00 Build 0)  -->
<svg version="1.1" id="Camada_1" xmlns="http://www.w3.org/2000/svg" xmlns:xlink="http://www.w3.org/1999/xlink" x="0px" y="0px"
	 viewBox="0 0 208.8 165.1" style="enable-background:new 0 0 208.8 165.1;" xml:space="preserve">
<style type="text/css">
	.st0{fill:#DBC0FD;}
	.st1{fill-rule:evenodd;clip-rule:evenodd;fill:#280E49;}
	.st2{fill-rule:evenodd;clip-rule:evenodd;fill:#B58FFF;}
	.st3{fill-rule:evenodd;clip-rule:evenodd;fill:#7F5AE2;}
	.st4{fill-rule:evenodd;clip-rule:evenodd;fill:#E7D7FF;}
</style>
<title>premio_esquerda</title>
<g>
	<path class="st0" d="M206.9,128.4c0.2,1.3,0.2,2.5,0.2,3.8c0,17.2-14,31.1-31.2,31.1H30.6c-17.2-0.2-31-14.3-30.8-31.5L0.9,27.6
		C0.9,22.1,2.7,16.8,6,12.4c2.6-4,6.4-7,10.9-8.6C20,2.5,23.5,1.8,27,1.8l141.4,0c13.2,0,24.3,9.8,25.9,22.9L206.9,128.4z"/>
	<path class="st1" d="M3.7,131.9c-0.2,15,11.8,27.3,26.8,27.4h145.4c15,0,27.1-12.2,27.1-27.1c0-1.1-0.1-2.2-0.2-3.3L190.3,25.2
		c-1.3-11.1-10.7-19.4-21.9-19.4H26.9c-3,0-5.9,0.6-8.7,1.8c-3.7,1.3-6.9,3.9-9,7.2C6.5,18.5,4.9,23,4.9,27.6L3.7,131.9z"/>
	<path class="st2" d="M10.9,128.3V28.1c0-9.6,7.7-19.3,17.3-19.3h138.5c9,0,16.5,6.7,17.6,15.6l12.1,101.1c0.1,0.9,0.2,1.9,0.2,2.8
		c0,12.7-10.3,23.1-23.1,23.1H33.9C21.2,151.4,10.9,141,10.9,128.3z"/>
	<path class="st3" d="M10.9,114.1v14.2c0,12.7,10.3,23.1,23.1,23.1h139.6c0.9,0,1.9-0.1,2.8-0.2c12.6-1.6,21.6-13.1,20.1-25.7
		l-0.6-5.3c-2.7,10-11.8,17-22.2,17H33.9C21.2,137.1,10.9,126.8,10.9,114.1z"/>
	<path class="st4" d="M183.5,21c-2.4-7.3-9.2-12.2-16.8-12.2H28.2c-9.6,0-17.3,7.8-17.3,17.3v2.8c0.7-9.1,8.3-16,17.4-16h140.1
		C174.5,12.8,180.2,15.9,183.5,21z"/>
</g>
</svg>
