<?xml version="1.0" encoding="utf-8"?>
<!-- Generator: Adobe Illustrator 23.0.3, SVG Export Plug-In . SVG Version: 6.00 Build 0)  -->
<svg version="1.1" id="Camada_1" xmlns="http://www.w3.org/2000/svg" xmlns:xlink="http://www.w3.org/1999/xlink" x="0px" y="0px"
	 viewBox="0 0 208.8 165.1" style="enable-background:new 0 0 208.8 165.1;" xml:space="preserve">
<style type="text/css">
	.st0{fill:#DBC0FD;}
	.st1{fill-rule:evenodd;clip-rule:evenodd;fill:#280E49;}
	.st2{fill-rule:evenodd;clip-rule:evenodd;fill:#C2A1FB;}
	.st3{fill-rule:evenodd;clip-rule:evenodd;fill:#7B52E7;}
	.st4{fill-rule:evenodd;clip-rule:evenodd;fill:#E2D2FC;}
</style>
<title>premio_direita</title>
<g>
	<path class="st0" d="M13.6,24.6C15.2,11.5,26.3,1.7,39.4,1.7h141.4c3.5,0,6.9,0.7,10.1,2.1c4.5,1.6,8.3,4.6,10.9,8.6
		c3.2,4.4,5,9.7,5.1,15.1l1.1,104.3c0.2,17.2-13.6,31.3-30.8,31.5H31.9c-17.2,0-31.1-13.9-31.2-31.1c0-1.3,0.1-2.5,0.2-3.8
		L13.6,24.6z"/>
	<path class="st1" d="M202.9,27.5c0-4.6-1.6-9.1-4.3-12.9c-2.1-3.3-5.3-5.9-9-7.2c-2.7-1.2-5.7-1.8-8.7-1.8H39.4
		c-11.2,0-20.5,8.3-21.9,19.4L4.9,128.8c-0.1,1.1-0.2,2.2-0.2,3.3c0,15,12.2,27.1,27.1,27.1h145.4c15-0.2,27-12.5,26.8-27.4
		L202.9,27.5z"/>
	<path class="st2" d="M173.9,151.3H34.3c-12.7,0-23.1-10.3-23.1-23.1c0-0.9,0.1-1.9,0.2-2.8L23.6,24.3c1.1-8.9,8.6-15.6,17.6-15.6
		h138.5c9.6,0,17.3,9.8,17.3,19.3v100.2C197,140.9,186.6,151.3,173.9,151.3z"/>
	<path class="st3" d="M173.9,137.1H34.3c-10.4,0-19.5-7-22.2-17l-0.6,5.3c-1.6,12.6,7.4,24.2,20.1,25.7c0.9,0.1,1.9,0.2,2.8,0.2H174
		c12.7,0,23.1-10.3,23.1-23.1v-14.2C197,126.8,186.6,137.1,173.9,137.1z"/>
	<path class="st4" d="M39.4,12.8h140.1c9.1,0,16.7,6.9,17.4,16V26c0-9.6-7.7-17.3-17.3-17.3H41.2c-7.7,0-14.5,4.9-16.8,12.2
		C27.6,15.8,33.3,12.7,39.4,12.8z"/>
</g>
</svg>
