<?xml version="1.0" encoding="utf-8"?>
<!-- Generator: Adobe Illustrator 23.0.3, SVG Export Plug-In . SVG Version: 6.00 Build 0)  -->
<svg version="1.1" id="Camada_1" xmlns="http://www.w3.org/2000/svg" xmlns:xlink="http://www.w3.org/1999/xlink" x="0px" y="0px"
	 viewBox="0 0 208.8 165.1" style="enable-background:new 0 0 208.8 165.1;" xml:space="preserve">
<style type="text/css">
	.st0{fill:#DBC0FD;}
	.st1{fill-rule:evenodd;clip-rule:evenodd;fill:#280E49;}
	.st2{fill-rule:evenodd;clip-rule:evenodd;fill:#C2A1FB;}
	.st3{fill-rule:evenodd;clip-rule:evenodd;fill:#7B52E7;}
	.st4{fill-rule:evenodd;clip-rule:evenodd;fill:#E2D2FC;}
</style>
<title>premio_esquerda</title>
<g>
	<path class="st0" d="M207.9,128.4c0.1,1.3,0.2,2.5,0.2,3.8c-0.1,17.2-14,31.1-31.2,31.1H31.6c-17.2-0.2-31-14.3-30.8-31.5L1.9,27.5
		C2,22.1,3.8,16.8,7,12.4c2.6-4,6.4-7,10.9-8.6c3.2-1.4,6.6-2.1,10.1-2.1h141.4c13.1,0,24.2,9.8,25.8,22.9L207.9,128.4z"/>
	<path class="st1" d="M4.8,131.9c-0.2,14.9,11.8,27.2,26.8,27.4H177c14.9,0,27.1-12.1,27.1-27.1c0-1.1-0.1-2.2-0.2-3.3L191.3,25
		c-1.4-11.1-10.7-19.4-21.9-19.4H27.9c-3,0-6,0.6-8.7,1.8c-3.7,1.3-6.9,3.9-9,7.2c-2.7,3.8-4.3,8.3-4.3,12.9L4.8,131.9z"/>
	<path class="st2" d="M11.8,128.2V28c0-9.5,7.7-19.3,17.3-19.3h138.5c9,0,16.5,6.7,17.6,15.6l12.2,101.1c0.1,0.9,0.2,1.9,0.2,2.8
		c0,12.8-10.4,23.1-23.1,23.1H34.9C22.2,151.3,11.8,140.9,11.8,128.2z"/>
	<path class="st3" d="M11.7,113.9v14.2c0,12.8,10.4,23.1,23.1,23.1h139.6c0.9,0,1.9-0.1,2.8-0.2c12.7-1.5,21.7-13.1,20.1-25.7
		l-0.6-5.3c-2.7,10-11.8,17-22.2,17H34.9C22.2,137.1,11.8,126.8,11.7,113.9z"/>
	<path class="st4" d="M184.4,20.9c-2.3-7.3-9.1-12.2-16.8-12.2H29.2c-9.6,0-17.3,7.7-17.3,17.3v2.8c0.7-9.1,8.3-16,17.4-16h140.1
		C175.5,12.7,181.2,15.8,184.4,20.9z"/>
</g>
</svg>
