<?xml version="1.0" encoding="utf-8"?>
<!-- Generator: Adobe Illustrator 24.0.1, SVG Export Plug-In . SVG Version: 6.00 Build 0)  -->
<svg version="1.1" id="Camada_1" xmlns="http://www.w3.org/2000/svg" xmlns:xlink="http://www.w3.org/1999/xlink" x="0px" y="0px"
	 viewBox="0 0 882 747" style="enable-background:new 0 0 882 747;" xml:space="preserve">
<style type="text/css">
	.st0{opacity:0.43;fill:#38165A;enable-background:new    ;}
	.st1{fill-rule:evenodd;clip-rule:evenodd;fill:#7838D0;}
	.st2{fill-rule:evenodd;clip-rule:evenodd;fill:#AB7DFA;}
	.st3{fill-rule:evenodd;clip-rule:evenodd;fill:#E7CFFA;}
	.st4{fill-rule:evenodd;clip-rule:evenodd;fill:#190C2B;}
	.st5{fill-rule:evenodd;clip-rule:evenodd;fill:#38165A;}
	.st6{fill:none;stroke:#CEB5FB;stroke-width:3;}
</style>
<g id="Camada_1_1_">
	<path class="st0" d="M879.3,150c0-11-9-20-20-20H21.9c-11,0-20,9-20,20l0.2,574c0,11,9,20,20,20h838c11,0,20-9,20-20L879.3,150z"/>
	<g id="Combined-Shape-Copy-23_2_">
		<path class="st1" d="M21.9,127h837.4c10.5,0,19,8.5,19,19l0.8,574c0,10.5-8.5,19-19,19l0,0h-838c-10.5,0-19-8.5-19-19l0,0L2.9,146
			C2.9,135.5,11.4,127,21.9,127z"/>
	</g>
	<g>
		<path id="Combined-Shape-Copy-13_1_" class="st2" d="M296.6,3h562.5c10.5,0,19,8.5,19,19l0,0l-0.2,177c0,10.5-8.5,19-19,19H272.1
			c-10.5,0-19-8.5-19-19c0-0.9,0.1-1.7,0.2-2.6l24.5-177C279.1,10,287.1,3,296.6,3z"/>
		<path id="Combined-Shape_2_" class="st3" d="M425.6,45.5v-10c0-8.8,5.5-16,12.3-16h403.5c6.8,0,12.3,7.2,12.3,16v10
			c0-8.8-5.5-16-12.3-16H438C431.2,29.5,425.6,36.7,425.6,45.5z"/>
		<g id="Group-12-Copy-9_1_" transform="translate(223.000000, 20.000000)">
			<g id="Group-11_1_" transform="translate(0.000000, -0.468750)">
				<path id="Combined-Shape_1_" class="st1" d="M202.6,29V19c0-8.8,5.5-16,12.3-16h403.5c6.8,0,12.3,7.2,12.3,16v10
					c0-8.8-5.5-16-12.3-16H215C208.2,13,202.6,20.2,202.6,29z"/>
				<path class="st4" d="M202.6,34v-7c0-8.8,5.5-16,12.3-16h403.5c6.8,0,12.3,7.2,12.3,16v7c0-8.8-5.5-16-12.3-16H215
					C208.2,18,202.6,25.2,202.6,34z"/>
			</g>
		</g>
		<path id="Combined-Shape-Copy-23_1_" class="st2" d="M21.9,119h837.4c10.5,0,19,8.5,19,19l0.8,574c0,10.5-8.5,19-19,19l0,0h-838
			c-10.5,0-19-8.5-19-19l0,0L2.9,138C2.9,127.5,11.4,119,21.9,119z"/>
		<path id="Combined-Shape-Copy-26_1_" class="st3" d="M21.1,168.7V155c0-8.8,7.2-16,16-16h800.8c8.8,0,16,7.2,16,16v13.7
			c0-8.8-7.2-16-16-16H37.1C28.3,152.7,21.1,159.9,21.1,168.7z"/>
		<g id="Group-12-Copy-11_1_" transform="translate(19.000000, 139.000000)">
			<g>
				<path class="st1" d="M2.1,32.9V19c0-8.8,8.2-16,17-16h800c8.8,0,16,7.2,16,16v13.9c0-8.8-7.2-16-16-16h-800
					C10.3,16.9,2.1,24,2.1,32.9z"/>
				<path class="st4" d="M2.1,39.8v-9.7c0-8.8,8.2-16,17-16h800c8.8,0,16,7.2,16,16v9.7c0-8.8-7.2-16-16-16h-800
					C10.3,23.8,2.1,31,2.1,39.8z"/>
			</g>
		</g>
		<path id="Combined-Shape-Copy-28_1_" class="st5" d="M437.2,37h404.2c6.8,0,12.3,7.2,12.3,16v47c0,8.8-5.5,16-12.3,16H437.2
			c-6.8,0-11.3-7.2-11.3-16V53C425.9,44.2,430.4,37,437.2,37z"/>
		<path id="Combined-Shape-Copy-29_1_" class="st5" d="M37.1,162h801c8.8,0,16,7.2,16,16v516c0,8.8-7.2,16-16,16h-800
			c-8.8,0-16-7.2-16-16l-1-516C21.1,169.2,28.3,162,37.1,162z"/>
		<path class="st6" d="M879.1,712c0,10.5-8.5,19-19,19l0,0h-838c-10.5,0-19-8.5-19-19l0,0L2.9,138c0-10.5,8.5-19,19-19H264
			l13.8-99.6C279.1,10,287.1,3,296.6,3h562.5c10.5,0,19,8.5,19,19l0,0L879.1,712z"/>
	</g>
</g>
</svg>
