<?xml version="1.0" encoding="utf-8"?>
<!-- Generator: Adobe Illustrator 24.0.1, SVG Export Plug-In . SVG Version: 6.00 Build 0)  -->
<svg version="1.1" id="Camada_1" xmlns="http://www.w3.org/2000/svg" xmlns:xlink="http://www.w3.org/1999/xlink" x="0px" y="0px"
	 viewBox="0 0 882 747" style="enable-background:new 0 0 882 747;" xml:space="preserve">
<style type="text/css">
	.st0{opacity:0.43;fill:#38165A;enable-background:new    ;}
	.st1{fill-rule:evenodd;clip-rule:evenodd;fill:#7838D0;}
	.st2{fill-rule:evenodd;clip-rule:evenodd;fill:#AB7DFA;}
	.st3{fill-rule:evenodd;clip-rule:evenodd;fill:#E7CFFA;}
	.st4{fill-rule:evenodd;clip-rule:evenodd;fill:#190C2B;}
	.st5{fill-rule:evenodd;clip-rule:evenodd;fill:#38165A;}
	.st6{fill:none;stroke:#CEB5FB;stroke-width:3;}
	.st7{display:none;opacity:0.19;}
	.st8{display:inline;}
	.st9{clip-path:url(#SVGID_2_);}
	.st10{clip-path:url(#SVGID_4_);fill:#D7B3FF;}
	.st11{clip-path:url(#SVGID_6_);fill:none;stroke:#FEFEFF;stroke-width:3;stroke-miterlimit:10;}
	.st12{clip-path:url(#SVGID_8_);}
	.st13{clip-path:url(#SVGID_10_);fill:#D7B3FF;}
	.st14{clip-path:url(#SVGID_12_);fill:none;stroke:#FEFEFF;stroke-width:3;stroke-miterlimit:10;}
	.st15{clip-path:url(#SVGID_14_);}
	.st16{clip-path:url(#SVGID_16_);fill:#E7CFFA;}
	.st17{clip-path:url(#SVGID_18_);}
	.st18{clip-path:url(#SVGID_20_);fill:#7838D0;}
	.st19{clip-path:url(#SVGID_22_);}
	.st20{clip-path:url(#SVGID_24_);fill:#190C2B;}
	.st21{clip-path:url(#SVGID_26_);}
	.st22{clip-path:url(#SVGID_28_);fill:#D7B3FF;}
	.st23{clip-path:url(#SVGID_30_);}
	.st24{clip-path:url(#SVGID_32_);fill:#38165A;}
	.st25{clip-path:url(#SVGID_34_);}
	.st26{clip-path:url(#SVGID_36_);fill:#7838D0;}
	.st27{clip-path:url(#SVGID_38_);}
	.st28{clip-path:url(#SVGID_40_);fill:#190C2B;}
	.st29{clip-path:url(#SVGID_42_);}
	.st30{clip-path:url(#SVGID_44_);fill:#38165A;}
</style>
<g id="Camada_1_1_">
	<path class="st0" d="M1.9,724c0,11,9,20,20,20h838c11,0,20-9,20-20l0.2-574c0-11-9-20-20-20H22.7c-11,0-20,9-20,20L1.9,724z"/>
	<g id="Combined-Shape-Copy-23_2_">
		<path class="st1" d="M879.1,146l-0.2,574l0,0c0,10.5-8.5,19-19,19h-838l0,0c-10.5,0-19-8.5-19-19l0.8-574c0-10.5,8.5-19,19-19
			h837.4C870.6,127,879.1,135.5,879.1,146z"/>
	</g>
	<g>
		<path id="Combined-Shape-Copy-13_1_" class="st2" d="M604.2,19.4l24.5,177c0.1,0.9,0.2,1.7,0.2,2.6c0,10.5-8.5,19-19,19H23.1
			c-10.5,0-19-8.5-19-19L3.9,22l0,0c0-10.5,8.5-19,19-19h562.5C594.9,3,602.9,10,604.2,19.4z"/>
		<path id="Combined-Shape_2_" class="st3" d="M444,29.5H40.6c-6.8,0-12.3,7.2-12.3,16v-10c0-8.8,5.5-16,12.3-16h403.5
			c6.8,0,12.3,7.2,12.3,16v10C456.4,36.7,450.8,29.5,444,29.5z"/>
		<g id="Group-12-Copy-9_1_" transform="translate(223.000000, 20.000000)">
			<g id="Group-11_1_" transform="translate(0.000000, -0.468750)">
				<path id="Combined-Shape_1_" class="st1" d="M221,13h-403.4c-6.8,0-12.3,7.2-12.3,16V19c0-8.8,5.5-16,12.3-16h403.5
					c6.8,0,12.3,7.2,12.3,16v10C233.4,20.2,227.8,13,221,13z"/>
				<path class="st4" d="M221,18h-403.4c-6.8,0-12.3,7.2-12.3,16v-7c0-8.8,5.5-16,12.3-16h403.5c6.8,0,12.3,7.2,12.3,16v7
					C233.4,25.2,227.8,18,221,18z"/>
			</g>
		</g>
		<path id="Combined-Shape-Copy-23_1_" class="st2" d="M879.1,138l-0.2,574l0,0c0,10.5-8.5,19-19,19h-838l0,0c-10.5,0-19-8.5-19-19
			l0.8-574c0-10.5,8.5-19,19-19h837.4C870.6,119,879.1,127.5,879.1,138z"/>
		<path id="Combined-Shape-Copy-26_1_" class="st3" d="M844.9,152.7H44.1c-8.8,0-16,7.2-16,16V155c0-8.8,7.2-16,16-16h800.8
			c8.8,0,16,7.2,16,16v13.7C860.9,159.9,853.7,152.7,844.9,152.7z"/>
		<g id="Group-12-Copy-11_1_" transform="translate(19.000000, 139.000000)">
			<g>
				<path class="st1" d="M824.9,16.9h-800c-8.8,0-16,7.2-16,16V19c0-8.8,7.2-16,16-16h800c8.8,0,17,7.2,17,16v13.9
					C841.9,24,833.7,16.9,824.9,16.9z"/>
				<path class="st4" d="M824.9,23.8h-800c-8.8,0-16,7.2-16,16v-9.7c0-8.8,7.2-16,16-16h800c8.8,0,17,7.2,17,16v9.7
					C841.9,31,833.7,23.8,824.9,23.8z"/>
			</g>
		</g>
		<path id="Combined-Shape-Copy-28_1_" class="st5" d="M456.1,53v47c0,8.8-4.5,16-11.3,16H40.6c-6.8,0-12.3-7.2-12.3-16V53
			c0-8.8,5.5-16,12.3-16h404.2C451.6,37,456.1,44.2,456.1,53z"/>
		<path id="Combined-Shape-Copy-29_1_" class="st5" d="M860.9,178l-1,516c0,8.8-7.2,16-16,16h-800c-8.8,0-16-7.2-16-16V178
			c0-8.8,7.2-16,16-16h801C853.7,162,860.9,169.2,860.9,178z"/>
		<path class="st6" d="M3.9,22L3.9,22c0-10.5,8.5-19,19-19h562.5c9.5,0,17.5,7,18.8,16.4L618,119h242.1c10.5,0,19,8.5,19,19
			l-0.2,574l0,0c0,10.5-8.5,19-19,19h-838l0,0c-10.5,0-19-8.5-19-19L3.9,22z"/>
	</g>
</g>
<g id="Camada_2_1_" class="st7">
	<g class="st8">
		<g>
			<defs>
				<path id="SVGID_1_" d="M298.5,4H861c10.5,0,19,8.5,19,19l0,0l-0.2,177c0,10.5-8.5,19-19,19H274c-10.5,0-19-8.5-19-19
					c0-0.9,0.1-1.7,0.2-2.6l24.5-177C281,11,289.1,4,298.5,4z"/>
			</defs>
			<clipPath id="SVGID_2_">
				<use xlink:href="#SVGID_1_"  style="overflow:visible;"/>
			</clipPath>
			<g class="st9">
				<g>
					<defs>
						<rect id="SVGID_3_" x="-1098" y="-244" width="2116" height="1190"/>
					</defs>
					<clipPath id="SVGID_4_">
						<use xlink:href="#SVGID_3_"  style="overflow:visible;"/>
					</clipPath>
					<rect x="250" y="-1" class="st10" width="635" height="225"/>
				</g>
			</g>
		</g>
	</g>
	<g class="st8">
		<g>
			<defs>
				<rect id="SVGID_5_" x="-1098" y="-244" width="2116" height="1190"/>
			</defs>
			<clipPath id="SVGID_6_">
				<use xlink:href="#SVGID_5_"  style="overflow:visible;"/>
			</clipPath>
			<path class="st11" d="M298.5,4H861c10.5,0,19,8.5,19,19l0,0l-0.2,177c0,10.5-8.5,19-19,19H274c-10.5,0-19-8.5-19-19
				c0-0.9,0.1-1.7,0.2-2.6l24.5-177C281,11,289.1,4,298.5,4z"/>
		</g>
	</g>
	<g class="st8">
		<g>
			<defs>
				<path id="SVGID_7_" d="M23.9,119h836.3c10.5,0,19,8.5,19,19l0.9,574c0,10.5-8.5,19-19,19l0,0H23c-10.5,0-19-8.5-19-19l0,0
					l0.9-574C4.9,127.5,13.4,119,23.9,119z"/>
			</defs>
			<clipPath id="SVGID_8_">
				<use xlink:href="#SVGID_7_"  style="overflow:visible;"/>
			</clipPath>
			<g class="st12">
				<g>
					<defs>
						<rect id="SVGID_9_" x="-1098" y="-244" width="2116" height="1190"/>
					</defs>
					<clipPath id="SVGID_10_">
						<use xlink:href="#SVGID_9_"  style="overflow:visible;"/>
					</clipPath>
					<rect x="-1" y="114" class="st13" width="886" height="622"/>
				</g>
			</g>
		</g>
	</g>
	<g class="st8">
		<g>
			<defs>
				<rect id="SVGID_11_" x="-1098" y="-244" width="2116" height="1190"/>
			</defs>
			<clipPath id="SVGID_12_">
				<use xlink:href="#SVGID_11_"  style="overflow:visible;"/>
			</clipPath>
			<path class="st14" d="M23.9,119h836.3c10.5,0,19,8.5,19,19l0.9,574c0,10.5-8.5,19-19,19l0,0H23c-10.5,0-19-8.5-19-19l0,0l0.9-574
				C4.9,127.5,13.4,119,23.9,119z"/>
		</g>
	</g>
	<g class="st8">
		<g>
			<defs>
				<path id="SVGID_13_" d="M856,167c0-8.8-7.2-16-16-16H46c-8.8,0-16,7.2-16,16v-13c0-8.8,7.2-16,16-16h794c8.8,0,16,7.2,16,16V167
					z"/>
			</defs>
			<clipPath id="SVGID_14_">
				<use xlink:href="#SVGID_13_"  style="overflow:visible;"/>
			</clipPath>
			<g class="st15">
				<g>
					<defs>
						<rect id="SVGID_15_" x="-1098" y="-244" width="2116" height="1190"/>
					</defs>
					<clipPath id="SVGID_16_">
						<use xlink:href="#SVGID_15_"  style="overflow:visible;"/>
					</clipPath>
					<rect x="25" y="133" class="st16" width="836" height="39"/>
				</g>
			</g>
		</g>
	</g>
	<g class="st8">
		<g>
			<defs>
				<path id="SVGID_17_" d="M855,171.9c0-8.8-7.2-16-16-16H46c-8.8,0-16,7.2-16,16V158c0-8.8,7.2-16,16-16h793c8.8,0,16,7.2,16,16
					V171.9z"/>
			</defs>
			<clipPath id="SVGID_18_">
				<use xlink:href="#SVGID_17_"  style="overflow:visible;"/>
			</clipPath>
			<g class="st17">
				<g>
					<defs>
						<rect id="SVGID_19_" x="-1098" y="-244" width="2116" height="1190"/>
					</defs>
					<clipPath id="SVGID_20_">
						<use xlink:href="#SVGID_19_"  style="overflow:visible;"/>
					</clipPath>
					<rect x="25" y="137" class="st18" width="835" height="39.9"/>
				</g>
			</g>
		</g>
	</g>
	<g class="st8">
		<g>
			<defs>
				<path id="SVGID_21_" d="M855,178.8c0-8.8-7.2-16-16-16H46c-8.8,0-16,7.2-16,16v-9.7c0-8.8,7.2-16,16-16h793c8.8,0,16,7.2,16,16
					V178.8z"/>
			</defs>
			<clipPath id="SVGID_22_">
				<use xlink:href="#SVGID_21_"  style="overflow:visible;"/>
			</clipPath>
			<g class="st19">
				<g>
					<defs>
						<rect id="SVGID_23_" x="-1098" y="-244" width="2116" height="1190"/>
					</defs>
					<clipPath id="SVGID_24_">
						<use xlink:href="#SVGID_23_"  style="overflow:visible;"/>
					</clipPath>
					<rect x="25" y="148.1" class="st20" width="835" height="35.7"/>
				</g>
			</g>
		</g>
	</g>
	<g class="st8">
		<g>
			<defs>
				<polygon id="SVGID_25_" points="269,116.5 878,116.5 878,134.5 267,134.5 				"/>
			</defs>
			<clipPath id="SVGID_26_">
				<use xlink:href="#SVGID_25_"  style="overflow:visible;"/>
			</clipPath>
			<g class="st21">
				<g>
					<defs>
						<rect id="SVGID_27_" x="-1098" y="-244" width="2116" height="1190"/>
					</defs>
					<clipPath id="SVGID_28_">
						<use xlink:href="#SVGID_27_"  style="overflow:visible;"/>
					</clipPath>
					<rect x="262" y="111.5" class="st22" width="621" height="28"/>
				</g>
			</g>
		</g>
	</g>
	<g class="st8">
		<g>
			<defs>
				<path id="SVGID_29_" d="M837,36c8.8,0,16,7.2,16,16v47c0,8.8-7.2,16-16,16H312c-8.8,0-16-7.2-16-16V52c0-8.8,7.2-16,16-16H837z"
					/>
			</defs>
			<clipPath id="SVGID_30_">
				<use xlink:href="#SVGID_29_"  style="overflow:visible;"/>
			</clipPath>
			<g class="st23">
				<g>
					<defs>
						<rect id="SVGID_31_" x="-1098" y="-244" width="2116" height="1190"/>
					</defs>
					<clipPath id="SVGID_32_">
						<use xlink:href="#SVGID_31_"  style="overflow:visible;"/>
					</clipPath>
					<rect x="291" y="31" class="st24" width="567" height="89"/>
				</g>
			</g>
		</g>
	</g>
	<g class="st8">
		<g>
			<defs>
				<path id="SVGID_33_" d="M853,48.5c0-8.8-7.2-16-16-16H313c-8.8,0-16,7.2-16,16v-10c0-8.8,7.2-16,16-16h524c8.8,0,16,7.2,16,16
					V48.5z"/>
			</defs>
			<clipPath id="SVGID_34_">
				<use xlink:href="#SVGID_33_"  style="overflow:visible;"/>
			</clipPath>
			<g class="st25">
				<g>
					<defs>
						<rect id="SVGID_35_" x="-1098" y="-244" width="2116" height="1190"/>
					</defs>
					<clipPath id="SVGID_36_">
						<use xlink:href="#SVGID_35_"  style="overflow:visible;"/>
					</clipPath>
					<rect x="292" y="17.5" class="st26" width="566" height="36"/>
				</g>
			</g>
		</g>
	</g>
	<g class="st8">
		<g>
			<defs>
				<path id="SVGID_37_" d="M853,53.5c0-8.8-7.2-16-16-16H313c-8.8,0-16,7.2-16,16v-7c0-8.8,7.2-16,16-16h524c8.8,0,16,7.2,16,16
					V53.5z"/>
			</defs>
			<clipPath id="SVGID_38_">
				<use xlink:href="#SVGID_37_"  style="overflow:visible;"/>
			</clipPath>
			<g class="st27">
				<g>
					<defs>
						<rect id="SVGID_39_" x="-1098" y="-244" width="2116" height="1190"/>
					</defs>
					<clipPath id="SVGID_40_">
						<use xlink:href="#SVGID_39_"  style="overflow:visible;"/>
					</clipPath>
					<rect x="292" y="25.5" class="st28" width="566" height="33"/>
				</g>
			</g>
		</g>
	</g>
	<g class="st8">
		<g>
			<defs>
				<path id="SVGID_41_" d="M46,162h793c8.8,0,16,7.2,16,16v516c0,8.8-7.2,16-16,16H46c-8.8,0-16-7.2-16-16V178
					C30,169.2,37.2,162,46,162z"/>
			</defs>
			<clipPath id="SVGID_42_">
				<use xlink:href="#SVGID_41_"  style="overflow:visible;"/>
			</clipPath>
			<g class="st29">
				<g>
					<defs>
						<rect id="SVGID_43_" x="-1098" y="-244" width="2116" height="1190"/>
					</defs>
					<clipPath id="SVGID_44_">
						<use xlink:href="#SVGID_43_"  style="overflow:visible;"/>
					</clipPath>
					<rect x="25" y="157" class="st30" width="835" height="558"/>
				</g>
			</g>
		</g>
	</g>
</g>
</svg>
