<?xml version="1.0" encoding="utf-8"?>
<!-- Generator: Adobe Illustrator 23.0.2, SVG Export Plug-In . SVG Version: 6.00 Build 0)  -->
<svg version="1.1" id="Camada_1" xmlns="http://www.w3.org/2000/svg" xmlns:xlink="http://www.w3.org/1999/xlink" x="0px" y="0px"
	 viewBox="0 0 132.6 238.9" style="enable-background:new 0 0 132.6 238.9;" xml:space="preserve">
<style type="text/css">
	.st0{fill:#2C1152;}
	.st1{fill:#AB7DFA;}
	.st2{fill:#CEB5FB;}
</style>
<title>esquerda-01</title>
<path class="st0" d="M130.6,10.1H87c-10.9,0-20.7,4.5-25.7,11.8L1.9,109.2c0,0-0.7,9.5-0.9,12.8c-0.1,3.6,0.9,7.2,2.8,10.2l57.6,94
	c4.8,7.7,14.9,12.5,26.2,12.5h43L130.6,10.1z"/>
<path class="st1" d="M130.6,1.4H87c-9.2,0-17.6,3.8-21.6,9.7l-60,88.8c-3.1,4.3-3.3,10.1-0.4,14.6l60.6,98.4
	c3.9,6.3,12.4,10.3,21.9,10.3h43L130.6,1.4z"/>
<path class="st2" d="M130.6,221.6h-43c-9,0-17.1-3.8-20.7-9.6L6.4,113.7c-2.6-4-2.4-9.1,0.3-13l60-88.7C70.4,6.4,78.4,2.9,87,2.9
	h43.6v-3H87c-9.7,0-18.5,4-22.8,10.4L4.2,99c-3.5,4.8-3.6,11.3-0.4,16.2l60.6,98.4c4.1,6.7,13.2,11,23.2,11h43L130.6,221.6z"/>
</svg>
