<?xml version="1.0" encoding="utf-8"?>
<!-- Generator: Adobe Illustrator 23.0.2, SVG Export Plug-In . SVG Version: 6.00 Build 0)  -->
<svg version="1.1" id="Camada_1" xmlns="http://www.w3.org/2000/svg" xmlns:xlink="http://www.w3.org/1999/xlink" x="0px" y="0px"
	 viewBox="0 0 132.6 238.9" style="enable-background:new 0 0 132.6 238.9;" xml:space="preserve">
<style type="text/css">
	.st0{fill:#2C1152;}
	.st1{fill:#AB7DFA;}
	.st2{fill:#CEB5FB;}
</style>
<title>direita</title>
<g>
	<path class="st0" d="M1.5,238.9l43,0c11.3,0,21.4-4.8,26.2-12.5l57.6-94c1.9-3,2.9-6.6,2.8-10.2c-0.1-3.3-0.9-12.8-0.9-12.8
		L70.8,22c-5-7.3-14.8-11.8-25.7-11.8H1.5L1.5,238.9z"/>
	<path class="st1" d="M1.5,223.3l43,0c9.5,0,18.1-4,21.9-10.3l60.6-98.4c2.9-4.5,2.8-10.3-0.4-14.6l-60-88.8c-4-6-12.4-9.7-21.6-9.7
		H1.5L1.5,223.3z"/>
	<path class="st2" d="M1.5,224.8l43,0c10,0,19.1-4.3,23.2-11l60.6-98.4c3.2-5,3.1-11.4-0.4-16.2l-60-88.7C63.6,4,54.9,0,45.1,0
		L1.5,0v3h43.6c8.6,0,16.6,3.6,20.3,9.1l60,88.7c2.8,3.9,2.9,9,0.3,13l-60.6,98.4c-3.6,5.8-11.7,9.6-20.7,9.6l-43,0L1.5,224.8z"/>
</g>
</svg>
